<svg width="127" height="13" viewBox="0 0 127 13" fill="none" xmlns="http://www.w3.org/2000/svg">
<mask id="mask0_1_23" style="mask-type:alpha" maskUnits="userSpaceOnUse" x="0" y="0" width="8" height="12">
<path d="M0.760674 0.165283H7.60324V11.7347H0.760674V0.165283Z" fill="#606060"/>
</mask>
<g mask="url(#mask0_1_23)">
<path fill-rule="evenodd" clip-rule="evenodd" d="M0.760666 0.479317C0.760666 0.313997 0.892897 0.165283 1.07476 0.165283H3.0415C3.20682 0.165283 3.3556 0.313997 3.3556 0.479317V9.30506H7.28915C7.47089 9.30506 7.60324 9.45383 7.60324 9.61915V11.4206C7.60324 11.5859 7.47089 11.7347 7.28915 11.7347H1.07476C0.892897 11.7347 0.760666 11.5859 0.760666 11.4206V0.479317Z" fill="#15171A"/>
</g>
<path fill-rule="evenodd" clip-rule="evenodd" d="M12.5121 0.479317C12.5121 0.313997 12.6443 0.165283 12.8261 0.165283H19.6686C19.8504 0.165283 19.9827 0.313997 19.9827 0.479317V2.2808C19.9827 2.44612 19.8504 2.59484 19.6686 2.59484H15.0905V4.64436H18.8587C19.024 4.64436 19.1728 4.79314 19.1728 4.95833V6.75994C19.1728 6.94162 19.024 7.07385 18.8587 7.07385H15.0905V9.30506H19.6686C19.8504 9.30506 19.9827 9.45383 19.9827 9.61915V11.4206C19.9827 11.5859 19.8504 11.7347 19.6686 11.7347H12.8261C12.6443 11.7347 12.5121 11.5859 12.5121 11.4206V0.479317Z" fill="#15171A"/>
<path fill-rule="evenodd" clip-rule="evenodd" d="M30.6106 0.0168457C31.9988 0.0168457 33.5194 0.59522 34.6433 1.57041C34.792 1.6861 34.8086 1.88445 34.6763 2.01655L33.3706 3.40498C33.2385 3.52061 33.0566 3.52061 32.9244 3.42147C32.2964 2.84297 31.569 2.62814 30.7593 2.62814C28.9577 2.62814 27.5033 4.14868 27.5033 5.96683C27.5033 7.76825 28.9743 9.25576 30.7758 9.25576C31.2551 9.25576 31.751 9.18965 32.2467 8.99136V8.03271H31.2055C31.0237 8.03271 30.8914 7.90048 30.8914 7.73516V6.09906C30.8914 5.9172 31.0237 5.78497 31.2055 5.78497H34.5276C34.6929 5.78497 34.8251 5.93374 34.8251 6.09906L34.8416 10.5449C34.8416 10.6275 34.7755 10.7597 34.7094 10.8093C34.7094 10.8093 33.0069 11.8837 30.6106 11.8837C27.3216 11.8837 24.6771 9.27231 24.6771 5.96683C24.6771 2.66129 27.3216 0.0168457 30.6106 0.0168457Z" fill="#15171A"/>
<mask id="mask1_1_23" style="mask-type:alpha" maskUnits="userSpaceOnUse" x="38" y="0" width="13" height="12">
<path d="M38.8913 0H50.0311V11.7346H38.8913V0Z" fill="#606060"/>
</mask>
<g mask="url(#mask1_1_23)">
<path fill-rule="evenodd" clip-rule="evenodd" d="M43.2051 7.76795L44.4447 5.04091H44.4613L45.7173 7.76795H43.2051ZM49.998 11.3048L44.8248 0.18168C44.7752 0.0825985 44.6595 0 44.5439 0H44.3785C44.2629 0 44.1472 0.0825985 44.0975 0.18168L38.9245 11.3048C38.8252 11.5198 38.9575 11.7346 39.2053 11.7346H41.0235C41.354 11.7346 41.5359 11.5362 41.6185 11.3379L42.2134 10.0157H46.709L47.3039 11.3213C47.4527 11.6354 47.5849 11.7346 47.8825 11.7346H49.717C49.9649 11.7346 50.0971 11.5198 49.998 11.3048Z" fill="#15171A"/>
</g>
<mask id="mask2_1_23" style="mask-type:alpha" maskUnits="userSpaceOnUse" x="53" y="0" width="11" height="12">
<path d="M53.8163 0H63.8962V11.8999H53.8163V0Z" fill="#606060"/>
</mask>
<g mask="url(#mask2_1_23)">
<path fill-rule="evenodd" clip-rule="evenodd" d="M59.7827 0C61.4355 0 62.6586 0.512381 63.7824 1.53702C63.9312 1.66925 63.9312 1.86766 63.799 1.99989L62.5099 3.33844C62.3941 3.45432 62.2123 3.45432 62.0966 3.33844C61.4852 2.79316 60.6753 2.49567 59.8654 2.49567C57.9978 2.49567 56.6259 4.04923 56.6259 5.90029C56.6259 7.73486 58.0143 9.25546 59.882 9.25546C60.6587 9.25546 61.5017 8.97445 62.0966 8.46213C62.2123 8.36293 62.4271 8.36293 62.5263 8.47868L63.8155 9.85044C63.9312 9.96607 63.9146 10.181 63.799 10.2967C62.6751 11.3876 61.2537 11.8999 59.7827 11.8999C56.4773 11.8999 53.8163 9.27201 53.8163 5.96653C53.8163 2.66099 56.4773 0 59.7827 0Z" fill="#15171A"/>
</g>
<path fill-rule="evenodd" clip-rule="evenodd" d="M71.2202 6.1649L67.5674 0.644699C67.4354 0.429746 67.5674 0.165283 67.8321 0.165283H69.9806C70.1129 0.165283 70.1952 0.248005 70.2452 0.314059L72.5427 3.70232L74.8395 0.314059C74.8896 0.248005 74.9552 0.165283 75.1042 0.165283H77.2526C77.5173 0.165283 77.6496 0.429746 77.5173 0.644699L73.815 6.14829V11.4206C73.815 11.586 73.6661 11.7347 73.5009 11.7347H71.5343C71.3525 11.7347 71.2202 11.586 71.2202 11.4206V6.1649Z" fill="#15171A"/>
<path fill-rule="evenodd" clip-rule="evenodd" d="M86.2281 9.3713H84.7237V7.00786H86.0624C86.7069 7.00786 87.4177 7.50364 87.4177 8.16479C87.4177 8.84237 86.8726 9.3713 86.2281 9.3713ZM84.7237 2.54533H86.0129C86.6413 2.54533 87.1702 3.00814 87.1702 3.66923C87.1702 4.33033 86.6413 4.85925 86.0129 4.85925H84.7237V2.54533ZM87.9465 5.85099C88.7235 5.43775 89.8641 4.51219 89.8641 3.23951C89.8641 1.50408 88.2608 0.165283 86.3104 0.165283H82.4597C82.2778 0.165283 82.1455 0.314059 82.1455 0.479379V11.4206C82.1455 11.586 82.2778 11.7347 82.4597 11.7347H86.5584C88.5249 11.7347 90.1616 10.396 90.1616 8.54488C90.1616 7.0244 88.8225 6.21453 87.9465 5.85099Z" fill="#15171A"/>
<mask id="mask3_1_23" style="mask-type:alpha" maskUnits="userSpaceOnUse" x="94" y="0" width="13" height="12">
<path d="M94.7237 0H106.607V11.8999H94.7237V0Z" fill="#668976"/>
</mask>
<g mask="url(#mask3_1_23)">
<path fill-rule="evenodd" clip-rule="evenodd" d="M100.657 9.25546C98.8557 9.25546 97.3681 7.76795 97.3681 5.96647C97.3681 4.14832 98.8557 2.64438 100.657 2.64438C102.475 2.64438 103.963 4.14832 103.963 5.96647C103.963 7.76795 102.475 9.25546 100.657 9.25546ZM100.657 0C97.3514 0 94.7237 2.66093 94.7237 5.96647C94.7237 9.27201 97.3514 11.8999 100.657 11.8999C103.963 11.8999 106.607 9.27201 106.607 5.96647C106.607 2.66093 103.963 0 100.657 0Z" fill="#4C5E53"/>
</g>
<path fill-rule="evenodd" clip-rule="evenodd" d="M114.358 5.80129L111.02 0.628093C110.888 0.413325 111.02 0.165283 111.301 0.165283H113.714C113.83 0.165283 113.929 0.248005 113.979 0.313997L115.879 3.38822H115.896L117.829 0.313997C117.863 0.248005 117.978 0.165283 118.094 0.165283H120.507C120.788 0.165283 120.936 0.413325 120.788 0.628093L117.433 5.80129L120.904 11.2719C121.053 11.5034 120.904 11.7347 120.639 11.7347H118.342C118.242 11.7347 118.111 11.6687 118.061 11.586L115.896 8.24733H115.863L113.747 11.586C113.698 11.6521 113.598 11.7347 113.466 11.7347H111.169C110.888 11.7347 110.739 11.4868 110.888 11.2719L114.358 5.80129Z" fill="#15171A"/>
<path fill-rule="evenodd" clip-rule="evenodd" d="M124.947 3.34462C124.178 3.34462 123.554 2.71956 123.554 1.95084C123.554 1.17701 124.178 0.557057 124.947 0.557057C125.721 0.557057 126.341 1.17701 126.341 1.95084C126.341 2.71956 125.721 3.34462 124.947 3.34462ZM124.947 0.165283C123.965 0.165283 123.166 0.968697 123.166 1.95084C123.166 2.93292 123.965 3.73147 124.947 3.73147C125.929 3.73147 126.733 2.93292 126.733 1.95084C126.733 0.968697 125.929 0.165283 124.947 0.165283Z" fill="#15171A"/>
<path fill-rule="evenodd" clip-rule="evenodd" d="M125.091 1.86143H124.699V1.45465H125.091C125.21 1.45465 125.294 1.53903 125.294 1.65804C125.294 1.77212 125.21 1.86143 125.091 1.86143ZM125.404 2.20357C125.557 2.12921 125.756 1.9805 125.756 1.65305C125.756 1.2662 125.453 1.03809 125.146 1.03809H124.377C124.322 1.03809 124.283 1.08274 124.283 1.13225V2.75912C124.283 2.80876 124.322 2.85341 124.377 2.85341H124.62C124.674 2.85341 124.714 2.80876 124.714 2.75912V2.22848H124.972L125.19 2.78397C125.205 2.81872 125.24 2.85341 125.28 2.85341H125.547C125.617 2.85341 125.661 2.78901 125.632 2.71945L125.404 2.20357Z" fill="#15171A"/>
<path fill-rule="evenodd" clip-rule="evenodd" d="M97.0883 11.9235L97.9724 11.966L98.0147 12.8429C98.0219 12.9844 98.1916 13.0551 98.2977 12.949L100.207 11.0395H101.127L103.036 12.949C103.135 13.0481 103.312 12.9844 103.319 12.8429L103.362 11.966L104.246 11.9235C104.387 11.9165 104.451 11.7467 104.352 11.6406L102.902 10.1908L103.786 9.30676C103.878 9.21482 103.828 9.05921 103.701 9.03092L102.93 8.87532L102.753 8.06908C102.725 7.94177 102.569 7.89933 102.477 7.99128L101.282 9.18652H100.052L98.8564 7.99128C98.7645 7.89933 98.6089 7.94177 98.5806 8.06908L98.4038 8.87532L97.6329 9.03092C97.5056 9.05921 97.4561 9.21482 97.548 9.30676L98.4321 10.1908L96.9822 11.6406C96.8761 11.7396 96.9469 11.9165 97.0883 11.9235Z" fill="#D23738"/>
</svg>
