<svg width="38" height="17" viewBox="0 0 38 17" fill="none" xmlns="http://www.w3.org/2000/svg">
<path d="M21.5433 3.97562H21.5439V3.97638C23.389 3.97657 24.7679 4.52782 25.6884 5.41885C26.5281 6.23187 26.9791 7.32441 27.0488 8.53554H27.045V8.93928H16.4988C16.5132 10.1595 16.9093 11.2594 17.7219 12.055C18.5456 12.8616 19.8064 13.3607 21.5427 13.3607V13.3599H21.5433H21.5441V13.3607C23.2802 13.3605 24.5408 12.8616 25.3644 12.0551C25.8822 11.5484 26.2308 10.9179 26.4194 10.2117H26.9007C26.7014 11.0177 26.3114 11.7403 25.7185 12.3207C24.8082 13.2121 23.4293 13.7636 21.5441 13.7638V13.7644H21.5433H21.5427V13.7638C19.6575 13.7636 18.2783 13.2119 17.3679 12.3204C16.4617 11.4331 16.0284 10.2137 16.0282 8.87087H16.0273V8.87002V8.86967H16.0282C16.0282 7.52591 16.4819 6.30588 17.3984 5.41863C18.3187 4.52769 19.6976 3.97654 21.5425 3.97635V3.97559H21.5433V3.97562ZM26.578 8.53468C26.5096 7.42166 26.0979 6.42344 25.3362 5.68584C24.5026 4.87887 23.2417 4.37949 21.5439 4.37939V4.38015H21.5433H21.5425V4.37939C19.8447 4.37945 18.5841 4.87884 17.7505 5.68575C16.9886 6.42328 16.577 7.42166 16.5087 8.53468H26.578Z" fill="#FFF9E7"/>
<path d="M5.98164 3.97559H5.98212V3.97635C7.82724 3.97654 9.20634 4.52779 10.1267 5.41882C10.9664 6.23184 11.4174 7.32437 11.4871 8.5355H11.4833V8.93925H0.937065C0.951511 10.1595 1.34769 11.2594 2.16018 12.0549C2.9838 12.8616 4.24482 13.3607 5.98094 13.3607V13.3598H5.98164H5.98242V13.3607C7.7185 13.3605 8.97923 12.8615 9.80288 12.055C10.3204 11.5484 10.669 10.9178 10.8576 10.2117H11.339C11.1398 11.0177 10.7496 11.7403 10.1569 12.3207C9.24643 13.212 7.86755 13.7636 5.98242 13.7637V13.7644H5.98164H5.98094V13.7637C4.09574 13.7636 2.71663 13.2119 1.8062 12.3203C0.900007 11.4331 0.466734 10.2138 0.466402 8.87087H0.465515V8.87002V8.86967H0.466402C0.466513 7.52591 0.920217 6.30588 1.83668 5.41863C2.75694 4.5277 4.1359 3.97654 5.98083 3.97635V3.97559H5.98164V3.97559ZM11.0162 8.53465C10.948 7.42163 10.5363 6.4234 9.77454 5.68581C8.94099 4.87884 7.68015 4.37945 5.98216 4.37936V4.38012H5.98164H5.98083V4.37936C4.28313 4.37942 3.02244 4.8788 2.18885 5.68572C1.42694 6.42325 1.01521 7.42163 0.946966 8.53465H11.0162Z" fill="#FFF9E7"/>
<path d="M12.8515 0.517578V13.5624H12.3795V0.517578H12.8515Z" fill="#FFF9E7"/>
<path d="M37.412 13.5622H36.94V7.6611H36.941V7.54118C36.941 7.52544 36.9406 7.50837 36.9402 7.49016C36.9276 6.90831 36.8821 6.35079 36.5389 5.83716C35.8997 4.88036 34.5298 4.38012 32.7799 4.38012C32.6877 4.38012 32.6093 4.38123 32.5448 4.38344C31.8072 4.40843 31.0761 4.55905 30.4419 4.89081C29.041 5.62412 28.4111 7.07197 28.3863 8.65214V13.5622H27.9142V4.17788H28.3863V6.45802C28.7547 5.66193 29.3483 4.9905 30.1967 4.54635C30.8977 4.17944 31.7105 4.00805 32.5264 3.9804C32.6222 3.9772 32.7068 3.97559 32.7799 3.97559C34.7014 3.97559 36.2196 4.54565 36.9482 5.6365C37.3321 6.21113 37.3962 6.83221 37.4105 7.48382C37.4109 7.50099 37.4111 7.51974 37.4113 7.53966V7.54042C37.4113 9.65309 37.412 11.4482 37.412 13.5622Z" fill="#FFF9E7"/>
<path d="M15.1035 0.517578V13.5624H14.6315V0.517578H15.1035Z" fill="#FFF9E7"/>
<path d="M1.76812 15.775C1.76812 15.8226 1.77625 15.8544 1.79258 15.8702C1.8088 15.886 1.83898 15.8938 1.88239 15.8938C1.89503 15.8938 1.91047 15.8934 1.92839 15.8929C1.94624 15.8922 1.96937 15.8909 1.99796 15.8888V16.0398C1.96216 16.0453 1.93042 16.0489 1.90205 16.0517C1.8739 16.0544 1.84874 16.0558 1.82638 16.0558C1.72596 16.0558 1.65521 16.0395 1.61449 16.0075C1.57422 15.9751 1.55398 15.9178 1.55398 15.8355V15.1248H1.36322V14.9835H1.55398V14.688H1.76815V14.9835H1.99796V15.1248H1.76815V15.775H1.76812ZM3.44897 16.0419V15.3905C3.44897 15.2861 3.42983 15.2137 3.39122 15.1744C3.35254 15.1349 3.28618 15.1149 3.19267 15.1149C3.07691 15.1149 2.98458 15.1423 2.91627 15.1967C2.84788 15.2509 2.81374 15.324 2.81374 15.4166V16.0419H2.59956V14.5864H2.81374V15.1328C2.85294 15.0754 2.90644 15.0316 2.97479 15.0017C3.04303 14.9716 3.12284 14.9569 3.21432 14.9569C3.31023 14.9569 3.39122 14.9689 3.45706 14.9928C3.5229 15.0168 3.57374 15.0529 3.60961 15.1012C3.62945 15.1268 3.64368 15.1569 3.65262 15.1916C3.66111 15.2259 3.66566 15.2809 3.66566 15.3562V15.4064V16.0419H3.44897ZM4.54831 15.4166H5.24849C5.24771 15.3177 5.21764 15.2414 5.15778 15.1878C5.09845 15.1342 5.01384 15.1072 4.90452 15.1072C4.79881 15.1072 4.7155 15.1335 4.65476 15.1862C4.5942 15.2391 4.55844 15.3156 4.54831 15.4166ZM5.24398 15.7H5.45587C5.4327 15.8166 5.37178 15.9087 5.27247 15.9759C5.17323 16.0429 5.04805 16.0766 4.89724 16.0766C4.72034 16.0766 4.58042 16.0274 4.478 15.9285C4.37559 15.8297 4.32427 15.6948 4.32427 15.5242C4.32427 15.3436 4.37507 15.2027 4.47682 15.1012C4.57842 14.9997 4.71875 14.949 4.89724 14.949C5.08053 14.949 5.22248 14.9958 5.3229 15.0894C5.42332 15.1828 5.47371 15.3151 5.47371 15.4857C5.47371 15.5072 5.47371 15.5235 5.47342 15.534C5.47301 15.5445 5.47183 15.5548 5.47009 15.5646H4.54953C4.55193 15.6759 4.58519 15.7623 4.64955 15.8233C4.71369 15.8845 4.80332 15.9147 4.91745 15.9147C5.00494 15.9147 5.07691 15.8962 5.13384 15.8587C5.19074 15.8216 5.22732 15.7687 5.24398 15.7ZM7.14363 15.4166H7.8438C7.84303 15.3177 7.81284 15.2414 7.7531 15.1878C7.6938 15.1342 7.60927 15.1072 7.49987 15.1072C7.39413 15.1072 7.31074 15.1335 7.25022 15.1862C7.18952 15.2391 7.15375 15.3156 7.14363 15.4166ZM7.83937 15.7H8.05115C8.02802 15.8166 7.96695 15.9087 7.86785 15.9759C7.76854 16.0429 7.64333 16.0766 7.49251 16.0766C7.31561 16.0766 7.1757 16.0274 7.07328 15.9285C6.97075 15.8297 6.91955 15.6948 6.91955 15.5242C6.91955 15.3436 6.97035 15.2027 7.07206 15.1012C7.1737 14.9997 7.31391 14.949 7.49251 14.949C7.67581 14.949 7.81776 14.9958 7.91818 15.0894C8.0186 15.1828 8.0691 15.3151 8.0691 15.4857C8.0691 15.5072 8.0691 15.5235 8.0687 15.534C8.06818 15.5445 8.067 15.5548 8.06541 15.5646H7.14485C7.14725 15.6759 7.18061 15.7623 7.24486 15.8233C7.30911 15.8845 7.39852 15.9147 7.51287 15.9147C7.60025 15.9147 7.67222 15.8962 7.72916 15.8587C7.78605 15.8216 7.82263 15.7687 7.83937 15.7ZM8.71423 16.0419V14.5864H8.93221V16.0419H8.71423ZM9.66316 16.0419V14.5864H9.88104V16.0419H9.66316ZM10.5778 15.4166H11.278C11.2772 15.3177 11.2471 15.2414 11.1872 15.1878C11.1279 15.1342 11.0434 15.1072 10.934 15.1072C10.8282 15.1072 10.745 15.1335 10.6843 15.1862C10.6238 15.2391 10.5879 15.3156 10.5778 15.4166ZM11.2736 15.7H11.4854C11.4622 15.8166 11.4012 15.9087 11.3019 15.9759C11.2028 16.0429 11.0775 16.0766 10.9267 16.0766C10.7498 16.0766 10.61 16.0274 10.5075 15.9285C10.4051 15.8297 10.3537 15.6948 10.3537 15.5242C10.3537 15.3436 10.4046 15.2027 10.5064 15.1012C10.6079 14.9997 10.7482 14.949 10.9267 14.949C11.11 14.949 11.252 14.9958 11.3524 15.0894C11.4529 15.1828 11.5033 15.3151 11.5033 15.4857C11.5033 15.5072 11.5033 15.5235 11.5029 15.534C11.5025 15.5445 11.5013 15.5548 11.4997 15.5646H10.579C10.5815 15.6759 10.6148 15.7623 10.6791 15.8233C10.7433 15.8845 10.8328 15.9147 10.9471 15.9147C11.0345 15.9147 11.1064 15.8962 11.1635 15.8587C11.2202 15.8216 11.2568 15.7687 11.2736 15.7ZM12.9954 16.0419V15.3905C12.9954 15.2866 12.9764 15.2144 12.9376 15.1748C12.8991 15.1349 12.8328 15.1149 12.7393 15.1149C12.6193 15.1149 12.5262 15.143 12.4599 15.1993C12.3937 15.2556 12.3603 15.3356 12.3603 15.4392V16.0419H12.146V14.9835H12.3509V15.1376C12.4001 15.0764 12.4583 15.0309 12.5257 15.0013C12.5932 14.9716 12.6717 14.9569 12.7608 14.9569C12.8568 14.9569 12.9376 14.9689 13.0035 14.9928C13.0693 15.0168 13.1203 15.0529 13.156 15.1012C13.1759 15.1268 13.1901 15.1569 13.199 15.1916C13.2076 15.2259 13.2121 15.2809 13.2121 15.3562V15.4064V16.0419H12.9954ZM15.783 15.5057C15.783 15.3744 15.751 15.2756 15.6871 15.2091C15.6233 15.1427 15.5285 15.1093 15.4033 15.1093C15.2825 15.1093 15.189 15.1457 15.1232 15.2186C15.0572 15.2911 15.0243 15.3947 15.0243 15.5282C15.0243 15.6486 15.0581 15.7435 15.1261 15.8125C15.1939 15.8818 15.287 15.9164 15.4053 15.9164C15.5253 15.9164 15.6184 15.8811 15.6843 15.8099C15.7501 15.7386 15.783 15.6371 15.783 15.5057ZM15.9831 14.5864V16.0419H15.7757V15.9087C15.7212 15.964 15.6591 16.0055 15.5899 16.0331C15.5213 16.0608 15.4447 16.0747 15.3614 16.0747C15.1914 16.0747 15.056 16.024 14.9548 15.9228C14.8535 15.8216 14.8026 15.6864 14.8026 15.5163C14.8026 15.3429 14.8534 15.2051 14.9552 15.1029C15.0568 15.0003 15.1922 14.949 15.3614 14.949C15.4504 14.949 15.5293 14.9629 15.5976 14.9902C15.6664 15.0175 15.7257 15.0582 15.7757 15.1134V14.5864H15.9831V14.5864ZM16.8788 15.4166H17.5789C17.5781 15.3177 17.548 15.2414 17.4882 15.1878C17.4289 15.1342 17.3443 15.1072 17.235 15.1072C17.1292 15.1072 17.0459 15.1335 16.9852 15.1862C16.9247 15.2391 16.8889 15.3156 16.8788 15.4166ZM17.5744 15.7H17.7863C17.7632 15.8166 17.7021 15.9087 17.6029 15.9759C17.5036 16.0429 17.3785 16.0766 17.2276 16.0766C17.0507 16.0766 16.9108 16.0274 16.8084 15.9285C16.7059 15.8297 16.6546 15.6948 16.6546 15.5242C16.6546 15.3436 16.7054 15.2027 16.8072 15.1012C16.9088 14.9997 17.049 14.949 17.2276 14.949C17.4109 14.949 17.5529 14.9958 17.6533 15.0894C17.7537 15.1828 17.8042 15.3151 17.8042 15.4857C17.8042 15.5072 17.8042 15.5235 17.8038 15.534C17.8033 15.5445 17.8021 15.5548 17.8005 15.5646H16.88C16.8824 15.6759 16.9157 15.7623 16.98 15.8233C17.0443 15.8845 17.1338 15.9147 17.248 15.9147C17.3354 15.9147 17.4074 15.8962 17.4642 15.8587C17.5211 15.8216 17.5577 15.7687 17.5744 15.7ZM18.8649 15.1093C18.7442 15.1093 18.6511 15.144 18.5859 15.2137C18.5209 15.2837 18.4884 15.3835 18.4884 15.5134C18.4884 15.6405 18.5217 15.7393 18.5884 15.8101C18.6551 15.8811 18.7483 15.9164 18.8673 15.9164C18.9974 15.9164 19.0939 15.8841 19.156 15.8188C19.2181 15.7541 19.2496 15.6546 19.2496 15.52C19.2496 15.3845 19.2172 15.2822 19.1524 15.2132C19.0878 15.144 18.9918 15.1093 18.8649 15.1093ZM19.2422 15.9123C19.1922 15.9673 19.1337 16.0082 19.0666 16.0355C18.9996 16.0628 18.9231 16.0766 18.8373 16.0766C18.6648 16.0766 18.5267 16.0247 18.4217 15.9211C18.3168 15.8173 18.2643 15.6801 18.2643 15.5092C18.2643 15.3407 18.3168 15.2051 18.4221 15.1029C18.5275 15.0004 18.6665 14.949 18.8396 14.949C18.9238 14.949 18.9978 14.9626 19.0621 14.9892C19.1259 15.0159 19.1852 15.0583 19.2401 15.117V14.9835H19.4496V16.0194C19.4496 16.1826 19.4029 16.3006 19.3089 16.3735C19.2153 16.4463 19.0641 16.4828 18.855 16.4828C18.6859 16.4828 18.5538 16.4555 18.4586 16.4008C18.363 16.3462 18.3155 16.2702 18.3155 16.1735V16.1658H18.5253V16.1699C18.5253 16.2244 18.5533 16.2653 18.6095 16.2926C18.6652 16.3199 18.7498 16.3338 18.8624 16.3338C18.9974 16.3338 19.0946 16.3121 19.1535 16.2694C19.2128 16.2264 19.2421 16.156 19.2421 16.0579V15.9123H19.2422ZM20.1915 15.4166H20.8916C20.891 15.3177 20.8608 15.2414 20.8011 15.1878C20.7417 15.1342 20.6571 15.1072 20.5477 15.1072C20.4421 15.1072 20.3587 15.1335 20.2981 15.1862C20.2376 15.2391 20.2017 15.3156 20.1915 15.4166ZM20.8872 15.7H21.0991C21.0759 15.8166 21.0149 15.9087 20.9157 15.9759C20.8165 16.0429 20.6912 16.0766 20.5405 16.0766C20.3635 16.0766 20.2236 16.0274 20.1211 15.9285C20.0187 15.8297 19.9674 15.6948 19.9674 15.5242C19.9674 15.3436 20.0183 15.2027 20.1201 15.1012C20.2215 14.9997 20.3619 14.949 20.5405 14.949C20.7237 14.949 20.8658 14.9958 20.9662 15.0894C21.0667 15.1828 21.1169 15.3151 21.1169 15.4857C21.1169 15.5072 21.1169 15.5235 21.1165 15.534C21.1161 15.5445 21.115 15.5548 21.1133 15.5646H20.1927C20.1953 15.6759 20.2286 15.7623 20.2927 15.8233C20.3571 15.8845 20.4465 15.9147 20.5607 15.9147C20.6481 15.9147 20.7201 15.8962 20.7772 15.8587C20.8339 15.8216 20.8706 15.7687 20.8872 15.7ZM22.6091 16.0419V15.3905C22.6091 15.2866 22.59 15.2144 22.5514 15.1748C22.5129 15.1349 22.4465 15.1149 22.3529 15.1149C22.233 15.1149 22.1398 15.143 22.0737 15.1993C22.0073 15.2556 21.9741 15.3356 21.9741 15.4392V16.0419H21.7598V14.9835H21.9646V15.1376C22.0138 15.0764 22.0721 15.0309 22.1394 15.0013C22.2069 14.9716 22.2853 14.9569 22.3745 14.9569C22.4706 14.9569 22.5513 14.9689 22.6172 14.9928C22.683 15.0168 22.7339 15.0529 22.7698 15.1012C22.7896 15.1268 22.8039 15.1569 22.8127 15.1916C22.8213 15.2259 22.8257 15.2809 22.8257 15.3562V15.4064V16.0419H22.6091ZM23.7086 15.4166H24.4087C24.4079 15.3177 24.3779 15.2414 24.3181 15.1878C24.2586 15.1342 24.174 15.1072 24.0648 15.1072C23.959 15.1072 23.8756 15.1335 23.815 15.1862C23.7545 15.2391 23.7186 15.3156 23.7086 15.4166ZM24.4043 15.7H24.616C24.5929 15.8166 24.532 15.9087 24.4328 15.9759C24.3335 16.0429 24.2083 16.0766 24.0573 16.0766C23.8806 16.0766 23.7406 16.0274 23.6382 15.9285C23.5358 15.8297 23.4844 15.6948 23.4844 15.5242C23.4844 15.3436 23.5351 15.2027 23.637 15.1012C23.7386 14.9997 23.8789 14.949 24.0573 14.949C24.2407 14.949 24.3827 14.9958 24.4831 15.0894C24.5835 15.1828 24.634 15.3151 24.634 15.4857C24.634 15.5072 24.634 15.5235 24.6334 15.534C24.6332 15.5445 24.632 15.5548 24.6302 15.5646H23.7097C23.7121 15.6759 23.7454 15.7623 23.8097 15.8233C23.8739 15.8845 23.9635 15.9147 24.0777 15.9147C24.1651 15.9147 24.2371 15.8962 24.294 15.8587C24.351 15.8216 24.3877 15.7687 24.4043 15.7ZM25.0816 16.0419V14.9835H25.2885V15.1733C25.3226 15.1022 25.3691 15.0488 25.4276 15.0137C25.4862 14.9784 25.5577 14.9608 25.6427 14.9608C25.6585 14.9608 25.6702 14.9608 25.6772 14.9612C25.6846 14.9615 25.6914 14.9626 25.6988 14.9639V15.1517C25.693 15.1512 25.687 15.1503 25.6796 15.15C25.6724 15.1497 25.6617 15.1497 25.6475 15.1497C25.5328 15.1497 25.4459 15.1757 25.3857 15.2273C25.3258 15.2788 25.2957 15.3541 25.2957 15.4529V16.0419H25.0816ZM26.4525 15.4166H27.1526C27.1518 15.3177 27.1218 15.2414 27.062 15.1878C27.0025 15.1342 26.9181 15.1072 26.8087 15.1072C26.7029 15.1072 26.6197 15.1335 26.5589 15.1862C26.4984 15.2391 26.4625 15.3156 26.4525 15.4166ZM27.1482 15.7H27.3599C27.3368 15.8166 27.2759 15.9087 27.1767 15.9759C27.0774 16.0429 26.9522 16.0766 26.8013 16.0766C26.6245 16.0766 26.4845 16.0274 26.3821 15.9285C26.2797 15.8297 26.2284 15.6948 26.2284 15.5242C26.2284 15.3436 26.2793 15.2027 26.3809 15.1012C26.4825 14.9997 26.6228 14.949 26.8013 14.949C26.9847 14.949 27.1266 14.9958 27.227 15.0894C27.3274 15.1828 27.3779 15.3151 27.3779 15.4857C27.3779 15.5072 27.3779 15.5235 27.3775 15.534C27.3771 15.5445 27.3759 15.5548 27.3743 15.5646H26.4536C26.456 15.6759 26.4893 15.7623 26.5536 15.8233C26.6178 15.8845 26.7074 15.9147 26.8216 15.9147C26.909 15.9147 26.981 15.8962 27.0379 15.8587C27.0949 15.8216 27.1316 15.7687 27.1482 15.7ZM27.934 15.6979H28.1403C28.1483 15.7698 28.1791 15.824 28.2337 15.8611C28.2882 15.8979 28.3655 15.9164 28.4656 15.9164C28.5574 15.9164 28.6301 15.9015 28.6834 15.8716C28.7366 15.8415 28.763 15.8005 28.763 15.7484C28.763 15.7097 28.7498 15.6797 28.7233 15.6591C28.6964 15.6381 28.6447 15.6202 28.5676 15.6051L28.328 15.5537C28.193 15.5268 28.0995 15.491 28.0466 15.4465C27.9937 15.402 27.9674 15.3386 27.9674 15.2563C27.9674 15.1629 28.0101 15.0886 28.0953 15.0337C28.1809 14.9787 28.2976 14.951 28.4463 14.951C28.598 14.951 28.7183 14.9804 28.8083 15.0392C28.8981 15.0978 28.9428 15.1763 28.9428 15.2752V15.2794H28.7342C28.7293 15.2233 28.7017 15.1797 28.6512 15.1491C28.6009 15.1184 28.5325 15.1033 28.4459 15.1033C28.3593 15.1033 28.294 15.1157 28.2487 15.1408C28.204 15.166 28.1817 15.2024 28.1817 15.2507C28.1817 15.2847 28.196 15.3117 28.2238 15.331C28.2521 15.3503 28.3048 15.3673 28.3818 15.3818L28.589 15.4223C28.7365 15.4514 28.8384 15.4885 28.8941 15.5337C28.9496 15.5789 28.9773 15.6433 28.9773 15.727C28.9773 15.837 28.9306 15.9221 28.8376 15.9833C28.744 16.0443 28.6139 16.0748 28.4463 16.0748C28.2825 16.0748 28.1569 16.0423 28.069 15.9778C27.9815 15.913 27.9364 15.82 27.934 15.6979ZM30.5278 15.6979H30.7339C30.7421 15.7698 30.7729 15.824 30.8274 15.8611C30.8818 15.8979 30.9591 15.9164 31.0592 15.9164C31.1509 15.9164 31.2239 15.9015 31.277 15.8716C31.3303 15.8415 31.3568 15.8005 31.3568 15.7484C31.3568 15.7097 31.3434 15.6797 31.3169 15.6591C31.29 15.6381 31.2385 15.6202 31.1611 15.6051L30.9217 15.5537C30.7868 15.5268 30.6933 15.491 30.6404 15.4465C30.5875 15.402 30.5611 15.3386 30.5611 15.2563C30.5611 15.1629 30.6037 15.0886 30.6891 15.0337C30.7746 14.9787 30.8912 14.951 31.0401 14.951C31.1917 14.951 31.3121 14.9804 31.402 15.0392C31.492 15.0978 31.5364 15.1763 31.5364 15.2752V15.2794H31.328C31.323 15.2233 31.2955 15.1797 31.245 15.1491C31.1945 15.1184 31.1263 15.1033 31.0397 15.1033C30.9529 15.1033 30.8876 15.1157 30.8425 15.1408C30.7978 15.166 30.7753 15.2024 30.7753 15.2507C30.7753 15.2847 30.7896 15.3117 30.8176 15.331C30.8457 15.3503 30.8986 15.3673 30.9754 15.3818L31.1829 15.4223C31.3304 15.4514 31.432 15.4885 31.4877 15.5337C31.5435 15.5789 31.5712 15.6433 31.5712 15.727C31.5712 15.837 31.5244 15.9221 31.4313 15.9833C31.3379 16.0443 31.2077 16.0748 31.0402 16.0748C30.8762 16.0748 30.7505 16.0423 30.6627 15.9778C30.5753 15.913 30.5302 15.82 30.5278 15.6979ZM32.9498 16.0419V15.3905C32.9498 15.2861 32.9308 15.2137 32.8921 15.1744C32.8534 15.1349 32.787 15.1149 32.6936 15.1149C32.5778 15.1149 32.4853 15.1423 32.4173 15.1967C32.3489 15.2509 32.3146 15.324 32.3146 15.4166V16.0419H32.1003V14.5864H32.3146V15.1328C32.3537 15.0754 32.4074 15.0316 32.4758 15.0017C32.5439 14.9716 32.6237 14.9569 32.7151 14.9569C32.8111 14.9569 32.8921 14.9689 32.958 14.9928C33.0238 15.0168 33.0747 15.0529 33.1104 15.1012C33.1302 15.1268 33.1447 15.1569 33.1535 15.1916C33.1621 15.2259 33.1665 15.2809 33.1665 15.3562V15.4064V16.0419H32.9498ZM34.0395 15.5113C34.0395 15.6426 34.0735 15.7427 34.1415 15.8122C34.2092 15.8817 34.3061 15.9164 34.4325 15.9164C34.5578 15.9164 34.6543 15.8817 34.7208 15.8122C34.7876 15.7427 34.8208 15.6426 34.8208 15.5113C34.8208 15.3807 34.7876 15.2809 34.7208 15.2115C34.6543 15.1419 34.5578 15.1072 34.4325 15.1072C34.3053 15.1072 34.2082 15.1419 34.1407 15.2111C34.0731 15.2802 34.0395 15.3801 34.0395 15.5113ZM33.8201 15.5113C33.8201 15.3342 33.8735 15.1959 33.9805 15.0971C34.0873 14.9983 34.2371 14.949 34.4301 14.949C34.6241 14.949 34.7745 14.9983 34.8816 15.0967C34.9888 15.1952 35.0425 15.3336 35.0425 15.5113C35.0425 15.6891 34.9892 15.8278 34.8823 15.9266C34.7753 16.0253 34.6258 16.0747 34.4325 16.0747C34.2387 16.0747 34.0882 16.0253 33.9811 15.9269C33.8739 15.8285 33.8201 15.6897 33.8201 15.5113ZM35.9357 16.0419L35.5542 14.9835H35.7771L36.0475 15.7931L36.2993 14.9835H36.548L36.7974 15.7931L37.077 14.9835H37.2975L36.909 16.0419H36.6923L36.4231 15.2266L36.1523 16.0419H35.9357Z" fill="#FFF9E7"/>
</svg>
