<svg width="186" height="272" viewBox="0 0 186 272" fill="none" xmlns="http://www.w3.org/2000/svg">
<path d="M75.6629 158.682V159.212C73.4369 159.106 70.0449 159 66.4409 159C62.5189 159 59.5509 159.106 57.2189 159.212V158.682C61.1409 158.046 62.5189 157.516 62.5189 149.036V91.69C60.2929 93.598 57.1129 95.824 53.7209 98.05L53.1909 96.884C59.7629 92.432 67.9249 87.026 69.8329 80.348H70.3629V149.036C70.3629 157.516 71.7409 158.046 75.6629 158.682ZM91.9737 139.496L92.1857 139.92C91.6557 141.404 91.4437 142.782 91.4437 144.16C91.4437 152.958 97.9097 157.622 106.39 157.622C117.308 157.622 122.608 149.354 122.608 140.556C122.608 129.214 116.142 121.794 103.422 121.158V120.416C116.99 119.674 121.76 111.3 121.76 101.76C121.76 91.584 115.294 85.224 105.224 85.224C97.6977 85.224 90.2777 90.1 90.2777 98.898C90.2777 101.23 91.0197 103.668 92.9277 105.894C90.9137 106.318 90.3837 106.53 88.7937 107.484C87.7337 105.258 87.3097 102.714 87.3097 100.276C87.3097 90.524 95.3657 81.408 108.192 81.408C121.866 81.408 130.558 90.418 130.558 101.124C130.558 107.908 126.636 113.632 118.156 117.766C127.272 122.324 131.406 128.578 131.406 137.164C131.406 149.036 122.714 160.06 107.026 160.06C98.3337 160.06 89.6417 154.972 86.1437 145.008C89.7477 142.57 90.5957 140.45 91.9737 139.496Z" fill="#EA5E57"/>
<path d="M7.57403 3.18715H1L1 9.69505C1.08756 9.69505 1.17511 9.67941 1.26267 9.67941C4.88897 9.67941 7.82941 12.8279 7.82941 16.7108C7.82941 20.5936 4.88897 23.7421 1.26267 23.7421C1.17511 23.7421 1.08756 23.7343 1 23.7265L1 29.6484C4.6263 29.6484 7.56674 32.7969 7.56674 36.6797C7.56674 40.5626 4.6263 43.7111 1 43.7111L1 49.6174C4.6263 49.6174 7.56674 52.7659 7.56674 56.6488C7.56674 60.5316 4.6263 63.6801 1 63.6801L1 69.5864C4.6263 69.5864 7.56674 72.7349 7.56674 76.6178C7.56674 80.5006 4.6263 83.6491 1 83.6491L1 89.5554C4.6263 89.5554 7.56674 92.7039 7.56674 96.5868C7.56674 100.47 4.6263 103.618 1 103.618L1 109.524C4.6263 109.524 7.56674 112.673 7.56674 116.556C7.56674 120.439 4.6263 123.587 1 123.587L1 129.493C4.6263 129.493 7.56674 132.642 7.56674 136.525C7.56674 140.408 4.6263 143.556 1 143.556L1 149.462C4.6263 149.462 7.56674 152.611 7.56674 156.494C7.56674 160.377 4.6263 163.525 1 163.525L1 169.431C4.6263 169.431 7.56674 172.58 7.56674 176.463C7.56674 180.346 4.6263 183.494 1 183.494L1 189.4C4.6263 189.4 7.56674 192.549 7.56674 196.432C7.56674 200.315 4.6263 203.463 1 203.463L1 209.369C4.6263 209.369 7.56674 212.518 7.56674 216.401C7.56674 220.284 4.6263 223.432 1 223.432L1 229.338C4.6263 229.338 7.56674 232.487 7.56674 236.37C7.56674 240.253 4.6263 243.401 1 243.401L1 249.307C4.6263 249.307 7.56674 252.456 7.56674 256.339C7.56674 260.222 4.6263 263.37 1 263.37L1 270.401H7.57403C7.57403 270.355 7.57403 270.308 7.57403 270.261C7.57403 266.378 10.5145 263.23 14.1408 263.23C17.7671 263.23 20.7075 266.378 20.7075 270.261C20.7075 270.308 20.7075 270.355 20.7075 270.401H27.2742C27.2742 270.355 27.2742 270.308 27.2742 270.261C27.2742 266.378 30.2147 263.23 33.841 263.23C37.4673 263.23 40.4077 266.378 40.4077 270.261C40.4077 270.308 40.4077 270.355 40.4077 270.401H46.9745C46.9745 270.355 46.9745 270.308 46.9745 270.261C46.9745 266.378 49.9149 263.23 53.5412 263.23C57.1675 263.23 60.1079 266.378 60.1079 270.261C60.1079 270.308 60.1079 270.355 60.1079 270.401H66.6747C66.6747 270.355 66.6747 270.308 66.6747 270.261C66.6747 266.378 69.6151 263.23 73.2414 263.23C76.8677 263.23 79.8081 266.378 79.8081 270.261C79.8081 270.308 79.8081 270.355 79.8081 270.401H86.3749C86.3749 270.355 86.3749 270.308 86.3749 270.261C86.3749 266.378 89.3153 263.23 92.9416 263.23C96.5679 263.23 99.5084 266.378 99.5084 270.261C99.5084 270.308 99.5084 270.355 99.5084 270.401H106.075C106.075 270.355 106.075 270.308 106.075 270.261C106.075 266.378 109.016 263.23 112.642 263.23C116.268 263.23 119.209 266.378 119.209 270.261C119.209 270.308 119.209 270.355 119.209 270.401H125.775C125.775 270.355 125.775 270.308 125.775 270.261C125.775 266.378 128.716 263.23 132.342 263.23C135.968 263.23 138.909 266.378 138.909 270.261C138.909 270.308 138.909 270.355 138.909 270.401H145.476C145.476 270.355 145.476 270.308 145.476 270.261C145.476 266.378 148.416 263.23 152.042 263.23C155.669 263.23 158.609 266.378 158.609 270.261C158.609 270.308 158.609 270.355 158.609 270.401H165.176C165.249 266.581 168.153 263.511 171.735 263.511C175.318 263.511 178.222 266.581 178.295 270.401H185V263.362C184.956 263.362 184.912 263.362 184.869 263.362C181.242 263.362 178.302 260.214 178.302 256.331C178.302 252.448 181.242 249.3 184.869 249.3C184.912 249.3 184.956 249.3 185 249.3V243.378C184.956 243.378 184.912 243.378 184.869 243.378C181.242 243.378 178.302 240.229 178.302 236.346C178.302 232.464 181.242 229.315 184.869 229.315C184.912 229.315 184.956 229.315 185 229.315V223.393C184.956 223.393 184.912 223.393 184.869 223.393C181.242 223.393 178.302 220.245 178.302 216.362C178.302 212.479 181.242 209.33 184.869 209.33C184.912 209.33 184.956 209.33 185 209.33V203.408C184.956 203.408 184.912 203.408 184.869 203.408C181.242 203.408 178.302 200.26 178.302 196.377C178.302 192.494 181.242 189.346 184.869 189.346C184.912 189.346 184.956 189.346 185 189.346V183.424C184.956 183.424 184.912 183.424 184.869 183.424C181.242 183.424 178.302 180.275 178.302 176.392C178.302 172.51 181.242 169.361 184.869 169.361C184.912 169.361 184.956 169.361 185 169.361V163.439C184.956 163.439 184.912 163.439 184.869 163.439C181.242 163.439 178.302 160.291 178.302 156.408C178.302 152.525 181.242 149.377 184.869 149.377C184.912 149.377 184.956 149.377 185 149.377V143.455C184.956 143.455 184.912 143.455 184.869 143.455C181.242 143.455 178.302 140.306 178.302 136.423C178.302 132.54 181.242 129.392 184.869 129.392C184.912 129.392 184.956 129.392 185 129.392V123.47C184.956 123.47 184.912 123.47 184.869 123.47C181.242 123.47 178.302 120.321 178.302 116.439C178.302 112.556 181.242 109.407 184.869 109.407C184.912 109.407 184.956 109.407 185 109.407V103.485C184.956 103.485 184.912 103.485 184.869 103.485C181.242 103.485 178.302 100.337 178.302 96.454C178.302 92.5711 181.242 89.4226 184.869 89.4226C184.912 89.4226 184.956 89.4226 185 89.4226V83.5007C184.956 83.5007 184.912 83.5007 184.869 83.5007C181.242 83.5007 178.302 80.3522 178.302 76.4693C178.302 72.5865 181.242 69.438 184.869 69.438C184.912 69.438 184.956 69.438 185 69.438V63.516C184.956 63.516 184.912 63.516 184.869 63.516C181.242 63.516 178.302 60.3675 178.302 56.4847C178.302 52.6018 181.242 49.4533 184.869 49.4533C184.912 49.4533 184.956 49.4533 185 49.4533V43.5314C184.956 43.5314 184.912 43.5314 184.869 43.5314C181.242 43.5314 178.302 40.3829 178.302 36.5001C178.302 32.6172 181.242 29.4687 184.869 29.4687C184.912 29.4687 184.956 29.4687 185 29.4687V23.5468C181.432 23.4687 178.565 20.3592 178.565 16.5232C178.565 12.6873 181.432 9.57786 185 9.49974V2.99964H178.295C178.295 3.04652 178.295 3.09339 178.295 3.14026C178.295 7.02313 175.354 10.1716 171.728 10.1716C168.102 10.1716 165.161 7.02313 165.161 3.14026C165.161 3.09339 165.161 3.04652 165.161 2.99964H158.594C158.521 6.82 155.617 9.89036 152.035 9.89036C148.452 9.89036 145.548 6.82 145.476 2.99964H138.909C138.836 6.82 135.932 9.89036 132.349 9.89036C128.767 9.89036 125.863 6.82 125.79 2.99964H119.223C119.15 6.82 116.246 9.89036 112.664 9.89036C109.081 9.89036 106.177 6.82 106.104 2.99964H99.5376C99.4646 6.82 96.5606 9.89036 92.9781 9.89036C89.3956 9.89036 86.4916 6.82 86.4187 2.99964H79.8519C79.779 6.82 76.875 9.89036 73.2925 9.89036C69.71 9.89036 66.806 6.82 66.733 2.99964H60.1663C60.0933 6.82 57.1894 9.89036 53.6069 9.89036C50.0243 9.89036 47.1204 6.82 47.0474 2.99964H40.4807C40.4077 6.82 37.5038 9.89036 33.9212 9.89036C30.3387 9.89036 27.4348 6.82 27.3618 2.99964H20.7951C20.7221 6.82 17.8181 9.89036 14.2356 9.89036C10.6531 9.89036 7.74915 6.82 7.67618 2.99964L7.57403 3.18715Z" stroke="#24372C" stroke-width="1.28972"/>
<path d="M40.6958 207.159L38.5961 200.027C38.5205 199.763 38.5961 199.592 38.8799 199.592H39.4663C39.6365 199.592 39.7689 199.687 39.8068 199.8L41.1876 204.794H41.2065L43.344 199.592C43.3819 199.498 43.4954 199.403 43.6656 199.403H43.7602C43.9304 199.403 44.0439 199.498 44.0818 199.592L46.2003 204.813H46.2193L47.5812 199.8C47.619 199.687 47.7514 199.592 47.9028 199.592H48.4892C48.7729 199.592 48.8486 199.763 48.7729 200.027L46.7111 207.159C46.6732 207.272 46.5408 207.348 46.3895 207.348H46.2949C46.1247 207.348 46.0112 207.253 45.9733 207.159L43.6656 201.484L41.4335 207.159C41.3957 207.253 41.2822 207.348 41.112 207.348H41.0174C40.8471 207.348 40.7336 207.272 40.6958 207.159ZM51.7335 196.093C51.2417 196.093 50.8445 195.696 50.8445 195.204C50.8445 194.693 51.2417 194.296 51.7335 194.296C52.2443 194.296 52.6415 194.693 52.6415 195.204C52.6415 195.696 52.2443 196.093 51.7335 196.093ZM51.1093 206.799V199.952C51.1093 199.763 51.2795 199.592 51.4687 199.592H52.0551C52.2443 199.592 52.4145 199.763 52.4145 199.952V206.799C52.4145 206.988 52.2443 207.159 52.0551 207.159H51.4687C51.2795 207.159 51.1093 206.988 51.1093 206.799ZM55.9695 205.267V200.727H55.0048C54.7967 200.727 54.6454 200.557 54.6454 200.368V199.952C54.6454 199.744 54.7967 199.592 55.0048 199.592H55.9695V197.493C55.9695 197.304 56.1397 197.133 56.3289 197.133L56.9342 197.095C57.1234 197.095 57.2747 197.266 57.2747 197.455V199.592H59.4689C59.677 199.592 59.8283 199.744 59.8283 199.952V200.368C59.8283 200.557 59.677 200.727 59.4689 200.727H57.2747V205.154C57.2747 205.91 57.4639 206.062 57.8989 206.062C58.3718 206.062 59.0339 205.778 59.2798 205.645C59.5635 205.494 59.6392 205.608 59.7338 205.759L60.0175 206.232C60.1499 206.459 60.0932 206.572 59.8851 206.705C59.6203 206.875 58.5988 207.348 57.7098 207.348C56.1965 207.348 55.9695 206.44 55.9695 205.267ZM62.3403 206.799V194.277C62.3403 194.088 62.5106 193.918 62.6997 193.918H63.2861C63.4753 193.918 63.6455 194.088 63.6455 194.277V200.406C63.6455 200.406 64.6481 199.403 66.1802 199.403C68.0529 199.403 69.1122 200.595 69.1122 202.808V206.799C69.1122 206.988 68.942 207.159 68.7528 207.159H68.1475C67.9583 207.159 67.7881 206.988 67.7881 206.799V202.808C67.7881 201.37 67.145 200.671 66.0857 200.671C64.6481 200.671 63.6455 201.73 63.6455 201.73V206.799C63.6455 206.988 63.4753 207.159 63.2861 207.159H62.6997C62.5106 207.159 62.3403 206.988 62.3403 206.799ZM76.277 200.557C76.277 196.774 79.3225 193.728 83.1057 193.728C85.0162 193.728 86.397 194.39 87.6833 195.488C87.8346 195.639 87.8536 195.866 87.7022 196.017C87.532 196.187 87.3239 196.377 87.1726 196.547C87.0023 196.736 86.8889 196.717 86.6808 196.528C85.7161 195.677 84.3541 195.053 83.0868 195.053C80.098 195.053 77.8281 197.549 77.8281 200.481C77.8281 203.394 80.098 205.948 83.0868 205.948C85.1675 205.948 86.4916 205.154 86.4916 205.154V202.505H84.3163C84.1082 202.505 83.9569 202.354 83.9569 202.165V201.465C83.9569 201.257 84.1082 201.106 84.3163 201.106H87.5887C87.7779 201.106 87.9292 201.276 87.9292 201.465V205.797C87.9292 205.891 87.8536 206.043 87.7779 206.099C87.7779 206.099 85.8485 207.348 83.1057 207.348C79.3225 207.348 76.277 204.34 76.277 200.557ZM90.7034 206.799V199.952C90.7034 199.763 90.8736 199.592 91.0628 199.592H91.4222C91.5735 199.592 91.7059 199.687 91.7437 199.857L91.8951 200.406C91.8951 200.406 92.5949 199.403 94.165 199.403C94.7324 199.403 95.6782 199.498 95.4891 200.027L95.2621 200.671C95.1675 200.916 94.9973 200.916 94.8081 200.841C94.6379 200.765 94.3541 200.689 94.0704 200.689C92.6328 200.689 92.0086 201.749 92.0086 201.749V206.799C92.0086 206.988 91.8383 207.159 91.6492 207.159H91.0628C90.8736 207.159 90.7034 206.988 90.7034 206.799ZM96.7953 203.357C96.7953 201.219 98.4599 199.403 100.56 199.403C102.659 199.403 104.324 201.219 104.324 203.357C104.324 205.532 102.659 207.348 100.56 207.348C98.4599 207.348 96.7953 205.532 96.7953 203.357ZM98.1005 203.357C98.1005 204.889 99.1787 206.118 100.56 206.118C101.94 206.118 103.019 204.889 103.019 203.357C103.019 201.862 101.94 200.652 100.56 200.652C99.1787 200.652 98.1005 201.862 98.1005 203.357ZM106.753 203.924V199.952C106.753 199.763 106.923 199.592 107.112 199.592H107.718C107.907 199.592 108.077 199.763 108.077 199.952V203.943C108.077 205.381 108.72 206.08 109.78 206.08C111.217 206.08 112.031 205.002 112.031 205.002C112.031 204.586 112.031 204.151 112.031 199.952C112.031 199.763 112.201 199.592 112.39 199.592H112.976C113.166 199.592 113.336 199.763 113.336 199.952V206.799C113.336 206.988 113.166 207.159 112.976 207.159H112.617C112.409 207.159 112.333 207.026 112.276 206.837L112.144 206.345C112.144 206.345 111.255 207.348 109.685 207.348C107.491 207.348 106.753 205.929 106.753 203.924ZM116.407 206.799V199.952C116.407 199.763 116.577 199.592 116.766 199.592H117.126C117.296 199.592 117.39 199.668 117.428 199.819L117.599 200.406C117.599 200.406 118.677 199.403 120.247 199.403C122.441 199.403 123.179 200.841 123.179 202.808V206.799C123.179 206.988 123.008 207.159 122.819 207.159H122.214C122.025 207.159 121.855 206.988 121.855 206.799V202.808C121.855 201.37 121.211 200.671 120.152 200.671C118.733 200.671 117.712 201.749 117.712 201.749V206.799C117.712 206.988 117.542 207.159 117.353 207.159H116.766C116.577 207.159 116.407 206.988 116.407 206.799ZM125.602 203.357C125.602 201.143 126.964 199.403 129.234 199.403C130.482 199.403 131.258 199.895 131.258 199.895V194.277C131.258 194.088 131.428 193.918 131.617 193.918H132.204C132.393 193.918 132.563 194.088 132.563 194.277V206.799C132.563 206.988 132.393 207.159 132.204 207.159H131.807C131.636 207.159 131.523 207.026 131.485 206.856L131.371 206.345C131.371 206.345 130.464 207.348 129.045 207.348C127.115 207.348 125.602 205.532 125.602 203.357ZM126.926 203.376C126.926 204.851 127.796 206.156 129.177 206.156C130.539 206.156 131.239 204.908 131.239 204.908V201.125C131.239 201.125 130.445 200.671 129.404 200.671C127.759 200.671 126.926 201.862 126.926 203.376ZM39.9013 224.799V212.277C39.9013 212.088 40.0527 211.918 40.2607 211.918H47.7136C47.9217 211.918 48.073 212.088 48.073 212.277V212.826C48.073 213.015 47.9217 213.185 47.7136 213.185H41.3579V217.8H46.7867C46.9759 217.8 47.1461 217.971 47.1461 218.16V218.708C47.1461 218.916 46.9759 219.068 46.7867 219.068H41.3579V223.891H47.7136C47.9217 223.891 48.073 224.062 48.073 224.251V224.799C48.073 224.988 47.9217 225.159 47.7136 225.159H40.2607C40.0527 225.159 39.9013 224.988 39.9013 224.799ZM49.9692 221.394C49.9692 219.162 51.804 217.403 53.8659 217.403C55.0008 217.403 55.8899 217.857 56.5708 218.727C56.7032 218.898 56.6654 219.125 56.4952 219.257L56.1358 219.56C55.852 219.824 55.7574 219.635 55.5872 219.484C55.2089 219.049 54.5847 218.689 53.8469 218.689C52.4282 218.689 51.3311 219.862 51.3311 221.376C51.3311 222.889 52.4093 224.099 53.828 224.099C54.963 224.099 55.398 223.532 55.8331 223.116C56.0601 222.889 56.1925 222.927 56.4006 223.078L56.6087 223.229C56.7978 223.362 56.8546 223.57 56.7411 223.759C56.1736 224.667 55.1332 225.348 53.8469 225.348C51.7473 225.348 49.9692 223.664 49.9692 221.394ZM58.716 221.357C58.716 219.219 60.3806 217.403 62.4803 217.403C64.5799 217.403 66.2445 219.219 66.2445 221.357C66.2445 223.532 64.5799 225.348 62.4803 225.348C60.3806 225.348 58.716 223.532 58.716 221.357ZM60.0212 221.357C60.0212 222.889 61.0994 224.118 62.4803 224.118C63.8611 224.118 64.9393 222.889 64.9393 221.357C64.9393 219.862 63.8611 218.652 62.4803 218.652C61.0994 218.652 60.0212 219.862 60.0212 221.357ZM68.7683 224.799V217.952C68.7683 217.763 68.9386 217.592 69.1277 217.592H69.4871C69.6574 217.592 69.7519 217.668 69.7898 217.819L69.96 218.406C69.96 218.406 71.0382 217.403 72.6082 217.403C74.8025 217.403 75.5402 218.841 75.5402 220.808V224.799C75.5402 224.988 75.37 225.159 75.1808 225.159H74.5755C74.3863 225.159 74.2161 224.988 74.2161 224.799V220.808C74.2161 219.37 73.573 218.671 72.5137 218.671C71.095 218.671 70.0735 219.749 70.0735 219.749V224.799C70.0735 224.988 69.9033 225.159 69.7141 225.159H69.1277C68.9386 225.159 68.7683 224.988 68.7683 224.799ZM77.9637 221.357C77.9637 219.219 79.6283 217.403 81.7279 217.403C83.8276 217.403 85.4922 219.219 85.4922 221.357C85.4922 223.532 83.8276 225.348 81.7279 225.348C79.6283 225.348 77.9637 223.532 77.9637 221.357ZM79.2689 221.357C79.2689 222.889 80.3471 224.118 81.7279 224.118C83.1088 224.118 84.187 222.889 84.187 221.357C84.187 219.862 83.1088 218.652 81.7279 218.652C80.3471 218.652 79.2689 219.862 79.2689 221.357ZM88.016 224.799V217.952C88.016 217.763 88.1862 217.592 88.3754 217.592H88.7348C88.905 217.592 88.9996 217.668 89.0374 217.819L89.2077 218.406C89.2077 218.406 90.0967 217.403 91.6667 217.403C92.7828 217.403 93.5962 217.838 94.088 218.633C94.1826 218.557 95.3932 217.403 96.9064 217.403C99.1007 217.403 99.8384 218.841 99.8384 220.808V224.799C99.8384 224.988 99.6682 225.159 99.479 225.159H98.8737C98.6845 225.159 98.5143 224.988 98.5143 224.799V220.808C98.5143 219.389 97.909 218.671 96.8119 218.671C95.5823 218.671 94.7689 219.484 94.5041 219.73C94.5609 220.051 94.5987 220.411 94.5987 220.808V224.799C94.5987 224.988 94.4285 225.159 94.2393 225.159H93.634C93.4448 225.159 93.2746 224.988 93.2746 224.799V220.808C93.2746 219.37 92.6315 218.671 91.4776 218.671C90.1346 218.671 89.3212 219.749 89.3212 219.749V224.799C89.3212 224.988 89.1509 225.159 88.9618 225.159H88.3754C88.1862 225.159 88.016 224.988 88.016 224.799ZM105.243 225.14L101.725 218.008C101.611 217.763 101.725 217.592 102.008 217.592H102.841C102.992 217.592 103.106 217.687 103.162 217.8L105.962 223.589H105.981L108.629 217.8C108.686 217.687 108.818 217.592 108.951 217.592H109.669C109.953 217.592 110.085 217.781 109.953 218.027L104.146 230.606C104.089 230.72 103.957 230.833 103.824 230.833H103.124C102.841 230.833 102.689 230.625 102.822 230.361L105.243 225.14ZM38.7664 239.357C38.7664 237.143 40.1283 235.403 42.3982 235.403C43.6467 235.403 44.4222 235.895 44.4222 235.895V230.277C44.4222 230.088 44.5925 229.918 44.7816 229.918H45.368C45.5572 229.918 45.7274 230.088 45.7274 230.277V242.799C45.7274 242.988 45.5572 243.159 45.368 243.159H44.9708C44.8006 243.159 44.6871 243.026 44.6492 242.856L44.5357 242.345C44.5357 242.345 43.6278 243.348 42.2091 243.348C40.2797 243.348 38.7664 241.532 38.7664 239.357ZM40.0905 239.376C40.0905 240.851 40.9606 242.156 42.3415 242.156C43.7034 242.156 44.4033 240.908 44.4033 240.908V237.125C44.4033 237.125 43.6089 236.671 42.5685 236.671C40.9228 236.671 40.0905 237.862 40.0905 239.376ZM48.2701 239.376C48.2701 237.238 49.6888 235.403 51.9777 235.403C53.9638 235.403 55.4014 236.879 55.4014 238.865C55.4014 238.997 55.3825 239.243 55.3636 239.376C55.3447 239.565 55.1934 239.697 55.0231 239.697H49.5753C49.651 240.964 50.767 242.156 52.1101 242.156C52.9045 242.156 53.5477 241.853 53.9827 241.589C54.2476 241.437 54.3611 241.343 54.5124 241.551C54.6259 241.702 54.7205 241.835 54.834 241.986C54.9664 242.156 55.042 242.27 54.7583 242.478C54.3043 242.837 53.2829 243.348 51.9777 243.348C49.6888 243.348 48.2701 241.551 48.2701 239.376ZM49.5943 238.638H54.0962C54.0395 237.541 53.1315 236.557 51.9777 236.557C50.7103 236.557 49.7267 237.465 49.5943 238.638ZM57.8611 242.799V230.277C57.8611 230.088 58.0313 229.918 58.2205 229.918H58.8069C58.996 229.918 59.1663 230.088 59.1663 230.277V242.799C59.1663 242.988 58.996 243.159 58.8069 243.159H58.2205C58.0313 243.159 57.8611 242.988 57.8611 242.799ZM62.8717 232.093C62.3799 232.093 61.9827 231.696 61.9827 231.204C61.9827 230.693 62.3799 230.296 62.8717 230.296C63.3825 230.296 63.7797 230.693 63.7797 231.204C63.7797 231.696 63.3825 232.093 62.8717 232.093ZM62.2475 242.799V235.952C62.2475 235.763 62.4178 235.592 62.6069 235.592H63.1933C63.3825 235.592 63.5527 235.763 63.5527 235.952V242.799C63.5527 242.988 63.3825 243.159 63.1933 243.159H62.6069C62.4178 243.159 62.2475 242.988 62.2475 242.799ZM68.7723 243.159L65.5755 236.027C65.462 235.781 65.5755 235.592 65.8593 235.592H66.4457C66.6159 235.592 66.7294 235.687 66.7861 235.8L69.1317 241.21H69.1506L71.6475 235.8C71.7043 235.687 71.8178 235.592 71.9691 235.592H72.4609C72.7446 235.592 72.8581 235.781 72.7446 236.027L69.51 243.159C69.4722 243.253 69.3587 243.348 69.1885 243.348H69.0939C68.9236 243.348 68.8101 243.253 68.7723 243.159ZM74.2226 239.376C74.2226 237.238 75.6413 235.403 77.9301 235.403C79.9163 235.403 81.3539 236.879 81.3539 238.865C81.3539 238.997 81.335 239.243 81.3161 239.376C81.2971 239.565 81.1458 239.697 80.9756 239.697H75.5278C75.6035 240.964 76.7195 242.156 78.0625 242.156C78.857 242.156 79.5001 241.853 79.9352 241.589C80.2 241.437 80.3135 241.343 80.4648 241.551C80.5783 241.702 80.6729 241.835 80.7864 241.986C80.9188 242.156 80.9945 242.27 80.7107 242.478C80.2568 242.837 79.2353 243.348 77.9301 243.348C75.6413 243.348 74.2226 241.551 74.2226 239.376ZM75.5467 238.638H80.0487C79.9919 237.541 79.084 236.557 77.9301 236.557C76.6627 236.557 75.6791 237.465 75.5467 238.638ZM83.7946 242.799V235.952C83.7946 235.763 83.9649 235.592 84.154 235.592H84.5134C84.6648 235.592 84.7972 235.687 84.835 235.857L84.9863 236.406C84.9863 236.406 85.6862 235.403 87.2562 235.403C87.8237 235.403 88.7695 235.498 88.5803 236.027L88.3534 236.671C88.2588 236.916 88.0885 236.916 87.8994 236.841C87.7291 236.765 87.4454 236.689 87.1617 236.689C85.724 236.689 85.0998 237.749 85.0998 237.749V242.799C85.0998 242.988 84.9296 243.159 84.7404 243.159H84.154C83.9649 243.159 83.7946 242.988 83.7946 242.799ZM93.06 243.14L89.5417 236.008C89.4282 235.763 89.5417 235.592 89.8254 235.592H90.6577C90.809 235.592 90.9225 235.687 90.9793 235.8L93.7788 241.589H93.7977L96.446 235.8C96.5027 235.687 96.6351 235.592 96.7675 235.592H97.4863C97.7701 235.592 97.9025 235.781 97.7701 236.027L91.9629 248.606C91.9061 248.72 91.7737 248.833 91.6413 248.833H90.9414C90.6577 248.833 90.5064 248.625 90.6388 248.361L93.06 243.14Z" fill="#24372C"/>
<path d="M53.1422 33.114C53.1422 30.314 55.3682 28.06 58.1682 28.06C60.9682 28.06 63.2082 30.314 63.2082 33.114C63.2082 35.914 60.9682 38.14 58.1682 38.14C55.3682 38.14 53.1422 35.914 53.1422 33.114ZM54.9622 33.114C54.9622 34.878 56.4042 36.32 58.1682 36.32C59.9322 36.32 61.3882 34.878 61.3882 33.114C61.3882 31.35 59.9322 29.88 58.1682 29.88C56.4042 29.88 54.9622 31.35 54.9622 33.114ZM67.8394 37.734V28.466C67.8394 28.326 67.9514 28.2 68.1054 28.2H72.1094C73.7894 28.2 75.1614 29.544 75.1614 31.21C75.1614 32.498 74.3074 33.548 73.0894 34.038L75.0074 37.594C75.1054 37.776 75.0074 38 74.7694 38H73.2994C73.1734 38 73.1034 37.93 73.0754 37.874L71.2134 34.164H69.6594V37.734C69.6594 37.874 69.5334 38 69.3934 38H68.1054C67.9514 38 67.8394 37.874 67.8394 37.734ZM69.6734 32.666H71.9554C72.6974 32.666 73.3414 32.022 73.3414 31.238C73.3414 30.496 72.6974 29.88 71.9554 29.88H69.6734V32.666ZM79.9636 37.734V28.466C79.9636 28.326 80.0756 28.2 80.2156 28.2H83.5336C86.2357 28.2 88.4476 30.398 88.4476 33.086C88.4476 35.802 86.2357 38 83.5336 38H80.2156C80.0756 38 79.9636 37.874 79.9636 37.734ZM81.7696 36.292H83.3656C85.1856 36.292 86.5156 34.92 86.5156 33.086C86.5156 31.266 85.1856 29.894 83.3656 29.894H81.7696V36.292ZM93.0996 37.734V28.466C93.0996 28.326 93.2116 28.2 93.3656 28.2H99.0636C99.2176 28.2 99.3296 28.326 99.3296 28.466V29.614C99.3296 29.754 99.2176 29.88 99.0636 29.88H94.9196V32.176H98.3776C98.5176 32.176 98.6436 32.302 98.6436 32.442V33.604C98.6436 33.758 98.5176 33.87 98.3776 33.87H94.9196V36.32H99.0636C99.2176 36.32 99.3296 36.446 99.3296 36.586V37.734C99.3296 37.874 99.2176 38 99.0636 38H93.3656C93.2116 38 93.0996 37.874 93.0996 37.734ZM104.13 37.734V28.466C104.13 28.326 104.242 28.2 104.396 28.2H108.4C110.08 28.2 111.452 29.544 111.452 31.21C111.452 32.498 110.598 33.548 109.38 34.038L111.298 37.594C111.396 37.776 111.298 38 111.06 38H109.59C109.464 38 109.394 37.93 109.366 37.874L107.504 34.164H105.95V37.734C105.95 37.874 105.824 38 105.684 38H104.396C104.242 38 104.13 37.874 104.13 37.734ZM105.964 32.666H108.246C108.988 32.666 109.632 32.022 109.632 31.238C109.632 30.496 108.988 29.88 108.246 29.88H105.964V32.666ZM122.144 37.734V28.466C122.144 28.326 122.256 28.2 122.41 28.2H125.616C127.282 28.2 128.57 29.32 128.57 30.79C128.57 31.868 127.688 32.708 127.03 33.016C127.772 33.254 128.85 34.01 128.85 35.298C128.85 36.866 127.506 38 125.798 38H122.41C122.256 38 122.144 37.874 122.144 37.734ZM123.95 32.316H125.448C126.162 32.316 126.652 31.756 126.652 31.056C126.652 30.356 126.162 29.866 125.448 29.866H123.95V32.316ZM123.95 36.348H125.644C126.344 36.348 126.904 35.802 126.904 35.074C126.904 34.374 126.204 33.856 125.476 33.856H123.95V36.348ZM135.42 37.734V33.282L132.228 28.606C132.116 28.424 132.228 28.2 132.452 28.2H133.88C133.992 28.2 134.062 28.27 134.104 28.326L136.344 31.546L138.584 28.326C138.626 28.27 138.696 28.2 138.808 28.2H140.25C140.474 28.2 140.586 28.424 140.474 28.606L137.24 33.268V37.734C137.24 37.874 137.114 38 136.974 38H135.686C135.532 38 135.42 37.874 135.42 37.734ZM50.6019 53.734V44.466C50.6019 44.326 50.7139 44.2 50.8539 44.2H54.1719C56.8739 44.2 59.0859 46.398 59.0859 49.086C59.0859 51.802 56.8739 54 54.1719 54H50.8539C50.7139 54 50.6019 53.874 50.6019 53.734ZM52.4079 52.292H54.0039C55.8239 52.292 57.1539 50.92 57.1539 49.086C57.1539 47.266 55.8239 45.894 54.0039 45.894H52.4079V52.292ZM63.7379 53.734V44.466C63.7379 44.326 63.8499 44.2 64.0039 44.2H69.7019C69.8559 44.2 69.9679 44.326 69.9679 44.466V45.614C69.9679 45.754 69.8559 45.88 69.7019 45.88H65.5579V48.176H69.0159C69.1559 48.176 69.2819 48.302 69.2819 48.442V49.604C69.2819 49.758 69.1559 49.87 69.0159 49.87H65.5579V52.32H69.7019C69.8559 52.32 69.9679 52.446 69.9679 52.586V53.734C69.9679 53.874 69.8559 54 69.7019 54H64.0039C63.8499 54 63.7379 53.874 63.7379 53.734ZM74.0133 49.114C74.0133 46.314 76.2673 44.06 79.0673 44.06C80.4813 44.06 81.5033 44.508 82.4553 45.362C82.5813 45.474 82.5813 45.642 82.4693 45.754L81.6153 46.636C81.5173 46.748 81.3773 46.748 81.2653 46.636C80.6773 46.118 79.8933 45.81 79.1093 45.81C77.3173 45.81 75.9873 47.308 75.9873 49.072C75.9873 50.822 77.3313 52.306 79.1233 52.306C79.9633 52.306 80.6773 51.984 81.2653 51.508C81.3773 51.41 81.5313 51.424 81.6153 51.508L82.4833 52.404C82.5953 52.502 82.5673 52.684 82.4693 52.782C81.5173 53.706 80.3133 54.14 79.0673 54.14C76.2673 54.14 74.0133 51.914 74.0133 49.114ZM87.0976 53.734V44.466C87.0976 44.326 87.2096 44.2 87.3636 44.2H93.0616C93.2156 44.2 93.3276 44.326 93.3276 44.466V45.614C93.3276 45.754 93.2156 45.88 93.0616 45.88H88.9176V48.176H92.3756C92.5156 48.176 92.6416 48.302 92.6416 48.442V49.604C92.6416 49.758 92.5156 49.87 92.3756 49.87H88.9176V52.32H93.0616C93.2156 52.32 93.3276 52.446 93.3276 52.586V53.734C93.3276 53.874 93.2156 54 93.0616 54H87.3636C87.2096 54 87.0976 53.874 87.0976 53.734ZM97.4841 53.678L99.1501 44.27C99.1641 44.158 99.2481 44.06 99.4021 44.06H99.6261C99.7381 44.06 99.8221 44.116 99.8641 44.2L102.944 50.808C102.972 50.808 102.972 50.808 102.986 50.808L106.066 44.2C106.108 44.116 106.178 44.06 106.304 44.06H106.528C106.682 44.06 106.766 44.158 106.78 44.27L108.432 53.678C108.474 53.874 108.362 54 108.18 54H106.906C106.78 54 106.668 53.888 106.64 53.79L105.814 48.484C105.8 48.484 105.772 48.484 105.772 48.484L103.322 53.986C103.294 54.07 103.21 54.14 103.084 54.14H102.832C102.706 54.14 102.636 54.07 102.594 53.986L100.116 48.484C100.116 48.484 100.088 48.484 100.074 48.484L99.2621 53.79C99.2481 53.888 99.1361 54 99.0101 54H97.7501C97.5681 54 97.4561 53.874 97.4841 53.678ZM113.151 53.734V44.466C113.151 44.326 113.263 44.2 113.417 44.2H116.623C118.289 44.2 119.577 45.32 119.577 46.79C119.577 47.868 118.695 48.708 118.037 49.016C118.779 49.254 119.857 50.01 119.857 51.298C119.857 52.866 118.513 54 116.805 54H113.417C113.263 54 113.151 53.874 113.151 53.734ZM114.957 48.316H116.455C117.169 48.316 117.659 47.756 117.659 47.056C117.659 46.356 117.169 45.866 116.455 45.866H114.957V48.316ZM114.957 52.348H116.651C117.351 52.348 117.911 51.802 117.911 51.074C117.911 50.374 117.211 49.856 116.483 49.856H114.957V52.348ZM124.591 53.734V44.466C124.591 44.326 124.703 44.2 124.857 44.2H130.555C130.709 44.2 130.821 44.326 130.821 44.466V45.614C130.821 45.754 130.709 45.88 130.555 45.88H126.411V48.176H129.869C130.009 48.176 130.135 48.302 130.135 48.442V49.604C130.135 49.758 130.009 49.87 129.869 49.87H126.411V52.32H130.555C130.709 52.32 130.821 52.446 130.821 52.586V53.734C130.821 53.874 130.709 54 130.555 54H124.857C124.703 54 124.591 53.874 124.591 53.734ZM135.622 53.734V44.466C135.622 44.326 135.734 44.2 135.888 44.2H139.892C141.572 44.2 142.944 45.544 142.944 47.21C142.944 48.498 142.09 49.548 140.872 50.038L142.79 53.594C142.888 53.776 142.79 54 142.552 54H141.082C140.956 54 140.886 53.93 140.858 53.874L138.996 50.164H137.442V53.734C137.442 53.874 137.316 54 137.176 54H135.888C135.734 54 135.622 53.874 135.622 53.734ZM137.456 48.666H139.738C140.48 48.666 141.124 48.022 141.124 47.238C141.124 46.496 140.48 45.88 139.738 45.88H137.456V48.666Z" fill="#24372C"/>
<path d="M37.9719 180.981H155.766" stroke="#24372C" stroke-width="1.28972"/>
<path d="M128 234H154.5" stroke="#EA5E57" stroke-width="0.75"/>
<path d="M146.072 244C145.631 240.667 146.999 234 156 234" stroke="#EA5E57" stroke-width="0.75"/>
<path d="M145.072 225C144.631 228 145.999 234 155 234" stroke="#EA5E57" stroke-width="0.75"/>
</svg>
