<svg width="185" height="270" viewBox="0 0 185 270" fill="none" xmlns="http://www.w3.org/2000/svg">
<path d="M90.0543 137.284L90.4436 137.803C90.3139 138.582 90.3139 139.361 90.3139 140.009C90.3139 150.26 96.9316 156.878 106.015 156.878C115.228 156.878 123.013 149.741 123.013 131.835C123.013 115.744 116.266 106.013 104.847 106.013C99.6565 106.013 94.5959 107.57 90.8329 113.279H89.9246C91.2222 101.731 91.871 76.4276 91.871 63.322C93.4281 63.4518 110.426 64.4898 119.12 64.4898C124.051 64.4898 125.089 64.3601 126.387 62.2839H127.036C126.387 64.6196 124.57 68.3826 123.532 73.5729L95.1149 72.4051C94.9852 81.618 94.8554 90.7011 94.3364 99.9139C98.7482 97.5783 102.641 96.7997 106.534 96.7997C121.975 96.7997 132.356 107.051 132.356 127.553C132.356 144.94 122.494 159.862 106.274 159.862C96.672 159.862 87.8485 154.153 84.345 142.604C87.3294 140.139 88.627 138.193 90.0543 137.284Z" fill="#EA5E57"/>
<path d="M75.7809 158.176V158.824C73.575 158.695 69.4227 158.565 65.7894 158.565C61.8967 158.565 58.1337 158.695 55.798 158.824V158.176C59.9503 157.397 60.9884 156.748 60.9884 146.368V77.4657C58.2634 79.6716 55.4088 82.137 52.5541 83.9536L51.9053 82.5263C57.4849 78.6335 67.7358 70.4587 69.812 62.2839H70.5905V146.368C70.5905 156.748 71.6286 157.397 75.7809 158.176Z" fill="#EA5E57"/>
<path fill-rule="evenodd" clip-rule="evenodd" d="M0.358643 269.79L0.358643 261.514H0.999998C4.21179 261.514 6.88969 258.712 6.88969 255.163C6.88969 251.613 4.21179 248.811 0.999998 248.811H0.358643L0.358643 241.654H0.999998C4.21179 241.654 6.88969 238.852 6.88969 235.302C6.88969 231.753 4.21179 228.95 0.999998 228.95H0.358643L0.358643 221.793H0.999998C4.21179 221.793 6.88969 218.991 6.88969 215.442C6.88969 211.892 4.21179 209.09 0.999998 209.09H0.358643L0.358643 201.933H0.999998C4.21179 201.933 6.88969 199.131 6.88969 195.581C6.88969 192.032 4.21179 189.229 0.999998 189.229H0.358643L0.358643 182.073H0.999998C4.21179 182.073 6.88969 179.27 6.88969 175.721C6.88969 172.171 4.21179 169.369 0.999998 169.369H0.358643L0.358643 162.212H0.999998C4.21179 162.212 6.88969 159.41 6.88969 155.86C6.88969 152.311 4.21179 149.508 0.999998 149.508H0.358643L0.358643 142.352H0.999998C4.21179 142.352 6.88969 139.549 6.88969 136C6.88969 132.45 4.21179 129.648 0.999998 129.648H0.358643L0.358643 122.491H0.999998C4.21179 122.491 6.88969 119.689 6.88969 116.139C6.88969 112.59 4.21179 109.788 0.999998 109.788H0.358643L0.358643 102.631H0.999998C4.21179 102.631 6.88969 99.8284 6.88969 96.2789C6.88969 92.7293 4.21179 89.9271 0.999998 89.9271H0.358643L0.358643 82.7701H0.999998C4.21179 82.7701 6.88969 79.9679 6.88969 76.4184C6.88969 72.8688 4.21179 70.0666 0.999998 70.0666H0.358643L0.358643 62.9097H0.999998C4.21179 62.9097 6.88969 60.1074 6.88969 56.5579C6.88969 53.0083 4.21179 50.2061 0.999998 50.2061H0.358643L0.358643 43.0492H0.999998C4.21179 43.0492 6.88969 40.2469 6.88969 36.6974C6.88969 33.1479 4.21179 30.3457 0.999998 30.3457H0.358643L0.358643 23.1134L1.057 23.1757C1.14906 23.1839 1.20755 23.1887 1.26124 23.1887C4.47303 23.1887 7.15093 20.3865 7.15093 16.8369C7.15093 13.2874 4.47303 10.4852 1.26124 10.4852C1.25108 10.4852 1.23608 10.4861 1.18768 10.4904L1.18106 10.491C1.14113 10.4946 1.07273 10.5007 0.999998 10.5007H0.358643L0.358643 2.74548H7.15735L8.23491 0.767578L8.28114 3.18811C8.34785 6.68118 10.9914 9.41226 14.1637 9.41226C17.3359 9.41226 19.9795 6.68118 20.0462 3.18811L20.0583 2.55899H27.8478L27.8598 3.18811C27.9265 6.68118 30.5701 9.41226 33.7423 9.41226C36.9146 9.41226 39.5582 6.68118 39.6249 3.18811L39.6369 2.55899H47.4264L47.4384 3.18811C47.5051 6.68118 50.1487 9.41226 53.321 9.41226C56.4932 9.41226 59.1368 6.68118 59.2035 3.18811L59.2155 2.55899H67.005L67.017 3.18811C67.0837 6.68118 69.7273 9.41226 72.8996 9.41226C76.0718 9.41226 78.7154 6.68118 78.7822 3.18811L78.7942 2.55899H86.5837L86.5957 3.18811C86.6624 6.68118 89.306 9.41226 92.4782 9.41226C95.6505 9.41226 98.2941 6.68118 98.3608 3.18811L98.3728 2.55899H106.162L106.174 3.18811C106.241 6.68118 108.885 9.41226 112.057 9.41226C115.229 9.41226 117.873 6.68118 117.939 3.18811L117.951 2.55899H125.741L125.753 3.18811C125.82 6.68118 128.463 9.41226 131.635 9.41226C134.808 9.41226 137.451 6.68118 137.518 3.18811L137.53 2.55899H145.32L145.332 3.18811C145.398 6.68118 148.042 9.41226 151.214 9.41226C154.386 9.41226 157.03 6.68118 157.097 3.18811L157.109 2.55899H164.91V3.34021C164.91 6.88977 167.588 9.69199 170.8 9.69199C174.012 9.69199 176.69 6.88977 176.69 3.34021V2.55899H184.641V10.2926L184.014 10.3063C180.851 10.3756 178.241 13.1455 178.241 16.6505C178.241 20.1554 180.851 22.9254 184.014 22.9946L184.641 23.0084V30.1669H183.869C180.658 30.1669 177.98 32.9692 177.98 36.5187C177.98 40.0683 180.658 42.8705 183.869 42.8705H184.641V50.0429H183.869C180.658 50.0429 177.98 52.8452 177.98 56.3947C177.98 59.9443 180.658 62.7465 183.869 62.7465H184.641V69.9189H183.869C180.658 69.9189 177.98 72.7212 177.98 76.2707C177.98 79.8203 180.658 82.6225 183.869 82.6225H184.641V89.795H183.869C180.658 89.795 177.98 92.5972 177.98 96.1468C177.98 99.6963 180.658 102.499 183.869 102.499H184.641V109.671H183.869C180.658 109.671 177.98 112.473 177.98 116.023C177.98 119.572 180.658 122.375 183.869 122.375H184.641V129.547H183.869C180.658 129.547 177.98 132.349 177.98 135.899C177.98 139.448 180.658 142.251 183.869 142.251H184.641V149.423H183.869C180.658 149.423 177.98 152.225 177.98 155.775C177.98 159.324 180.658 162.127 183.869 162.127H184.641V169.299H183.869C180.658 169.299 177.98 172.101 177.98 175.651C177.98 179.2 180.658 182.003 183.869 182.003H184.641V189.175H183.869C180.658 189.175 177.98 191.977 177.98 195.527C177.98 199.076 180.658 201.879 183.869 201.879H184.641V209.051H183.869C180.658 209.051 177.98 211.853 177.98 215.403C177.98 218.952 180.658 221.755 183.869 221.755H184.641V228.927H183.869C180.658 228.927 177.98 231.729 177.98 235.279C177.98 238.828 180.658 241.631 183.869 241.631H184.641V248.803H183.869C180.658 248.803 177.98 251.605 177.98 255.155C177.98 258.704 180.658 261.507 183.869 261.507H184.641V269.79H176.702L176.69 269.161C176.623 265.668 173.98 262.937 170.807 262.937C167.635 262.937 164.991 265.668 164.925 269.161L164.913 269.79H157.111V269.009C157.111 265.46 154.433 262.657 151.221 262.657C148.01 262.657 145.332 265.46 145.332 269.009V269.79H137.518V269.009C137.518 265.46 134.84 262.657 131.628 262.657C128.416 262.657 125.739 265.46 125.739 269.009V269.79H117.925V269.009C117.925 265.46 115.247 262.657 112.035 262.657C108.823 262.657 106.145 265.46 106.145 269.009V269.79H98.3316V269.009C98.3316 265.46 95.6537 262.657 92.4419 262.657C89.2301 262.657 86.5522 265.46 86.5522 269.009V269.79H78.7385V269.009C78.7385 265.46 76.0606 262.657 72.8488 262.657C69.637 262.657 66.9591 265.46 66.9591 269.009V269.79H59.1453V269.009C59.1453 265.46 56.4674 262.657 53.2556 262.657C50.0439 262.657 47.366 265.46 47.366 269.009V269.79H39.5522V269.009C39.5522 265.46 36.8743 262.657 33.6625 262.657C30.4507 262.657 27.7728 265.46 27.7728 269.009V269.79H19.959V269.009C19.959 265.46 17.2811 262.657 14.0694 262.657C10.8576 262.657 8.17966 265.46 8.17966 269.009V269.79H0.358643ZM7.05499 4.0282H1.64135L1.64135 9.21292C5.46161 9.42383 8.43364 12.7961 8.43364 16.8369C8.43364 20.8778 5.46161 24.25 1.64135 24.461L1.64135 29.0928C5.335 29.4392 8.1724 32.7491 8.1724 36.6974C8.1724 40.6457 5.335 43.9556 1.64135 44.302L1.64135 48.9533C5.335 49.2997 8.1724 52.6096 8.1724 56.5579C8.1724 60.5062 5.335 63.8161 1.64135 64.1625L1.64135 68.8138C5.335 69.1602 8.1724 72.47 8.1724 76.4184C8.1724 80.3667 5.335 83.6766 1.64135 84.0229L1.64135 88.6743C5.335 89.0206 8.1724 92.3305 8.1724 96.2789C8.1724 100.227 5.335 103.537 1.64135 103.883L1.64135 108.535C5.335 108.881 8.1724 112.191 8.1724 116.139C8.1724 120.088 5.335 123.398 1.64135 123.744L1.64135 128.395C5.335 128.742 8.1724 132.051 8.1724 136C8.1724 139.948 5.335 143.258 1.64135 143.604L1.64135 148.256C5.335 148.602 8.1724 151.912 8.1724 155.86C8.1724 159.809 5.335 163.118 1.64135 163.465L1.64135 168.116C5.335 168.463 8.1724 171.772 8.1724 175.721C8.1724 179.669 5.335 182.979 1.64135 183.325L1.64135 187.977C5.335 188.323 8.1724 191.633 8.1724 195.581C8.1724 199.53 5.335 202.839 1.64135 203.186L1.64135 207.837C5.335 208.184 8.1724 211.493 8.1724 215.442C8.1724 219.39 5.335 222.7 1.64135 223.046L1.64135 227.698C5.335 228.044 8.1724 231.354 8.1724 235.302C8.1724 239.251 5.335 242.56 1.64135 242.907L1.64135 247.558C5.335 247.904 8.1724 251.214 8.1724 255.163C8.1724 259.111 5.335 262.421 1.64135 262.767L1.64135 268.508H6.91228C7.15415 264.562 10.2294 261.375 14.0694 261.375C17.9093 261.375 20.9846 264.562 21.2264 268.508H26.5054C26.7473 264.562 29.8225 261.375 33.6625 261.375C37.5025 261.375 40.5777 264.562 40.8196 268.508H46.0986C46.3404 264.562 49.4157 261.375 53.2556 261.375C57.0956 261.375 60.1708 264.562 60.4127 268.508H65.6917C65.9336 264.562 69.0088 261.375 72.8488 261.375C76.6888 261.375 79.764 264.562 80.0059 268.508H85.2849C85.5267 264.562 88.602 261.375 92.4419 261.375C96.2819 261.375 99.3571 264.562 99.599 268.508H104.878C105.12 264.562 108.195 261.375 112.035 261.375C115.875 261.375 118.95 264.562 119.192 268.508H124.471C124.713 264.562 127.788 261.375 131.628 261.375C135.468 261.375 138.543 264.562 138.785 268.508H144.064C144.306 264.562 147.381 261.375 151.221 261.375C155.061 261.375 158.137 264.562 158.378 268.508H163.678C164.046 264.691 167.057 261.654 170.807 261.654C174.557 261.654 177.569 264.691 177.936 268.508H183.359V262.77C179.601 262.491 176.697 259.15 176.697 255.155C176.697 251.16 179.601 247.819 183.359 247.539V242.894C179.601 242.615 176.697 239.274 176.697 235.279C176.697 231.284 179.601 227.943 183.359 227.663V223.018C179.601 222.739 176.697 219.398 176.697 215.403C176.697 211.408 179.601 208.067 183.359 207.787V203.142C179.601 202.863 176.697 199.522 176.697 195.527C176.697 191.532 179.601 188.191 183.359 187.911V183.266C179.601 182.987 176.697 179.646 176.697 175.651C176.697 171.656 179.601 168.315 183.359 168.035V163.39C179.601 163.111 176.697 159.77 176.697 155.775C176.697 151.78 179.601 148.439 183.359 148.159V143.514C179.601 143.235 176.697 139.894 176.697 135.899C176.697 131.904 179.601 128.563 183.359 128.283V123.638C179.601 123.359 176.697 120.018 176.697 116.023C176.697 112.028 179.601 108.687 183.359 108.407V103.762C179.601 103.483 176.697 100.141 176.697 96.1468C176.697 92.152 179.601 88.8108 183.359 88.5312V83.8863C179.601 83.6067 176.697 80.2655 176.697 76.2707C176.697 72.276 179.601 68.9348 183.359 68.6552V64.0103C179.601 63.7307 176.697 60.3894 176.697 56.3947C176.697 52.4 179.601 49.0587 183.359 48.7791V44.1343C179.601 43.8547 176.697 40.5134 176.697 36.5187C176.697 32.524 179.601 29.1828 183.359 28.9032V24.2346C179.728 23.8214 176.958 20.5538 176.958 16.6505C176.958 12.7471 179.728 9.47955 183.359 9.06631V3.84171H177.957C177.715 7.78778 174.64 10.9747 170.8 10.9747C166.96 10.9747 163.885 7.78778 163.643 3.84171H158.343C157.975 7.65796 154.964 10.695 151.214 10.695C147.464 10.695 144.453 7.65796 144.085 3.84171H138.764C138.397 7.65796 135.385 10.695 131.635 10.695C127.886 10.695 124.874 7.65796 124.507 3.84171H119.186C118.818 7.65796 115.807 10.695 112.057 10.695C108.307 10.695 105.296 7.65796 104.928 3.84171H99.6071C99.2395 7.65796 96.2282 10.695 92.4782 10.695C88.7283 10.695 85.7169 7.65796 85.3494 3.84171H80.0284C79.6609 7.65796 76.6495 10.695 72.8996 10.695C69.1497 10.695 66.1383 7.65796 65.7708 3.84171H60.4498C60.0822 7.65796 57.0709 10.695 53.321 10.695C49.571 10.695 46.5597 7.65796 46.1921 3.84171H40.8712C40.5036 7.65796 37.4923 10.695 33.7423 10.695C29.9924 10.695 26.981 7.65796 26.6135 3.84171H21.2925C20.925 7.65796 17.9136 10.695 14.1637 10.695C10.475 10.695 7.50104 7.75644 7.05499 4.0282Z" fill="#24372C"/>
<path d="M92.5598 241.458L89.0606 234.365C88.9477 234.12 89.0606 233.951 89.3428 233.951H90.1706C90.3211 233.951 90.4339 234.045 90.4904 234.158L93.2747 239.915H93.2935L95.9274 234.158C95.9838 234.045 96.1155 233.951 96.2472 233.951H96.9621C97.2443 233.951 97.376 234.139 97.2443 234.384L91.4687 246.895C91.4122 247.007 91.2805 247.12 91.1488 247.12H90.4528C90.1706 247.12 90.0201 246.913 90.1517 246.65L92.5598 241.458Z" fill="#24372C"/>
<path d="M83.3447 241.119V234.309C83.3447 234.12 83.514 233.951 83.7022 233.951H84.0596C84.2101 233.951 84.3418 234.045 84.3794 234.214L84.53 234.76C84.53 234.76 85.226 233.763 86.7875 233.763C87.3519 233.763 88.2926 233.857 88.1044 234.384L87.8787 235.023C87.7846 235.268 87.6153 235.268 87.4272 235.193C87.2578 235.117 86.9757 235.042 86.6935 235.042C85.2637 235.042 84.6428 236.096 84.6428 236.096V241.119C84.6428 241.307 84.4735 241.476 84.2854 241.476H83.7022C83.514 241.476 83.3447 241.307 83.3447 241.119Z" fill="#24372C"/>
<path d="M73.8247 237.714C73.8247 235.588 75.2357 233.763 77.5121 233.763C79.4874 233.763 80.9172 235.23 80.9172 237.206C80.9172 237.337 80.8984 237.582 80.8796 237.714C80.8608 237.902 80.7103 238.034 80.541 238.034H75.1228C75.1981 239.294 76.308 240.479 77.6438 240.479C78.4339 240.479 79.0736 240.178 79.5063 239.915C79.7696 239.764 79.8825 239.67 80.033 239.877C80.1459 240.028 80.24 240.159 80.3528 240.31C80.4845 240.479 80.5598 240.592 80.2776 240.799C79.8261 241.156 78.8102 241.664 77.5121 241.664C75.2357 241.664 73.8247 239.877 73.8247 237.714ZM75.1416 236.98H79.6191C79.5627 235.889 78.6597 234.911 77.5121 234.911C76.2516 234.911 75.2733 235.814 75.1416 236.98Z" fill="#24372C"/>
<path d="M68.4041 241.476L65.2247 234.384C65.1118 234.139 65.2247 233.951 65.5068 233.951H66.0901C66.2594 233.951 66.3722 234.045 66.4287 234.158L68.7615 239.539H68.7803L71.2637 234.158C71.3201 234.045 71.433 233.951 71.5835 233.951H72.0726C72.3548 233.951 72.4677 234.139 72.3548 234.384L69.1378 241.476C69.1001 241.57 68.9873 241.665 68.818 241.665H68.7239C68.5546 241.665 68.4417 241.57 68.4041 241.476Z" fill="#24372C"/>
<path d="M62.5356 230.471C62.0464 230.471 61.6514 230.076 61.6514 229.586C61.6514 229.078 62.0464 228.683 62.5356 228.683C63.0435 228.683 63.4386 229.078 63.4386 229.586C63.4386 230.076 63.0435 230.471 62.5356 230.471ZM61.9148 241.119V234.308C61.9148 234.12 62.0841 233.951 62.2722 233.951H62.8554C63.0435 233.951 63.2129 234.12 63.2129 234.308V241.119C63.2129 241.307 63.0435 241.476 62.8554 241.476H62.2722C62.0841 241.476 61.9148 241.307 61.9148 241.119Z" fill="#24372C"/>
<path d="M57.5521 241.119V228.665C57.5521 228.476 57.7214 228.307 57.9096 228.307H58.4928C58.6809 228.307 58.8502 228.476 58.8502 228.665V241.119C58.8502 241.307 58.6809 241.476 58.4928 241.476H57.9096C57.7214 241.476 57.5521 241.307 57.5521 241.119Z" fill="#24372C"/>
<path d="M48.0133 237.714C48.0133 235.588 49.4243 233.763 51.7007 233.763C53.676 233.763 55.1058 235.23 55.1058 237.206C55.1058 237.337 55.087 237.582 55.0682 237.714C55.0494 237.902 54.8989 238.034 54.7296 238.034H49.3114C49.3867 239.294 50.4966 240.479 51.8324 240.479C52.6225 240.479 53.2622 240.178 53.6949 239.915C53.9582 239.764 54.0711 239.67 54.2216 239.877C54.3345 240.028 54.4286 240.159 54.5414 240.31C54.6731 240.479 54.7484 240.592 54.4662 240.799C54.0147 241.156 52.9988 241.664 51.7007 241.664C49.4243 241.664 48.0133 239.877 48.0133 237.714ZM49.3302 236.98H53.8077C53.7513 235.889 52.8483 234.911 51.7007 234.911C50.4402 234.911 49.4619 235.814 49.3302 236.98Z" fill="#24372C"/>
<path d="M38.5612 237.695C38.5612 235.494 39.9157 233.763 42.1733 233.763C43.4149 233.763 44.1863 234.252 44.1863 234.252V228.665C44.1863 228.476 44.3556 228.307 44.5437 228.307H45.1269C45.3151 228.307 45.4844 228.476 45.4844 228.665V241.119C45.4844 241.307 45.3151 241.476 45.1269 241.476H44.7318C44.5625 241.476 44.4497 241.345 44.412 241.175L44.2991 240.667C44.2991 240.667 43.3961 241.664 41.9851 241.664C40.0662 241.664 38.5612 239.858 38.5612 237.695ZM39.8781 237.714C39.8781 239.181 40.7435 240.479 42.1168 240.479C43.4714 240.479 44.1675 239.238 44.1675 239.238V235.475C44.1675 235.475 43.3773 235.023 42.3426 235.023C40.7058 235.023 39.8781 236.209 39.8781 237.714Z" fill="#24372C"/>
<path d="M87.7876 219.695C87.7876 217.494 89.1421 215.763 91.3997 215.763C92.6414 215.763 93.4127 216.252 93.4127 216.252V210.665C93.4127 210.476 93.582 210.307 93.7702 210.307H94.3534C94.5415 210.307 94.7108 210.476 94.7108 210.665V223.119C94.7108 223.307 94.5415 223.476 94.3534 223.476H93.9583C93.789 223.476 93.6761 223.345 93.6385 223.175L93.5256 222.667C93.5256 222.667 92.6226 223.664 91.2116 223.664C89.2926 223.664 87.7876 221.858 87.7876 219.695ZM89.1045 219.714C89.1045 221.181 89.9699 222.479 91.3433 222.479C92.6978 222.479 93.3939 221.238 93.3939 221.238V217.475C93.3939 217.475 92.6037 217.023 91.569 217.023C89.9323 217.023 89.1045 218.209 89.1045 219.714Z" fill="#24372C"/>
<path d="M78.6422 223.119V216.309C78.6422 216.12 78.8115 215.951 78.9997 215.951H79.3571C79.5264 215.951 79.6205 216.026 79.6581 216.177L79.8274 216.76C79.8274 216.76 80.8998 215.763 82.4613 215.763C84.6436 215.763 85.3773 217.193 85.3773 219.149V223.119C85.3773 223.307 85.208 223.476 85.0198 223.476H84.4178C84.2297 223.476 84.0604 223.307 84.0604 223.119V219.149C84.0604 217.72 83.4207 217.023 82.3672 217.023C80.9562 217.023 79.9403 218.096 79.9403 218.096V223.119C79.9403 223.307 79.771 223.476 79.5829 223.476H78.9997C78.8115 223.476 78.6422 223.307 78.6422 223.119Z" fill="#24372C"/>
<path d="M69.0409 220.259V216.309C69.0409 216.12 69.2102 215.951 69.3983 215.951H70.0004C70.1885 215.951 70.3578 216.12 70.3578 216.309V220.278C70.3578 221.708 70.9975 222.404 72.051 222.404C73.4808 222.404 74.2897 221.332 74.2897 221.332C74.2897 220.918 74.2897 220.485 74.2897 216.309C74.2897 216.12 74.4591 215.951 74.6472 215.951H75.2304C75.4185 215.951 75.5878 216.12 75.5878 216.309V223.119C75.5878 223.307 75.4185 223.476 75.2304 223.476H74.8729C74.666 223.476 74.5908 223.345 74.5343 223.157L74.4026 222.667C74.4026 222.667 73.5184 223.665 71.9569 223.665C69.7746 223.665 69.0409 222.254 69.0409 220.259Z" fill="#24372C"/>
<path d="M59.1373 219.695C59.1373 217.569 60.7929 215.763 62.8811 215.763C64.9694 215.763 66.6249 217.569 66.6249 219.695C66.6249 221.858 64.9694 223.664 62.8811 223.664C60.7929 223.664 59.1373 221.858 59.1373 219.695ZM60.4354 219.695C60.4354 221.219 61.5078 222.442 62.8811 222.442C64.2545 222.442 65.3268 221.219 65.3268 219.695C65.3268 218.209 64.2545 217.005 62.8811 217.005C61.5078 217.005 60.4354 218.209 60.4354 219.695Z" fill="#24372C"/>
<path d="M53.0785 223.119V216.309C53.0785 216.12 53.2478 215.951 53.4359 215.951H53.7934C53.9439 215.951 54.0756 216.045 54.1132 216.214L54.2637 216.76C54.2637 216.76 54.9598 215.763 56.5213 215.763C57.0857 215.763 58.0263 215.857 57.8382 216.384L57.6124 217.023C57.5184 217.268 57.3491 217.268 57.1609 217.193C56.9916 217.117 56.7094 217.042 56.4272 217.042C54.9974 217.042 54.3766 218.096 54.3766 218.096V223.119C54.3766 223.307 54.2073 223.476 54.0191 223.476H53.4359C53.2478 223.476 53.0785 223.307 53.0785 223.119Z" fill="#24372C"/>
<path d="M38.7306 216.91C38.7306 213.148 41.7595 210.119 45.5221 210.119C47.4222 210.119 48.7956 210.777 50.0749 211.869C50.2254 212.019 50.2442 212.245 50.0937 212.395C49.9244 212.565 49.7174 212.753 49.5669 212.922C49.3976 213.11 49.2847 213.091 49.0778 212.903C48.1183 212.057 46.7638 211.436 45.5033 211.436C42.5308 211.436 40.2733 213.919 40.2733 216.835C40.2733 219.732 42.5308 222.272 45.5033 222.272C47.5727 222.272 48.8897 221.482 48.8897 221.482V218.848H46.7262C46.5192 218.848 46.3687 218.698 46.3687 218.51V217.813C46.3687 217.607 46.5192 217.456 46.7262 217.456H49.9808C50.1689 217.456 50.3195 217.625 50.3195 217.813V222.122C50.3195 222.216 50.2442 222.366 50.1689 222.423C50.1689 222.423 48.25 223.664 45.5221 223.664C41.7595 223.664 38.7306 220.673 38.7306 216.91Z" fill="#24372C"/>
<path d="M62.0071 205.119V192.665C62.0071 192.476 62.1764 192.307 62.3645 192.307H62.9477C63.1359 192.307 63.3052 192.476 63.3052 192.665V198.76C63.3052 198.76 64.3023 197.763 65.8261 197.763C67.6886 197.763 68.7422 198.948 68.7422 201.149V205.119C68.7422 205.307 68.5728 205.476 68.3847 205.476H67.7827C67.5946 205.476 67.4252 205.307 67.4252 205.119V201.149C67.4252 199.719 66.7856 199.023 65.7321 199.023C64.3023 199.023 63.3052 200.077 63.3052 200.077V205.119C63.3052 205.307 63.1359 205.476 62.9477 205.476H62.3645C62.1764 205.476 62.0071 205.307 62.0071 205.119Z" fill="#24372C"/>
<path d="M55.6708 203.595V199.08H54.7113C54.5044 199.08 54.3539 198.911 54.3539 198.722V198.309C54.3539 198.102 54.5044 197.951 54.7113 197.951H55.6708V195.863C55.6708 195.675 55.8401 195.505 56.0282 195.505L56.6303 195.468C56.8184 195.468 56.9689 195.637 56.9689 195.825V197.951H59.1512C59.3582 197.951 59.5087 198.102 59.5087 198.309V198.722C59.5087 198.911 59.3582 199.08 59.1512 199.08H56.9689V203.482C56.9689 204.235 57.157 204.385 57.5897 204.385C58.0601 204.385 58.7185 204.103 58.9631 203.971C59.2453 203.821 59.3205 203.934 59.4146 204.084L59.6968 204.554C59.8285 204.78 59.772 204.893 59.5651 205.025C59.3017 205.194 58.2858 205.664 57.4016 205.664C55.8966 205.664 55.6708 204.761 55.6708 203.595Z" fill="#24372C"/>
<path d="M51.4578 194.471C50.9687 194.471 50.5736 194.076 50.5736 193.586C50.5736 193.078 50.9687 192.683 51.4578 192.683C51.9658 192.683 52.3609 193.078 52.3609 193.586C52.3609 194.076 51.9658 194.471 51.4578 194.471ZM50.837 205.119V198.308C50.837 198.12 51.0063 197.951 51.1944 197.951H51.7776C51.9658 197.951 52.1351 198.12 52.1351 198.308V205.119C52.1351 205.307 51.9658 205.476 51.7776 205.476H51.1944C51.0063 205.476 50.837 205.307 50.837 205.119Z" fill="#24372C"/>
<path d="M40.4801 205.476L38.3919 198.384C38.3166 198.12 38.3919 197.951 38.6741 197.951H39.2573C39.4266 197.951 39.5583 198.045 39.5959 198.158L40.9693 203.125H40.9881L43.114 197.951C43.1516 197.857 43.2645 197.763 43.4338 197.763H43.5279C43.6972 197.763 43.8101 197.857 43.8477 197.951L45.9548 203.143H45.9736L47.3281 198.158C47.3657 198.045 47.4974 197.951 47.6479 197.951H48.2311C48.5133 197.951 48.5886 198.12 48.5133 198.384L46.4627 205.476C46.4251 205.589 46.2934 205.664 46.1429 205.664H46.0488C45.8795 205.664 45.7666 205.57 45.729 205.476L43.4338 199.832L41.2139 205.476C41.1762 205.57 41.0634 205.664 40.894 205.664H40.8C40.6307 205.664 40.5178 205.589 40.4801 205.476Z" fill="#24372C"/>
<path d="M135.56 43.7072V33.5173C135.56 33.3634 135.683 33.2249 135.853 33.2249H140.255C142.102 33.2249 143.611 34.7025 143.611 36.5342C143.611 37.9504 142.672 39.1048 141.332 39.6435L143.441 43.5532C143.549 43.7533 143.441 43.9996 143.18 43.9996H141.563C141.425 43.9996 141.348 43.9227 141.317 43.8611L139.27 39.7821H137.561V43.7072C137.561 43.8611 137.423 43.9996 137.269 43.9996H135.853C135.683 43.9996 135.56 43.8611 135.56 43.7072ZM137.577 38.1351H140.086C140.902 38.1351 141.61 37.427 141.61 36.565C141.61 35.7492 140.902 35.072 140.086 35.072H137.577V38.1351Z" fill="#24372C"/>
<path d="M123.433 43.7072V33.5173C123.433 33.3634 123.556 33.2249 123.725 33.2249H129.99C130.159 33.2249 130.282 33.3634 130.282 33.5173V34.7795C130.282 34.9334 130.159 35.072 129.99 35.072H125.434V37.5963H129.236C129.39 37.5963 129.528 37.7349 129.528 37.8888V39.1664C129.528 39.3357 129.39 39.4588 129.236 39.4588H125.434V42.1525H129.99C130.159 42.1525 130.282 42.2911 130.282 42.445V43.7072C130.282 43.8611 130.159 43.9996 129.99 43.9996H123.725C123.556 43.9996 123.433 43.8611 123.433 43.7072Z" fill="#24372C"/>
<path d="M110.854 43.7072V33.5173C110.854 33.3634 110.977 33.2249 111.146 33.2249H114.671C116.503 33.2249 117.919 34.4563 117.919 36.0725C117.919 37.2577 116.949 38.1812 116.226 38.5199C117.042 38.7816 118.227 39.6128 118.227 41.0289C118.227 42.7528 116.749 43.9996 114.871 43.9996H111.146C110.977 43.9996 110.854 43.8611 110.854 43.7072ZM112.84 37.7503H114.487C115.272 37.7503 115.81 37.1346 115.81 36.3649C115.81 35.5953 115.272 35.0566 114.487 35.0566H112.84V37.7503ZM112.84 42.1833H114.702C115.472 42.1833 116.087 41.583 116.087 40.7826C116.087 40.013 115.318 39.4434 114.517 39.4434H112.84V42.1833Z" fill="#24372C"/>
<path d="M93.6291 43.6457L95.4608 33.3019C95.4762 33.1788 95.5685 33.071 95.7379 33.071H95.9841C96.1073 33.071 96.1996 33.1326 96.2458 33.225L99.6322 40.4902C99.663 40.4902 99.663 40.4902 99.6783 40.4902L103.065 33.225C103.111 33.1326 103.188 33.071 103.326 33.071H103.573C103.742 33.071 103.834 33.1788 103.85 33.3019L105.666 43.6457C105.712 43.8612 105.589 43.9997 105.389 43.9997H103.988C103.85 43.9997 103.727 43.8766 103.696 43.7689L102.788 37.9351C102.772 37.9351 102.741 37.9351 102.741 37.9351L100.048 43.9843C100.017 44.0767 99.9246 44.1537 99.7861 44.1537H99.509C99.3705 44.1537 99.2935 44.0767 99.2474 43.9843L96.5229 37.9351C96.5229 37.9351 96.4921 37.9351 96.4767 37.9351L95.5839 43.7689C95.5685 43.8766 95.4454 43.9997 95.3069 43.9997H93.9215C93.7214 43.9997 93.5983 43.8612 93.6291 43.6457Z" fill="#24372C"/>
<path d="M82.2095 43.7072V33.5173C82.2095 33.3634 82.3326 33.2249 82.5019 33.2249H88.7667C88.936 33.2249 89.0591 33.3634 89.0591 33.5173V34.7795C89.0591 34.9334 88.936 35.072 88.7667 35.072H84.2105V37.5963H88.0125C88.1664 37.5963 88.3049 37.7349 88.3049 37.8888V39.1664C88.3049 39.3357 88.1664 39.4588 88.0125 39.4588H84.2105V42.1525H88.7667C88.936 42.1525 89.0591 42.2911 89.0591 42.445V43.7072C89.0591 43.8611 88.936 43.9996 88.7667 43.9996H82.5019C82.3326 43.9996 82.2095 43.8611 82.2095 43.7072Z" fill="#24372C"/>
<path d="M67.8237 38.6277C67.8237 35.5492 70.3019 33.071 73.3804 33.071C74.9351 33.071 76.0587 33.5636 77.1054 34.5025C77.244 34.6257 77.244 34.8104 77.1208 34.9335L76.1819 35.9033C76.0741 36.0264 75.9202 36.0264 75.7971 35.9033C75.1506 35.3337 74.2886 34.9951 73.4266 34.9951C71.4564 34.9951 69.9941 36.6421 69.9941 38.5816C69.9941 40.5056 71.4718 42.1372 73.442 42.1372C74.3656 42.1372 75.1506 41.7832 75.7971 41.2599C75.9202 41.1521 76.0895 41.1675 76.1819 41.2599L77.1362 42.245C77.2593 42.3527 77.2286 42.5528 77.1208 42.6606C76.0741 43.6765 74.7504 44.1537 73.3804 44.1537C70.3019 44.1537 67.8237 41.7063 67.8237 38.6277Z" fill="#24372C"/>
<path d="M56.5262 43.7072V33.5173C56.5262 33.3634 56.6494 33.2249 56.8187 33.2249H63.0835C63.2528 33.2249 63.3759 33.3634 63.3759 33.5173V34.7795C63.3759 34.9334 63.2528 35.072 63.0835 35.072H58.5273V37.5963H62.3292C62.4832 37.5963 62.6217 37.7349 62.6217 37.8888V39.1664C62.6217 39.3357 62.4832 39.4588 62.3292 39.4588H58.5273V42.1525H63.0835C63.2528 42.1525 63.3759 42.2911 63.3759 42.445V43.7072C63.3759 43.8611 63.2528 43.9996 63.0835 43.9996H56.8187C56.6494 43.9996 56.5262 43.8611 56.5262 43.7072Z" fill="#24372C"/>
<path d="M42.0837 43.7072V33.5173C42.0837 33.3634 42.2069 33.2249 42.3608 33.2249H46.0088C48.9796 33.2249 51.4116 35.6415 51.4116 38.5968C51.4116 41.583 48.9796 43.9996 46.0088 43.9996H42.3608C42.2069 43.9996 42.0837 43.8611 42.0837 43.7072ZM44.0694 42.1217H45.8241C47.8252 42.1217 49.2874 40.6133 49.2874 38.5968C49.2874 36.5958 47.8252 35.0873 45.8241 35.0873H44.0694V42.1217Z" fill="#24372C"/>
<path fill-rule="evenodd" clip-rule="evenodd" d="M154.925 180.001H37.7711V178.718H154.925V180.001Z" fill="#24372C"/>
<path fill-rule="evenodd" clip-rule="evenodd" d="M153.5 234.375H127V233.625H153.5V234.375Z" fill="black"/>
<path fill-rule="evenodd" clip-rule="evenodd" d="M146.806 237.96C145.458 239.949 145.232 242.35 145.444 243.951L144.701 244.049C144.471 242.317 144.709 239.718 146.185 237.539C147.677 235.338 150.395 233.625 155 233.625L155 234.375C150.604 234.375 148.138 235.995 146.806 237.96Z" fill="black"/>
<path fill-rule="evenodd" clip-rule="evenodd" d="M145.795 230.399C144.457 228.622 144.234 226.479 144.443 225.054L143.701 224.945C143.47 226.52 143.71 228.878 145.196 230.85C146.694 232.84 149.41 234.375 154 234.375L154 233.625C149.589 233.625 147.12 232.16 145.795 230.399Z" fill="black"/>
</svg>
