<svg width="185" height="270" viewBox="0 0 185 270" fill="none" xmlns="http://www.w3.org/2000/svg">
<path d="M75.5442 158.682V159.212C73.3182 159.106 69.9262 159 66.3222 159C62.4002 159 59.4322 159.106 57.1002 159.212V158.682C61.0222 158.046 62.4002 157.516 62.4002 149.036V91.69C60.1742 93.598 56.9942 95.824 53.6022 98.05L53.0722 96.884C59.6442 92.432 67.8062 87.026 69.7142 80.348H70.2442V149.036C70.2442 157.516 71.6222 158.046 75.5442 158.682ZM89.2049 141.722L89.6289 142.04C89.5229 142.676 89.5229 143.312 89.5229 143.842C89.5229 152.216 96.3069 157.622 105.953 157.622C114.751 157.622 124.185 151.792 124.185 137.164C124.185 124.02 116.341 116.07 104.893 116.07C100.123 116.07 95.0349 117.342 90.7949 122.006H90.2649C91.5369 112.572 92.0669 91.902 92.0669 81.196C93.6569 81.302 108.391 82.15 117.295 82.15C122.277 82.15 123.231 82.044 124.503 80.348H125.033C124.397 82.256 122.595 85.33 121.429 89.57L94.7169 88.616C94.6109 96.142 94.3989 103.562 93.9749 111.088C98.4269 109.18 102.031 108.544 105.953 108.544C120.263 108.544 131.181 116.918 131.181 133.666C131.181 147.87 121.005 160.06 106.271 160.06C97.1549 160.06 88.3569 155.396 84.6469 145.962C87.4029 143.948 88.0389 142.464 89.2049 141.722Z" fill="#EA5E57"/>
<path d="M7.5383 3.18615H1L1 9.65869C1.08708 9.65869 1.17416 9.64313 1.26124 9.64313C4.86783 9.64313 7.79229 12.7745 7.79229 16.6363C7.79229 20.498 4.86783 23.6294 1.26124 23.6294C1.17416 23.6294 1.08708 23.6216 1 23.6138L1 29.5036C4.60659 29.5036 7.53105 32.635 7.53105 36.4967C7.53105 40.3585 4.60659 43.4899 1 43.4899L1 49.3641C4.60659 49.3641 7.53105 52.4954 7.53105 56.3572C7.53105 60.219 4.60659 63.3503 1 63.3503L1 69.2246C4.60659 69.2246 7.53105 72.3559 7.53105 76.2177C7.53105 80.0794 4.60659 83.2108 1 83.2108L1 89.085C4.60659 89.085 7.53105 92.2164 7.53105 96.0782C7.53105 99.9399 4.60659 103.071 1 103.071L1 108.946C4.60659 108.946 7.53105 112.077 7.53105 115.939C7.53105 119.8 4.60659 122.932 1 122.932L1 128.806C4.60659 128.806 7.53105 131.937 7.53105 135.799C7.53105 139.661 4.60659 142.792 1 142.792L1 148.666C4.60659 148.666 7.53105 151.798 7.53105 155.66C7.53105 159.521 4.60659 162.653 1 162.653L1 168.527C4.60659 168.527 7.53105 171.658 7.53105 175.52C7.53105 179.382 4.60659 182.513 1 182.513L1 188.387C4.60659 188.387 7.53105 191.519 7.53105 195.381C7.53105 199.242 4.60659 202.374 1 202.374L1 208.248C4.60659 208.248 7.53105 211.379 7.53105 215.241C7.53105 219.103 4.60659 222.234 1 222.234L1 228.108C4.60659 228.108 7.53105 231.24 7.53105 235.102C7.53105 238.963 4.60659 242.095 1 242.095L1 247.969C4.60659 247.969 7.53105 251.1 7.53105 254.962C7.53105 258.824 4.60659 261.955 1 261.955L1 268.948H7.5383C7.5383 268.902 7.5383 268.855 7.5383 268.808C7.5383 264.947 10.4628 261.815 14.0694 261.815C17.6759 261.815 20.6004 264.947 20.6004 268.808C20.6004 268.855 20.6004 268.902 20.6004 268.948H27.1315C27.1315 268.902 27.1315 268.855 27.1315 268.808C27.1315 264.947 30.0559 261.815 33.6625 261.815C37.2691 261.815 40.1936 264.947 40.1936 268.808C40.1936 268.855 40.1936 268.902 40.1936 268.948H46.7246C46.7246 268.902 46.7246 268.855 46.7246 268.808C46.7246 264.947 49.6491 261.815 53.2557 261.815C56.8622 261.815 59.7867 264.947 59.7867 268.808C59.7867 268.855 59.7867 268.902 59.7867 268.948H66.3177C66.3177 268.902 66.3177 268.855 66.3177 268.808C66.3177 264.947 69.2422 261.815 72.8488 261.815C76.4554 261.815 79.3798 264.947 79.3798 268.808C79.3798 268.855 79.3798 268.902 79.3798 268.948H85.9109C85.9109 268.902 85.9109 268.855 85.9109 268.808C85.9109 264.947 88.8353 261.815 92.4419 261.815C96.0485 261.815 98.973 264.947 98.973 268.808C98.973 268.855 98.973 268.902 98.973 268.948H105.504C105.504 268.902 105.504 268.855 105.504 268.808C105.504 264.947 108.428 261.815 112.035 261.815C115.642 261.815 118.566 264.947 118.566 268.808C118.566 268.855 118.566 268.902 118.566 268.948H125.097C125.097 268.902 125.097 268.855 125.097 268.808C125.097 264.947 128.022 261.815 131.628 261.815C135.235 261.815 138.159 264.947 138.159 268.808C138.159 268.855 138.159 268.902 138.159 268.948H144.69C144.69 268.902 144.69 268.855 144.69 268.808C144.69 264.947 147.615 261.815 151.221 261.815C154.828 261.815 157.752 264.947 157.752 268.808C157.752 268.855 157.752 268.902 157.752 268.948H164.283C164.356 265.149 167.244 262.095 170.807 262.095C174.37 262.095 177.258 265.149 177.331 268.948H184V261.947C183.956 261.947 183.913 261.947 183.869 261.947C180.263 261.947 177.338 258.816 177.338 254.954C177.338 251.092 180.263 247.961 183.869 247.961C183.913 247.961 183.956 247.961 184 247.961V242.071C183.956 242.071 183.913 242.071 183.869 242.071C180.263 242.071 177.338 238.94 177.338 235.078C177.338 231.216 180.263 228.085 183.869 228.085C183.913 228.085 183.956 228.085 184 228.085V222.195C183.956 222.195 183.913 222.195 183.869 222.195C180.263 222.195 177.338 219.064 177.338 215.202C177.338 211.34 180.263 208.209 183.869 208.209C183.913 208.209 183.956 208.209 184 208.209V202.319C183.956 202.319 183.913 202.319 183.869 202.319C180.263 202.319 177.338 199.188 177.338 195.326C177.338 191.464 180.263 188.333 183.869 188.333C183.913 188.333 183.956 188.333 184 188.333V182.443C183.956 182.443 183.913 182.443 183.869 182.443C180.263 182.443 177.338 179.312 177.338 175.45C177.338 171.588 180.263 168.457 183.869 168.457C183.913 168.457 183.956 168.457 184 168.457V162.567C183.956 162.567 183.913 162.567 183.869 162.567C180.263 162.567 177.338 159.436 177.338 155.574C177.338 151.712 180.263 148.581 183.869 148.581C183.913 148.581 183.956 148.581 184 148.581V142.691C183.956 142.691 183.913 142.691 183.869 142.691C180.263 142.691 177.338 139.56 177.338 135.698C177.338 131.836 180.263 128.705 183.869 128.705C183.913 128.705 183.956 128.705 184 128.705V122.815C183.956 122.815 183.913 122.815 183.869 122.815C180.263 122.815 177.338 119.684 177.338 115.822C177.338 111.96 180.263 108.829 183.869 108.829C183.913 108.829 183.956 108.829 184 108.829V102.939C183.956 102.939 183.913 102.939 183.869 102.939C180.263 102.939 177.338 99.8078 177.338 95.9461C177.338 92.0843 180.263 88.953 183.869 88.953C183.913 88.953 183.956 88.953 184 88.953V83.0632C183.956 83.0632 183.913 83.0632 183.869 83.0632C180.263 83.0632 177.338 79.9318 177.338 76.0701C177.338 72.2083 180.263 69.0769 183.869 69.0769C183.913 69.0769 183.956 69.0769 184 69.0769V63.1872C183.956 63.1872 183.913 63.1872 183.869 63.1872C180.263 63.1872 177.338 60.0558 177.338 56.194C177.338 52.3323 180.263 49.2009 183.869 49.2009C183.913 49.2009 183.956 49.2009 184 49.2009V43.3112C183.956 43.3112 183.913 43.3112 183.869 43.3112C180.263 43.3112 177.338 40.1798 177.338 36.318C177.338 32.4563 180.263 29.3249 183.869 29.3249C183.913 29.3249 183.956 29.3249 184 29.3249V23.4351C180.451 23.3574 177.6 20.2649 177.6 16.4498C177.6 12.6346 180.451 9.54214 184 9.46444V2.99967H177.331C177.331 3.04629 177.331 3.0929 177.331 3.13952C177.331 7.00128 174.407 10.1327 170.8 10.1327C167.193 10.1327 164.269 7.00128 164.269 3.13952C164.269 3.0929 164.269 3.04629 164.269 2.99967H157.738C157.665 6.79926 154.777 9.85294 151.214 9.85294C147.651 9.85294 144.763 6.79926 144.69 2.99967H138.159C138.087 6.79926 135.199 9.85294 131.635 9.85294C128.072 9.85294 125.184 6.79926 125.112 2.99967H118.581C118.508 6.79926 115.62 9.85294 112.057 9.85294C108.494 9.85294 105.606 6.79926 105.533 2.99967H99.002C98.9295 6.79926 96.0413 9.85294 92.4782 9.85294C88.9152 9.85294 86.027 6.79926 85.9544 2.99967H79.4234C79.3508 6.79926 76.4626 9.85294 72.8996 9.85294C69.3365 9.85294 66.4484 6.79926 66.3758 2.99967H59.8447C59.7722 6.79926 56.884 9.85294 53.321 9.85294C49.7579 9.85294 46.8697 6.79926 46.7972 2.99967H40.2661C40.1936 6.79926 37.3054 9.85294 33.7423 9.85294C30.1793 9.85294 27.2911 6.79926 27.2185 2.99967H20.6875C20.6149 6.79926 17.7267 9.85294 14.1637 9.85294C10.6006 9.85294 7.71247 6.79926 7.6399 2.99967L7.5383 3.18615Z" stroke="#24372C" stroke-width="1.28271"/>
<path d="M40.4802 205.276L38.3919 198.183C38.3167 197.92 38.3919 197.75 38.6741 197.75H39.2574C39.4267 197.75 39.5584 197.844 39.596 197.957L40.9693 202.924H40.9882L43.114 197.75C43.1517 197.656 43.2645 197.562 43.4339 197.562H43.5279C43.6972 197.562 43.8101 197.656 43.8477 197.75L45.9548 202.943H45.9736L47.3282 197.957C47.3658 197.844 47.4975 197.75 47.648 197.75H48.2312C48.5134 197.75 48.5886 197.92 48.5134 198.183L46.4628 205.276C46.4251 205.388 46.2934 205.464 46.1429 205.464H46.0489C45.8796 205.464 45.7667 205.37 45.7291 205.276L43.4339 199.632L41.2139 205.276C41.1763 205.37 41.0634 205.464 40.8941 205.464H40.8C40.6307 205.464 40.5178 205.388 40.4802 205.276ZM51.4579 194.27C50.9688 194.27 50.5737 193.875 50.5737 193.386C50.5737 192.878 50.9688 192.483 51.4579 192.483C51.9659 192.483 52.361 192.878 52.361 193.386C52.361 193.875 51.9659 194.27 51.4579 194.27ZM50.8371 204.918V198.108C50.8371 197.92 51.0064 197.75 51.1945 197.75H51.7778C51.9659 197.75 52.1352 197.92 52.1352 198.108V204.918C52.1352 205.106 51.9659 205.276 51.7778 205.276H51.1945C51.0064 205.276 50.8371 205.106 50.8371 204.918ZM55.6709 203.394V198.879H54.7114C54.5045 198.879 54.354 198.71 54.354 198.522V198.108C54.354 197.901 54.5045 197.75 54.7114 197.75H55.6709V195.662C55.6709 195.474 55.8402 195.305 56.0283 195.305L56.6304 195.267C56.8185 195.267 56.969 195.436 56.969 195.624V197.75H59.1513C59.3582 197.75 59.5088 197.901 59.5088 198.108V198.522C59.5088 198.71 59.3582 198.879 59.1513 198.879H56.969V203.281C56.969 204.034 57.1571 204.184 57.5898 204.184C58.0601 204.184 58.7186 203.902 58.9632 203.77C59.2454 203.62 59.3206 203.733 59.4147 203.883L59.6969 204.354C59.8286 204.579 59.7721 204.692 59.5652 204.824C59.3018 204.993 58.2859 205.464 57.4017 205.464C55.8966 205.464 55.6709 204.561 55.6709 203.394ZM62.0071 204.918V192.464C62.0071 192.276 62.1764 192.106 62.3645 192.106H62.9477C63.1359 192.106 63.3052 192.276 63.3052 192.464V198.559C63.3052 198.559 64.3023 197.562 65.8261 197.562C67.6886 197.562 68.7422 198.747 68.7422 200.949V204.918C68.7422 205.106 68.5728 205.276 68.3847 205.276H67.7827C67.5946 205.276 67.4252 205.106 67.4252 204.918V200.949C67.4252 199.519 66.7856 198.823 65.7321 198.823C64.3023 198.823 63.3052 199.876 63.3052 199.876V204.918C63.3052 205.106 63.1359 205.276 62.9477 205.276H62.3645C62.1764 205.276 62.0071 205.106 62.0071 204.918ZM38.7306 216.71C38.7306 212.947 41.7595 209.918 45.5221 209.918C47.4222 209.918 48.7956 210.577 50.0749 211.668C50.2254 211.818 50.2442 212.044 50.0937 212.195C49.9244 212.364 49.7174 212.552 49.5669 212.721C49.3976 212.91 49.2847 212.891 49.0778 212.703C48.1183 211.856 46.7638 211.235 45.5033 211.235C42.5308 211.235 40.2733 213.718 40.2733 216.634C40.2733 219.532 42.5308 222.071 45.5033 222.071C47.5727 222.071 48.8897 221.281 48.8897 221.281V218.647H46.7261C46.5192 218.647 46.3687 218.497 46.3687 218.309V217.613C46.3687 217.406 46.5192 217.255 46.7261 217.255H49.9808C50.1689 217.255 50.3194 217.425 50.3194 217.613V221.921C50.3194 222.015 50.2442 222.166 50.1689 222.222C50.1689 222.222 48.25 223.464 45.5221 223.464C41.7595 223.464 38.7306 220.472 38.7306 216.71ZM53.0785 222.918V216.108C53.0785 215.92 53.2478 215.75 53.4359 215.75H53.7934C53.9439 215.75 54.0756 215.844 54.1132 216.014L54.2637 216.559C54.2637 216.559 54.9598 215.562 56.5213 215.562C57.0857 215.562 58.0263 215.656 57.8382 216.183L57.6125 216.823C57.5184 217.067 57.3491 217.067 57.1609 216.992C56.9916 216.917 56.7094 216.841 56.4272 216.841C54.9974 216.841 54.3766 217.895 54.3766 217.895V222.918C54.3766 223.106 54.2073 223.276 54.0192 223.276H53.4359C53.2478 223.276 53.0785 223.106 53.0785 222.918ZM59.1373 219.494C59.1373 217.368 60.7929 215.562 62.8811 215.562C64.9694 215.562 66.625 217.368 66.625 219.494C66.625 221.658 64.9694 223.464 62.8811 223.464C60.7929 223.464 59.1373 221.658 59.1373 219.494ZM60.4354 219.494C60.4354 221.018 61.5078 222.241 62.8811 222.241C64.2545 222.241 65.3268 221.018 65.3268 219.494C65.3268 218.008 64.2545 216.804 62.8811 216.804C61.5078 216.804 60.4354 218.008 60.4354 219.494ZM69.041 220.058V216.108C69.041 215.92 69.2103 215.75 69.3984 215.75H70.0004C70.1886 215.75 70.3579 215.92 70.3579 216.108V220.077C70.3579 221.507 70.9975 222.203 72.0511 222.203C73.4808 222.203 74.2898 221.131 74.2898 221.131C74.2898 220.717 74.2898 220.284 74.2898 216.108C74.2898 215.92 74.4591 215.75 74.6473 215.75H75.2305C75.4186 215.75 75.5879 215.92 75.5879 216.108V222.918C75.5879 223.106 75.4186 223.276 75.2305 223.276H74.873C74.6661 223.276 74.5908 223.144 74.5344 222.956L74.4027 222.467C74.4027 222.467 73.5185 223.464 71.957 223.464C69.7747 223.464 69.041 222.053 69.041 220.058ZM78.6422 222.918V216.108C78.6422 215.92 78.8116 215.75 78.9997 215.75H79.3571C79.5265 215.75 79.6205 215.826 79.6582 215.976L79.8275 216.559C79.8275 216.559 80.8998 215.562 82.4613 215.562C84.6436 215.562 85.3773 216.992 85.3773 218.949V222.918C85.3773 223.106 85.208 223.276 85.0199 223.276H84.4179C84.2297 223.276 84.0604 223.106 84.0604 222.918V218.949C84.0604 217.519 83.4208 216.823 82.3672 216.823C80.9563 216.823 79.9404 217.895 79.9404 217.895V222.918C79.9404 223.106 79.771 223.276 79.5829 223.276H78.9997C78.8116 223.276 78.6422 223.106 78.6422 222.918ZM87.7876 219.494C87.7876 217.293 89.1422 215.562 91.3997 215.562C92.6414 215.562 93.4127 216.051 93.4127 216.051V210.464C93.4127 210.276 93.582 210.106 93.7702 210.106H94.3534C94.5415 210.106 94.7108 210.276 94.7108 210.464V222.918C94.7108 223.106 94.5415 223.276 94.3534 223.276H93.9583C93.789 223.276 93.6761 223.144 93.6385 222.975L93.5256 222.467C93.5256 222.467 92.6226 223.464 91.2116 223.464C89.2927 223.464 87.7876 221.658 87.7876 219.494ZM89.1045 219.513C89.1045 220.98 89.9699 222.278 91.3433 222.278C92.6978 222.278 93.3939 221.037 93.3939 221.037V217.274C93.3939 217.274 92.6038 216.823 91.569 216.823C89.9323 216.823 89.1045 218.008 89.1045 219.513ZM38.5613 237.494C38.5613 235.293 39.9158 233.562 42.1734 233.562C43.415 233.562 44.1864 234.051 44.1864 234.051V228.464C44.1864 228.276 44.3557 228.106 44.5438 228.106H45.127C45.3152 228.106 45.4845 228.276 45.4845 228.464V240.918C45.4845 241.106 45.3152 241.276 45.127 241.276H44.732C44.5626 241.276 44.4498 241.144 44.4121 240.975L44.2993 240.467C44.2993 240.467 43.3962 241.464 41.9852 241.464C40.0663 241.464 38.5613 239.658 38.5613 237.494ZM39.8782 237.513C39.8782 238.98 40.7436 240.278 42.1169 240.278C43.4715 240.278 44.1676 239.037 44.1676 239.037V235.274C44.1676 235.274 43.3774 234.823 42.3427 234.823C40.706 234.823 39.8782 236.008 39.8782 237.513ZM48.0134 237.513C48.0134 235.387 49.4244 233.562 51.7007 233.562C53.6761 233.562 55.1059 235.03 55.1059 237.005C55.1059 237.137 55.0871 237.381 55.0683 237.513C55.0495 237.701 54.899 237.833 54.7296 237.833H49.3115C49.3867 239.093 50.4967 240.278 51.8324 240.278C52.6226 240.278 53.2622 239.977 53.6949 239.714C53.9583 239.564 54.0712 239.469 54.2217 239.676C54.3346 239.827 54.4286 239.959 54.5415 240.109C54.6732 240.278 54.7485 240.391 54.4663 240.598C54.0147 240.956 52.9988 241.464 51.7007 241.464C49.4244 241.464 48.0134 239.676 48.0134 237.513ZM49.3303 236.779H53.8078C53.7514 235.688 52.8483 234.71 51.7007 234.71C50.4403 234.71 49.462 235.613 49.3303 236.779ZM57.5522 240.918V228.464C57.5522 228.276 57.7215 228.106 57.9096 228.106H58.4928C58.681 228.106 58.8503 228.276 58.8503 228.464V240.918C58.8503 241.106 58.681 241.276 58.4928 241.276H57.9096C57.7215 241.276 57.5522 241.106 57.5522 240.918ZM62.5356 230.27C62.0465 230.27 61.6514 229.875 61.6514 229.386C61.6514 228.878 62.0465 228.483 62.5356 228.483C63.0436 228.483 63.4386 228.878 63.4386 229.386C63.4386 229.875 63.0436 230.27 62.5356 230.27ZM61.9148 240.918V234.108C61.9148 233.92 62.0841 233.75 62.2722 233.75H62.8554C63.0436 233.75 63.2129 233.92 63.2129 234.108V240.918C63.2129 241.106 63.0436 241.276 62.8554 241.276H62.2722C62.0841 241.276 61.9148 241.106 61.9148 240.918ZM68.4041 241.276L65.2247 234.183C65.1118 233.938 65.2247 233.75 65.5069 233.75H66.0901C66.2594 233.75 66.3723 233.844 66.4287 233.957L68.7616 239.338H68.7804L71.2637 233.957C71.3201 233.844 71.433 233.75 71.5835 233.75H72.0727C72.3549 233.75 72.4677 233.938 72.3549 234.183L69.1378 241.276C69.1002 241.37 68.9873 241.464 68.818 241.464H68.7239C68.5546 241.464 68.4417 241.37 68.4041 241.276ZM73.8248 237.513C73.8248 235.387 75.2358 233.562 77.5121 233.562C79.4875 233.562 80.9173 235.03 80.9173 237.005C80.9173 237.137 80.8985 237.381 80.8797 237.513C80.8609 237.701 80.7104 237.833 80.541 237.833H75.1229C75.1981 239.093 76.3081 240.278 77.6438 240.278C78.434 240.278 79.0736 239.977 79.5063 239.714C79.7697 239.564 79.8826 239.469 80.0331 239.676C80.146 239.827 80.24 239.959 80.3529 240.109C80.4846 240.278 80.5599 240.391 80.2777 240.598C79.8261 240.956 78.8102 241.464 77.5121 241.464C75.2358 241.464 73.8248 239.676 73.8248 237.513ZM75.1417 236.779H79.6192C79.5628 235.688 78.6597 234.71 77.5121 234.71C76.2517 234.71 75.2734 235.613 75.1417 236.779ZM83.3448 240.918V234.108C83.3448 233.92 83.5141 233.75 83.7022 233.75H84.0597C84.2102 233.75 84.3419 233.844 84.3795 234.014L84.53 234.559C84.53 234.559 85.2261 233.562 86.7876 233.562C87.352 233.562 88.2926 233.656 88.1045 234.183L87.8787 234.823C87.7847 235.067 87.6154 235.067 87.4272 234.992C87.2579 234.917 86.9757 234.841 86.6935 234.841C85.2637 234.841 84.6429 235.895 84.6429 235.895V240.918C84.6429 241.106 84.4736 241.276 84.2854 241.276H83.7022C83.5141 241.276 83.3448 241.106 83.3448 240.918ZM92.5598 241.257L89.0606 234.164C88.9477 233.92 89.0606 233.75 89.3428 233.75H90.1706C90.3211 233.75 90.4339 233.844 90.4904 233.957L93.2747 239.714H93.2935L95.9274 233.957C95.9838 233.844 96.1155 233.75 96.2472 233.75H96.9621C97.2443 233.75 97.376 233.938 97.2443 234.183L91.4687 246.694C91.4122 246.807 91.2805 246.919 91.1488 246.919H90.4528C90.1706 246.919 90.02 246.712 90.1517 246.449L92.5598 241.257Z" fill="#24372C"/>
<path d="M37.7711 179.159H154.925" stroke="#24372C" stroke-width="1.28271"/>
<path d="M127 233.799H153.5" stroke="#EA5E57" stroke-width="0.75"/>
<path d="M145.072 243.799C144.631 240.466 145.999 233.799 155 233.799" stroke="#EA5E57" stroke-width="0.75"/>
<path d="M144.072 224.799C143.631 227.799 144.999 233.799 154 233.799" stroke="#EA5E57" stroke-width="0.75"/>
<path d="M53.1422 32.9133C53.1422 30.1133 55.3682 27.8593 58.1682 27.8593C60.9682 27.8593 63.2082 30.1133 63.2082 32.9133C63.2082 35.7133 60.9682 37.9393 58.1682 37.9393C55.3682 37.9393 53.1422 35.7133 53.1422 32.9133ZM54.9622 32.9133C54.9622 34.6773 56.4042 36.1193 58.1682 36.1193C59.9322 36.1193 61.3882 34.6773 61.3882 32.9133C61.3882 31.1493 59.9322 29.6793 58.1682 29.6793C56.4042 29.6793 54.9622 31.1493 54.9622 32.9133ZM67.8394 37.5333V28.2653C67.8394 28.1253 67.9514 27.9993 68.1054 27.9993H72.1094C73.7894 27.9993 75.1614 29.3433 75.1614 31.0093C75.1614 32.2973 74.3074 33.3473 73.0894 33.8373L75.0074 37.3933C75.1054 37.5753 75.0074 37.7993 74.7694 37.7993H73.2994C73.1734 37.7993 73.1034 37.7293 73.0754 37.6733L71.2134 33.9633H69.6594V37.5333C69.6594 37.6733 69.5334 37.7993 69.3934 37.7993H68.1054C67.9514 37.7993 67.8394 37.6733 67.8394 37.5333ZM69.6734 32.4653H71.9554C72.6974 32.4653 73.3414 31.8213 73.3414 31.0373C73.3414 30.2953 72.6974 29.6793 71.9554 29.6793H69.6734V32.4653ZM79.9636 37.5333V28.2653C79.9636 28.1253 80.0756 27.9993 80.2156 27.9993H83.5336C86.2357 27.9993 88.4476 30.1973 88.4476 32.8853C88.4476 35.6013 86.2357 37.7993 83.5336 37.7993H80.2156C80.0756 37.7993 79.9636 37.6733 79.9636 37.5333ZM81.7696 36.0913H83.3656C85.1856 36.0913 86.5156 34.7193 86.5156 32.8853C86.5156 31.0653 85.1856 29.6933 83.3656 29.6933H81.7696V36.0913ZM93.0996 37.5333V28.2653C93.0996 28.1253 93.2116 27.9993 93.3656 27.9993H99.0636C99.2176 27.9993 99.3296 28.1253 99.3296 28.2653V29.4133C99.3296 29.5533 99.2176 29.6793 99.0636 29.6793H94.9196V31.9753H98.3776C98.5176 31.9753 98.6436 32.1013 98.6436 32.2413V33.4033C98.6436 33.5573 98.5176 33.6693 98.3776 33.6693H94.9196V36.1193H99.0636C99.2176 36.1193 99.3296 36.2453 99.3296 36.3853V37.5333C99.3296 37.6733 99.2176 37.7993 99.0636 37.7993H93.3656C93.2116 37.7993 93.0996 37.6733 93.0996 37.5333ZM104.13 37.5333V28.2653C104.13 28.1253 104.242 27.9993 104.396 27.9993H108.4C110.08 27.9993 111.452 29.3433 111.452 31.0093C111.452 32.2973 110.598 33.3473 109.38 33.8373L111.298 37.3933C111.396 37.5753 111.298 37.7993 111.06 37.7993H109.59C109.464 37.7993 109.394 37.7293 109.366 37.6733L107.504 33.9633H105.95V37.5333C105.95 37.6733 105.824 37.7993 105.684 37.7993H104.396C104.242 37.7993 104.13 37.6733 104.13 37.5333ZM105.964 32.4653H108.246C108.988 32.4653 109.632 31.8213 109.632 31.0373C109.632 30.2953 108.988 29.6793 108.246 29.6793H105.964V32.4653ZM122.144 37.5333V28.2653C122.144 28.1253 122.256 27.9993 122.41 27.9993H125.616C127.282 27.9993 128.57 29.1193 128.57 30.5893C128.57 31.6673 127.688 32.5073 127.03 32.8153C127.772 33.0533 128.85 33.8093 128.85 35.0973C128.85 36.6653 127.506 37.7993 125.798 37.7993H122.41C122.256 37.7993 122.144 37.6733 122.144 37.5333ZM123.95 32.1153H125.448C126.162 32.1153 126.652 31.5553 126.652 30.8553C126.652 30.1553 126.162 29.6653 125.448 29.6653H123.95V32.1153ZM123.95 36.1473H125.644C126.344 36.1473 126.904 35.6013 126.904 34.8733C126.904 34.1733 126.204 33.6553 125.476 33.6553H123.95V36.1473ZM135.42 37.5333V33.0813L132.228 28.4053C132.116 28.2233 132.228 27.9993 132.452 27.9993H133.88C133.992 27.9993 134.062 28.0693 134.104 28.1253L136.344 31.3453L138.584 28.1253C138.626 28.0693 138.696 27.9993 138.808 27.9993H140.25C140.474 27.9993 140.586 28.2233 140.474 28.4053L137.24 33.0673V37.5333C137.24 37.6733 137.114 37.7993 136.974 37.7993H135.686C135.532 37.7993 135.42 37.6733 135.42 37.5333ZM50.6019 53.5333V44.2653C50.6019 44.1253 50.7139 43.9993 50.8539 43.9993H54.1719C56.8739 43.9993 59.0859 46.1973 59.0859 48.8853C59.0859 51.6013 56.8739 53.7993 54.1719 53.7993H50.8539C50.7139 53.7993 50.6019 53.6733 50.6019 53.5333ZM52.4079 52.0913H54.0039C55.8239 52.0913 57.1539 50.7193 57.1539 48.8853C57.1539 47.0653 55.8239 45.6933 54.0039 45.6933H52.4079V52.0913ZM63.7379 53.5333V44.2653C63.7379 44.1253 63.8499 43.9993 64.0039 43.9993H69.7019C69.8559 43.9993 69.9679 44.1253 69.9679 44.2653V45.4133C69.9679 45.5533 69.8559 45.6793 69.7019 45.6793H65.5579V47.9753H69.0159C69.1559 47.9753 69.2819 48.1013 69.2819 48.2413V49.4033C69.2819 49.5573 69.1559 49.6693 69.0159 49.6693H65.5579V52.1193H69.7019C69.8559 52.1193 69.9679 52.2453 69.9679 52.3853V53.5333C69.9679 53.6733 69.8559 53.7993 69.7019 53.7993H64.0039C63.8499 53.7993 63.7379 53.6733 63.7379 53.5333ZM74.0133 48.9133C74.0133 46.1133 76.2673 43.8593 79.0673 43.8593C80.4813 43.8593 81.5033 44.3073 82.4553 45.1613C82.5813 45.2733 82.5813 45.4413 82.4693 45.5533L81.6153 46.4353C81.5173 46.5473 81.3773 46.5473 81.2653 46.4353C80.6773 45.9173 79.8933 45.6093 79.1093 45.6093C77.3173 45.6093 75.9873 47.1073 75.9873 48.8713C75.9873 50.6213 77.3313 52.1053 79.1233 52.1053C79.9633 52.1053 80.6773 51.7833 81.2653 51.3073C81.3773 51.2093 81.5313 51.2233 81.6153 51.3073L82.4833 52.2033C82.5953 52.3013 82.5673 52.4833 82.4693 52.5813C81.5173 53.5053 80.3133 53.9393 79.0673 53.9393C76.2673 53.9393 74.0133 51.7133 74.0133 48.9133ZM87.0976 53.5333V44.2653C87.0976 44.1253 87.2096 43.9993 87.3636 43.9993H93.0616C93.2156 43.9993 93.3276 44.1253 93.3276 44.2653V45.4133C93.3276 45.5533 93.2156 45.6793 93.0616 45.6793H88.9176V47.9753H92.3756C92.5156 47.9753 92.6416 48.1013 92.6416 48.2413V49.4033C92.6416 49.5573 92.5156 49.6693 92.3756 49.6693H88.9176V52.1193H93.0616C93.2156 52.1193 93.3276 52.2453 93.3276 52.3853V53.5333C93.3276 53.6733 93.2156 53.7993 93.0616 53.7993H87.3636C87.2096 53.7993 87.0976 53.6733 87.0976 53.5333ZM97.4841 53.4773L99.1501 44.0693C99.1641 43.9573 99.2481 43.8593 99.4021 43.8593H99.6261C99.7381 43.8593 99.8221 43.9153 99.8641 43.9993L102.944 50.6073C102.972 50.6073 102.972 50.6073 102.986 50.6073L106.066 43.9993C106.108 43.9153 106.178 43.8593 106.304 43.8593H106.528C106.682 43.8593 106.766 43.9573 106.78 44.0693L108.432 53.4773C108.474 53.6733 108.362 53.7993 108.18 53.7993H106.906C106.78 53.7993 106.668 53.6873 106.64 53.5893L105.814 48.2833C105.8 48.2833 105.772 48.2833 105.772 48.2833L103.322 53.7853C103.294 53.8693 103.21 53.9393 103.084 53.9393H102.832C102.706 53.9393 102.636 53.8693 102.594 53.7853L100.116 48.2833C100.116 48.2833 100.088 48.2833 100.074 48.2833L99.2621 53.5893C99.2481 53.6873 99.1361 53.7993 99.0101 53.7993H97.7501C97.5681 53.7993 97.4561 53.6733 97.4841 53.4773ZM113.151 53.5333V44.2653C113.151 44.1253 113.263 43.9993 113.417 43.9993H116.623C118.289 43.9993 119.577 45.1193 119.577 46.5893C119.577 47.6673 118.695 48.5073 118.037 48.8153C118.779 49.0533 119.857 49.8093 119.857 51.0973C119.857 52.6653 118.513 53.7993 116.805 53.7993H113.417C113.263 53.7993 113.151 53.6733 113.151 53.5333ZM114.957 48.1153H116.455C117.169 48.1153 117.659 47.5553 117.659 46.8553C117.659 46.1553 117.169 45.6653 116.455 45.6653H114.957V48.1153ZM114.957 52.1473H116.651C117.351 52.1473 117.911 51.6013 117.911 50.8733C117.911 50.1733 117.211 49.6553 116.483 49.6553H114.957V52.1473ZM124.591 53.5333V44.2653C124.591 44.1253 124.703 43.9993 124.857 43.9993H130.555C130.709 43.9993 130.821 44.1253 130.821 44.2653V45.4133C130.821 45.5533 130.709 45.6793 130.555 45.6793H126.411V47.9753H129.869C130.009 47.9753 130.135 48.1013 130.135 48.2413V49.4033C130.135 49.5573 130.009 49.6693 129.869 49.6693H126.411V52.1193H130.555C130.709 52.1193 130.821 52.2453 130.821 52.3853V53.5333C130.821 53.6733 130.709 53.7993 130.555 53.7993H124.857C124.703 53.7993 124.591 53.6733 124.591 53.5333ZM135.622 53.5333V44.2653C135.622 44.1253 135.734 43.9993 135.888 43.9993H139.892C141.572 43.9993 142.944 45.3433 142.944 47.0093C142.944 48.2973 142.09 49.3473 140.872 49.8373L142.79 53.3933C142.888 53.5753 142.79 53.7993 142.552 53.7993H141.082C140.956 53.7993 140.886 53.7293 140.858 53.6733L138.996 49.9633H137.442V53.5333C137.442 53.6733 137.316 53.7993 137.176 53.7993H135.888C135.734 53.7993 135.622 53.6733 135.622 53.5333ZM137.456 48.4653H139.738C140.48 48.4653 141.124 47.8213 141.124 47.0373C141.124 46.2953 140.48 45.6793 139.738 45.6793H137.456V48.4653Z" fill="#24372C"/>
</svg>
