<svg width="184" height="269" viewBox="0 0 184 269" fill="none" xmlns="http://www.w3.org/2000/svg">
<path d="M78.5214 144.361H79.0514C79.0514 147.965 77.1434 151.887 77.0374 159.837C68.1334 159.307 58.6994 159.201 49.7954 159.201C45.3434 159.201 37.1814 159.307 36.1214 159.307V158.777C46.5094 151.887 68.2394 131.535 68.2394 105.141C68.2394 89.3467 61.8794 84.3647 54.7774 84.3647C47.7814 84.3647 41.5274 90.0887 41.5274 99.7347C41.5274 103.339 43.1174 106.837 46.1914 109.169C44.3894 110.017 43.3294 110.547 42.2694 111.501C39.9374 108.533 38.6654 104.505 38.6654 101.007C38.6654 89.4527 45.6614 80.5487 56.8974 80.5487C66.9674 80.5487 76.8254 88.4987 76.8254 105.459C76.8254 123.055 62.5154 137.365 47.9934 151.887C56.1554 151.993 67.7094 152.523 70.0414 152.523C76.0834 152.523 77.0374 151.039 78.5214 144.361ZM115.546 160.261C102.932 160.261 87.7741 149.661 87.7741 121.677C87.7741 101.749 97.3141 81.6087 115.652 81.6087C133.99 81.6087 143.53 101.749 143.53 121.677C143.53 149.661 128.372 160.261 115.546 160.261ZM115.546 157.823C127.63 157.823 133.566 145.845 133.566 120.405C133.566 95.3887 127.736 84.0467 115.546 84.0467C103.568 84.0467 97.7381 95.3887 97.7381 120.405C97.7381 145.845 103.674 157.823 115.546 157.823Z" fill="#EA5E57"/>
<path d="M7.50258 3.38596H1L1 9.82313C1.0866 9.82313 1.17321 9.80766 1.25981 9.80766C4.8467 9.80766 7.75518 12.9219 7.75518 16.7626C7.75518 20.6032 4.8467 23.7175 1.25981 23.7175C1.17321 23.7175 1.0866 23.7097 1 23.702L1 29.5596C4.58688 29.5596 7.49536 32.6738 7.49536 36.5145C7.49536 40.3552 4.58688 43.4694 1 43.4694L1 49.3115C4.58688 49.3115 7.49536 52.4258 7.49536 56.2665C7.49536 60.1071 4.58688 63.2214 1 63.2214L1 69.0635C4.58688 69.0635 7.49536 72.1778 7.49536 76.0184C7.49536 79.8591 4.58688 82.9733 1 82.9733L1 88.8155C4.58688 88.8155 7.49536 91.9297 7.49536 95.7704C7.49536 99.611 4.58688 102.725 1 102.725L1 108.567C4.58688 108.567 7.49536 111.682 7.49536 115.522C7.49536 119.363 4.58688 122.477 1 122.477L1 128.319C4.58688 128.319 7.49536 131.434 7.49536 135.274C7.49536 139.115 4.58688 142.229 1 142.229L1 148.071C4.58688 148.071 7.49536 151.186 7.49536 155.026C7.49536 158.867 4.58688 161.981 1 161.981L1 167.823C4.58688 167.823 7.49536 170.937 7.49536 174.778C7.49536 178.619 4.58688 181.733 1 181.733L1 187.575C4.58688 187.575 7.49536 190.689 7.49536 194.53C7.49536 198.371 4.58688 201.485 1 201.485L1 207.327C4.58688 207.327 7.49536 210.441 7.49536 214.282C7.49536 218.123 4.58688 221.237 1 221.237L1 227.079C4.58688 227.079 7.49536 230.193 7.49536 234.034C7.49536 237.875 4.58688 240.989 1 240.989L1 246.831C4.58688 246.831 7.49536 249.945 7.49536 253.786C7.49536 257.627 4.58688 260.741 1 260.741L1 267.696H7.50258C7.50258 267.649 7.50258 267.603 7.50258 267.557C7.50258 263.716 10.4111 260.602 13.9979 260.602C17.5848 260.602 20.4933 263.716 20.4933 267.557C20.4933 267.603 20.4933 267.649 20.4933 267.696H26.9887C26.9887 267.649 26.9887 267.603 26.9887 267.557C26.9887 263.716 29.8971 260.602 33.484 260.602C37.0709 260.602 39.9794 263.716 39.9794 267.557C39.9794 267.603 39.9794 267.649 39.9794 267.696H46.4747C46.4747 267.649 46.4747 267.603 46.4747 267.557C46.4747 263.716 49.3832 260.602 52.9701 260.602C56.557 260.602 59.4655 263.716 59.4655 267.557C59.4655 267.603 59.4655 267.649 59.4655 267.696H65.9608C65.9608 267.649 65.9608 267.603 65.9608 267.557C65.9608 263.716 68.8693 260.602 72.4562 260.602C76.0431 260.602 78.9515 263.716 78.9515 267.557C78.9515 267.603 78.9515 267.649 78.9515 267.696H85.4469C85.4469 267.649 85.4469 267.603 85.4469 267.557C85.4469 263.716 88.3554 260.602 91.9423 260.602C95.5291 260.602 98.4376 263.716 98.4376 267.557C98.4376 267.603 98.4376 267.649 98.4376 267.696H104.933C104.933 267.649 104.933 267.603 104.933 267.557C104.933 263.716 107.841 260.602 111.428 260.602C115.015 260.602 117.924 263.716 117.924 267.557C117.924 267.603 117.924 267.649 117.924 267.696H124.419C124.419 267.649 124.419 267.603 124.419 267.557C124.419 263.716 127.328 260.602 130.914 260.602C134.501 260.602 137.41 263.716 137.41 267.557C137.41 267.603 137.41 267.649 137.41 267.696H143.905C143.905 267.649 143.905 267.603 143.905 267.557C143.905 263.716 146.814 260.602 150.4 260.602C153.987 260.602 156.896 263.716 156.896 267.557C156.896 267.603 156.896 267.649 156.896 267.696H163.391C163.463 263.917 166.336 260.88 169.879 260.88C173.423 260.88 176.295 263.917 176.368 267.696H183V260.733C182.957 260.733 182.913 260.733 182.87 260.733C179.283 260.733 176.375 257.619 176.375 253.778C176.375 249.938 179.283 246.823 182.87 246.823C182.913 246.823 182.957 246.823 183 246.823V240.966C182.957 240.966 182.913 240.966 182.87 240.966C179.283 240.966 176.375 237.852 176.375 234.011C176.375 230.17 179.283 227.056 182.87 227.056C182.913 227.056 182.957 227.056 183 227.056V221.198C182.957 221.198 182.913 221.198 182.87 221.198C179.283 221.198 176.375 218.084 176.375 214.243C176.375 210.403 179.283 207.289 182.87 207.289C182.913 207.289 182.957 207.289 183 207.289V201.431C182.957 201.431 182.913 201.431 182.87 201.431C179.283 201.431 176.375 198.317 176.375 194.476C176.375 190.635 179.283 187.521 182.87 187.521C182.913 187.521 182.957 187.521 183 187.521V181.664C182.957 181.664 182.913 181.664 182.87 181.664C179.283 181.664 176.375 178.549 176.375 174.709C176.375 170.868 179.283 167.754 182.87 167.754C182.913 167.754 182.957 167.754 183 167.754V161.896C182.957 161.896 182.913 161.896 182.87 161.896C179.283 161.896 176.375 158.782 176.375 154.941C176.375 151.101 179.283 147.986 182.87 147.986C182.913 147.986 182.957 147.986 183 147.986V142.129C182.957 142.129 182.913 142.129 182.87 142.129C179.283 142.129 176.375 139.014 176.375 135.174C176.375 131.333 179.283 128.219 182.87 128.219C182.913 128.219 182.957 128.219 183 128.219V122.361C182.957 122.361 182.913 122.361 182.87 122.361C179.283 122.361 176.375 119.247 176.375 115.406C176.375 111.566 179.283 108.452 182.87 108.452C182.913 108.452 182.957 108.452 183 108.452V102.594C182.957 102.594 182.913 102.594 182.87 102.594C179.283 102.594 176.375 99.4797 176.375 95.639C176.375 91.7984 179.283 88.6841 182.87 88.6841C182.913 88.6841 182.957 88.6841 183 88.6841V82.8265C182.957 82.8265 182.913 82.8265 182.87 82.8265C179.283 82.8265 176.375 79.7122 176.375 75.8716C176.375 72.0309 179.283 68.9167 182.87 68.9167C182.913 68.9167 182.957 68.9167 183 68.9167V63.0591C182.957 63.0591 182.913 63.0591 182.87 63.0591C179.283 63.0591 176.375 59.9448 176.375 56.1042C176.375 52.2635 179.283 49.1493 182.87 49.1493C182.913 49.1493 182.957 49.1493 183 49.1493V43.2917C182.957 43.2917 182.913 43.2917 182.87 43.2917C179.283 43.2917 176.375 40.1774 176.375 36.3368C176.375 32.4961 179.283 29.3819 182.87 29.3819C182.913 29.3819 182.957 29.3819 183 29.3819V23.5243C179.471 23.447 176.635 20.3714 176.635 16.5771C176.635 12.7828 179.471 9.70722 183 9.62994V3.2005H176.368C176.368 3.24686 176.368 3.29322 176.368 3.33959C176.368 7.18025 173.459 10.2945 169.872 10.2945C166.285 10.2945 163.377 7.18025 163.377 3.33959C163.377 3.29322 163.377 3.24686 163.377 3.2005H156.881C156.809 6.97933 153.937 10.0163 150.393 10.0163C146.85 10.0163 143.977 6.97933 143.905 3.2005H137.41C137.338 6.97933 134.465 10.0163 130.922 10.0163C127.378 10.0163 124.506 6.97933 124.433 3.2005H117.938C117.866 6.97933 114.994 10.0163 111.45 10.0163C107.906 10.0163 105.034 6.97933 104.962 3.2005H98.4665C98.3943 6.97933 95.5219 10.0163 91.9783 10.0163C88.4348 10.0163 85.5624 6.97933 85.4902 3.2005H78.9948C78.9227 6.97933 76.0503 10.0163 72.5067 10.0163C68.9631 10.0163 66.0907 6.97933 66.0186 3.2005H59.5232C59.451 6.97933 56.5786 10.0163 53.035 10.0163C49.4915 10.0163 46.6191 6.97933 46.5469 3.2005H40.0515C39.9794 6.97933 37.107 10.0163 33.5634 10.0163C30.0198 10.0163 27.1474 6.97933 27.0753 3.2005H20.5799C20.5077 6.97933 17.6353 10.0163 14.0918 10.0163C10.5482 10.0163 7.67579 6.97933 7.60362 3.2005L7.50258 3.38596Z" stroke="#24372C" stroke-width="1.2757"/>
<path d="M40.2643 205.303L38.1875 198.25C38.1127 197.988 38.1875 197.819 38.4682 197.819H39.0482C39.2166 197.819 39.3475 197.913 39.385 198.025L40.7508 202.965H40.7695L42.8838 197.819C42.9212 197.726 43.0335 197.632 43.2019 197.632H43.2954C43.4638 197.632 43.5761 197.726 43.6135 197.819L45.709 202.983H45.7278L47.0749 198.025C47.1123 197.913 47.2433 197.819 47.393 197.819H47.973C48.2536 197.819 48.3285 197.988 48.2536 198.25L46.2142 205.303C46.1768 205.416 46.0458 205.491 45.8961 205.491H45.8026C45.6342 205.491 45.5219 205.397 45.4845 205.303L43.2019 199.69L40.994 205.303C40.9566 205.397 40.8444 205.491 40.676 205.491H40.5824C40.414 205.491 40.3018 205.416 40.2643 205.303ZM51.1821 194.358C50.6956 194.358 50.3027 193.965 50.3027 193.479C50.3027 192.973 50.6956 192.58 51.1821 192.58C51.6873 192.58 52.0802 192.973 52.0802 193.479C52.0802 193.965 51.6873 194.358 51.1821 194.358ZM50.5647 204.948V198.175C50.5647 197.988 50.733 197.819 50.9201 197.819H51.5002C51.6873 197.819 51.8557 197.988 51.8557 198.175V204.948C51.8557 205.135 51.6873 205.303 51.5002 205.303H50.9201C50.733 205.303 50.5647 205.135 50.5647 204.948ZM55.372 203.432V198.942H54.4178C54.212 198.942 54.0623 198.774 54.0623 198.586V198.175C54.0623 197.969 54.212 197.819 54.4178 197.819H55.372V195.743C55.372 195.555 55.5404 195.387 55.7275 195.387L56.3262 195.35C56.5133 195.35 56.663 195.518 56.663 195.705V197.819H58.8334C59.0392 197.819 59.1889 197.969 59.1889 198.175V198.586C59.1889 198.774 59.0392 198.942 58.8334 198.942H56.663V203.32C56.663 204.069 56.8501 204.218 57.2805 204.218C57.7482 204.218 58.4031 203.938 58.6463 203.807C58.927 203.657 59.0018 203.769 59.0954 203.919L59.376 204.387C59.507 204.611 59.4509 204.723 59.2451 204.854C58.9831 205.023 57.9728 205.491 57.0934 205.491C55.5965 205.491 55.372 204.592 55.372 203.432ZM61.6736 204.948V192.562C61.6736 192.375 61.842 192.206 62.0291 192.206H62.6091C62.7962 192.206 62.9646 192.375 62.9646 192.562V198.624C62.9646 198.624 63.9562 197.632 65.4718 197.632C67.3241 197.632 68.3719 198.811 68.3719 201V204.948C68.3719 205.135 68.2035 205.303 68.0164 205.303H67.4176C67.2305 205.303 67.0621 205.135 67.0621 204.948V201C67.0621 199.578 66.426 198.886 65.3782 198.886C63.9562 198.886 62.9646 199.934 62.9646 199.934V204.948C62.9646 205.135 62.7962 205.303 62.6091 205.303H62.0291C61.842 205.303 61.6736 205.135 61.6736 204.948ZM39.4785 222.948V210.562C39.4785 210.375 39.6282 210.206 39.834 210.206H47.2059C47.4117 210.206 47.5614 210.375 47.5614 210.562V211.104C47.5614 211.291 47.4117 211.46 47.2059 211.46H40.9192V216.025H46.2891C46.4762 216.025 46.6446 216.194 46.6446 216.381V216.923C46.6446 217.129 46.4762 217.279 46.2891 217.279H40.9192V222.05H47.2059C47.4117 222.05 47.5614 222.218 47.5614 222.405V222.948C47.5614 223.135 47.4117 223.303 47.2059 223.303H39.834C39.6282 223.303 39.4785 223.135 39.4785 222.948ZM49.5631 222.817L52.0141 219.487L49.6379 216.306C49.4508 216.063 49.5631 215.819 49.8811 215.819H50.667C50.7979 215.819 50.9102 215.894 50.9663 215.969L52.7438 218.514H52.7625L54.6148 215.969C54.671 215.894 54.7832 215.819 54.9142 215.819H55.7C56.0181 215.819 56.1304 216.063 55.9433 216.306L53.5671 219.468L55.962 222.817C56.1304 223.06 56.0181 223.303 55.7187 223.303H55.0265C54.9142 223.303 54.8019 223.21 54.7458 223.135L52.7625 220.385H52.7438L50.7979 223.154C50.7418 223.229 50.6296 223.303 50.4986 223.303H49.8063C49.4882 223.303 49.3947 223.06 49.5631 222.817ZM59.6852 222.873V228.561C59.6852 228.748 59.5168 228.917 59.3297 228.917H58.7497C58.5626 228.917 58.3942 228.748 58.3942 228.561V216.175C58.3942 215.988 58.5626 215.819 58.7497 215.819H59.1426C59.311 215.819 59.3671 215.875 59.4419 216.063L59.5729 216.418C59.5729 216.418 60.3962 215.632 61.7433 215.632C63.7827 215.632 65.2796 217.428 65.2796 219.58C65.2796 221.769 63.7453 223.491 61.6872 223.491C60.4523 223.491 59.6852 222.873 59.6852 222.873ZM59.7039 221.582C59.7039 221.582 60.4897 222.237 61.5188 222.237C62.9595 222.237 63.9698 221.058 63.9698 219.561C63.9698 218.102 63.1092 216.811 61.6123 216.811C60.3962 216.811 59.7039 217.728 59.7039 217.728V221.582ZM67.7759 222.948V216.175C67.7759 215.988 67.9443 215.819 68.1314 215.819H68.4869C68.6366 215.819 68.7676 215.913 68.805 216.081L68.9547 216.624C68.9547 216.624 69.6469 215.632 71.1999 215.632C71.7612 215.632 72.6967 215.726 72.5096 216.25L72.2851 216.886C72.1915 217.129 72.0231 217.129 71.836 217.054C71.6677 216.979 71.387 216.905 71.1063 216.905C69.6844 216.905 69.0669 217.952 69.0669 217.952V222.948C69.0669 223.135 68.8985 223.303 68.7114 223.303H68.1314C67.9443 223.303 67.7759 223.135 67.7759 222.948ZM73.8016 219.561C73.8016 217.447 75.2049 215.632 77.4689 215.632C79.4334 215.632 80.8554 217.092 80.8554 219.056C80.8554 219.187 80.8367 219.43 80.818 219.561C80.7993 219.749 80.6496 219.879 80.4812 219.879H75.0927C75.1675 221.133 76.2714 222.312 77.5998 222.312C78.3857 222.312 79.0218 222.012 79.4522 221.751C79.7141 221.601 79.8264 221.507 79.976 221.713C80.0883 221.863 80.1819 221.994 80.2941 222.143C80.4251 222.312 80.4999 222.424 80.2193 222.63C79.7702 222.985 78.7599 223.491 77.4689 223.491C75.2049 223.491 73.8016 221.713 73.8016 219.561ZM75.1114 218.832H79.5644C79.5083 217.747 78.6102 216.774 77.4689 216.774C76.2153 216.774 75.2423 217.672 75.1114 218.832ZM82.9141 222.649C82.8206 222.574 82.7645 222.387 82.8206 222.256C82.8954 222.143 83.0264 221.881 83.0825 221.788C83.1761 221.638 83.3819 221.601 83.5877 221.732C83.5877 221.732 84.3923 222.387 85.3465 222.387C86.1136 222.387 86.5626 221.994 86.5626 221.489C86.5626 220.834 86.0013 220.534 84.9161 219.992C83.9245 219.505 82.7832 218.85 82.7832 217.578C82.7832 216.792 83.4193 215.632 85.1594 215.632C86.1323 215.632 86.8807 215.969 87.2362 216.212C87.4046 216.325 87.4607 216.586 87.3485 216.792L87.1988 217.092C87.0865 217.297 86.8246 217.354 86.6562 217.26C86.6562 217.26 85.8517 216.811 85.1594 216.811C84.3174 216.811 84.0929 217.241 84.0929 217.559C84.0929 218.177 84.7103 218.458 85.4774 218.832C86.7685 219.449 87.9285 220.029 87.9285 221.376C87.9285 222.462 86.8807 223.491 85.3465 223.491C84.0929 223.491 83.3258 222.967 82.9141 222.649ZM89.9575 222.649C89.864 222.574 89.8079 222.387 89.864 222.256C89.9388 222.143 90.0698 221.881 90.1259 221.788C90.2195 221.638 90.4253 221.601 90.6311 221.732C90.6311 221.732 91.4356 222.387 92.3899 222.387C93.157 222.387 93.606 221.994 93.606 221.489C93.606 220.834 93.0447 220.534 91.9595 219.992C90.9679 219.505 89.8266 218.85 89.8266 217.578C89.8266 216.792 90.4627 215.632 92.2028 215.632C93.1757 215.632 93.9241 215.969 94.2796 216.212C94.448 216.325 94.5041 216.586 94.3919 216.792L94.2422 217.092C94.1299 217.297 93.868 217.354 93.6996 217.26C93.6996 217.26 92.895 216.811 92.2028 216.811C91.3608 216.811 91.1363 217.241 91.1363 217.559C91.1363 218.177 91.7537 218.458 92.5208 218.832C93.8119 219.449 94.9719 220.029 94.9719 221.376C94.9719 222.462 93.9241 223.491 92.3899 223.491C91.1363 223.491 90.3692 222.967 89.9575 222.649ZM38.3559 237.543C38.3559 235.354 39.703 233.632 41.9483 233.632C43.1832 233.632 43.9503 234.119 43.9503 234.119V228.562C43.9503 228.375 44.1187 228.206 44.3058 228.206H44.8858C45.0729 228.206 45.2413 228.375 45.2413 228.562V240.948C45.2413 241.135 45.0729 241.303 44.8858 241.303H44.4929C44.3245 241.303 44.2122 241.172 44.1748 241.004L44.0625 240.499C44.0625 240.499 43.1644 241.491 41.7612 241.491C39.8527 241.491 38.3559 239.694 38.3559 237.543ZM39.6656 237.561C39.6656 239.021 40.5263 240.312 41.8921 240.312C43.2393 240.312 43.9316 239.077 43.9316 239.077V235.335C43.9316 235.335 43.1457 234.886 42.1167 234.886C40.4889 234.886 39.6656 236.065 39.6656 237.561ZM47.7564 237.561C47.7564 235.447 49.1596 233.632 51.4236 233.632C53.3881 233.632 54.8101 235.092 54.8101 237.056C54.8101 237.187 54.7914 237.43 54.7727 237.561C54.754 237.749 54.6043 237.879 54.4359 237.879H49.0474C49.1222 239.133 50.2261 240.312 51.5545 240.312C52.3404 240.312 52.9765 240.012 53.4069 239.751C53.6688 239.601 53.7811 239.507 53.9307 239.713C54.043 239.863 54.1366 239.994 54.2488 240.143C54.3798 240.312 54.4546 240.424 54.174 240.63C53.7249 240.985 52.7146 241.491 51.4236 241.491C49.1596 241.491 47.7564 239.713 47.7564 237.561ZM49.0661 236.832H53.5191C53.463 235.747 52.5649 234.774 51.4236 234.774C50.17 234.774 49.197 235.672 49.0661 236.832ZM57.2431 240.948V228.562C57.2431 228.375 57.4114 228.206 57.5985 228.206H58.1786C58.3657 228.206 58.5341 228.375 58.5341 228.562V240.948C58.5341 241.135 58.3657 241.303 58.1786 241.303H57.5985C57.4114 241.303 57.2431 241.135 57.2431 240.948ZM62.1992 230.358C61.7128 230.358 61.3198 229.965 61.3198 229.479C61.3198 228.973 61.7128 228.58 62.1992 228.58C62.7044 228.58 63.0973 228.973 63.0973 229.479C63.0973 229.965 62.7044 230.358 62.1992 230.358ZM61.5818 240.948V234.175C61.5818 233.988 61.7502 233.819 61.9373 233.819H62.5173C62.7044 233.819 62.8728 233.988 62.8728 234.175V240.948C62.8728 241.135 62.7044 241.303 62.5173 241.303H61.9373C61.7502 241.303 61.5818 241.135 61.5818 240.948ZM68.0357 241.303L64.8736 234.25C64.7614 234.006 64.8736 233.819 65.1543 233.819H65.7343C65.9027 233.819 66.015 233.913 66.0711 234.025L68.3912 239.376H68.4099L70.8796 234.025C70.9358 233.913 71.048 233.819 71.1977 233.819H71.6842C71.9648 233.819 72.0771 234.006 71.9648 234.25L68.7654 241.303C68.7279 241.397 68.6157 241.491 68.4473 241.491H68.3537C68.1853 241.491 68.0731 241.397 68.0357 241.303ZM73.4267 237.561C73.4267 235.447 74.83 233.632 77.0939 233.632C79.0585 233.632 80.4805 235.092 80.4805 237.056C80.4805 237.187 80.4618 237.43 80.4431 237.561C80.4244 237.749 80.2747 237.879 80.1063 237.879H74.7177C74.7926 239.133 75.8965 240.312 77.2249 240.312C78.0107 240.312 78.6469 240.012 79.0772 239.751C79.3392 239.601 79.4514 239.507 79.6011 239.713C79.7134 239.863 79.8069 239.994 79.9192 240.143C80.0502 240.312 80.125 240.424 79.8443 240.63C79.3953 240.985 78.3849 241.491 77.0939 241.491C74.83 241.491 73.4267 239.713 73.4267 237.561ZM74.7364 236.832H79.1895C79.1333 235.747 78.2353 234.774 77.0939 234.774C75.8403 234.774 74.8674 235.672 74.7364 236.832ZM82.8947 240.948V234.175C82.8947 233.988 83.0631 233.819 83.2502 233.819H83.6057C83.7554 233.819 83.8863 233.913 83.9238 234.081L84.0734 234.624C84.0734 234.624 84.7657 233.632 86.3187 233.632C86.88 233.632 87.8155 233.726 87.6284 234.25L87.4039 234.886C87.3103 235.129 87.1419 235.129 86.9548 235.054C86.7864 234.979 86.5058 234.905 86.2251 234.905C84.8031 234.905 84.1857 235.952 84.1857 235.952V240.948C84.1857 241.135 84.0173 241.303 83.8302 241.303H83.2502C83.0631 241.303 82.8947 241.135 82.8947 240.948ZM92.0594 241.285L88.5793 234.231C88.467 233.988 88.5793 233.819 88.8599 233.819H89.6832C89.8329 233.819 89.9451 233.913 90.0012 234.025L92.7704 239.751H92.7891L95.4085 234.025C95.4646 233.913 95.5956 233.819 95.7266 233.819H96.4376C96.7182 233.819 96.8492 234.006 96.7182 234.25L90.9742 246.692C90.918 246.804 90.7871 246.917 90.6561 246.917H89.9638C89.6832 246.917 89.5335 246.711 89.6645 246.449L92.0594 241.285Z" fill="#24372C"/>
<path d="M37.5701 179.247H154.084" stroke="#24372C" stroke-width="1.2757"/>
<path d="M126 234H152.5" stroke="#EA5E57" stroke-width="0.75"/>
<path d="M144.072 244C143.631 240.667 144.999 234 154 234" stroke="#EA5E57" stroke-width="0.75"/>
<path d="M143.072 225C142.631 228 143.999 234 153 234" stroke="#EA5E57" stroke-width="0.75"/>
<path d="M53.1422 33.114C53.1422 30.314 55.3682 28.06 58.1682 28.06C60.9682 28.06 63.2082 30.314 63.2082 33.114C63.2082 35.914 60.9682 38.14 58.1682 38.14C55.3682 38.14 53.1422 35.914 53.1422 33.114ZM54.9622 33.114C54.9622 34.878 56.4042 36.32 58.1682 36.32C59.9322 36.32 61.3882 34.878 61.3882 33.114C61.3882 31.35 59.9322 29.88 58.1682 29.88C56.4042 29.88 54.9622 31.35 54.9622 33.114ZM67.8394 37.734V28.466C67.8394 28.326 67.9514 28.2 68.1054 28.2H72.1094C73.7894 28.2 75.1614 29.544 75.1614 31.21C75.1614 32.498 74.3074 33.548 73.0894 34.038L75.0074 37.594C75.1054 37.776 75.0074 38 74.7694 38H73.2994C73.1734 38 73.1034 37.93 73.0754 37.874L71.2134 34.164H69.6594V37.734C69.6594 37.874 69.5334 38 69.3934 38H68.1054C67.9514 38 67.8394 37.874 67.8394 37.734ZM69.6734 32.666H71.9554C72.6974 32.666 73.3414 32.022 73.3414 31.238C73.3414 30.496 72.6974 29.88 71.9554 29.88H69.6734V32.666ZM79.9636 37.734V28.466C79.9636 28.326 80.0756 28.2 80.2156 28.2H83.5336C86.2357 28.2 88.4476 30.398 88.4476 33.086C88.4476 35.802 86.2357 38 83.5336 38H80.2156C80.0756 38 79.9636 37.874 79.9636 37.734ZM81.7696 36.292H83.3656C85.1856 36.292 86.5156 34.92 86.5156 33.086C86.5156 31.266 85.1856 29.894 83.3656 29.894H81.7696V36.292ZM93.0996 37.734V28.466C93.0996 28.326 93.2116 28.2 93.3656 28.2H99.0636C99.2176 28.2 99.3296 28.326 99.3296 28.466V29.614C99.3296 29.754 99.2176 29.88 99.0636 29.88H94.9196V32.176H98.3776C98.5176 32.176 98.6436 32.302 98.6436 32.442V33.604C98.6436 33.758 98.5176 33.87 98.3776 33.87H94.9196V36.32H99.0636C99.2176 36.32 99.3296 36.446 99.3296 36.586V37.734C99.3296 37.874 99.2176 38 99.0636 38H93.3656C93.2116 38 93.0996 37.874 93.0996 37.734ZM104.13 37.734V28.466C104.13 28.326 104.242 28.2 104.396 28.2H108.4C110.08 28.2 111.452 29.544 111.452 31.21C111.452 32.498 110.598 33.548 109.38 34.038L111.298 37.594C111.396 37.776 111.298 38 111.06 38H109.59C109.464 38 109.394 37.93 109.366 37.874L107.504 34.164H105.95V37.734C105.95 37.874 105.824 38 105.684 38H104.396C104.242 38 104.13 37.874 104.13 37.734ZM105.964 32.666H108.246C108.988 32.666 109.632 32.022 109.632 31.238C109.632 30.496 108.988 29.88 108.246 29.88H105.964V32.666ZM122.144 37.734V28.466C122.144 28.326 122.256 28.2 122.41 28.2H125.616C127.282 28.2 128.57 29.32 128.57 30.79C128.57 31.868 127.688 32.708 127.03 33.016C127.772 33.254 128.85 34.01 128.85 35.298C128.85 36.866 127.506 38 125.798 38H122.41C122.256 38 122.144 37.874 122.144 37.734ZM123.95 32.316H125.448C126.162 32.316 126.652 31.756 126.652 31.056C126.652 30.356 126.162 29.866 125.448 29.866H123.95V32.316ZM123.95 36.348H125.644C126.344 36.348 126.904 35.802 126.904 35.074C126.904 34.374 126.204 33.856 125.476 33.856H123.95V36.348ZM135.42 37.734V33.282L132.228 28.606C132.116 28.424 132.228 28.2 132.452 28.2H133.88C133.992 28.2 134.062 28.27 134.104 28.326L136.344 31.546L138.584 28.326C138.626 28.27 138.696 28.2 138.808 28.2H140.25C140.474 28.2 140.586 28.424 140.474 28.606L137.24 33.268V37.734C137.24 37.874 137.114 38 136.974 38H135.686C135.532 38 135.42 37.874 135.42 37.734ZM50.6019 53.734V44.466C50.6019 44.326 50.7139 44.2 50.8539 44.2H54.1719C56.8739 44.2 59.0859 46.398 59.0859 49.086C59.0859 51.802 56.8739 54 54.1719 54H50.8539C50.7139 54 50.6019 53.874 50.6019 53.734ZM52.4079 52.292H54.0039C55.8239 52.292 57.1539 50.92 57.1539 49.086C57.1539 47.266 55.8239 45.894 54.0039 45.894H52.4079V52.292ZM63.7379 53.734V44.466C63.7379 44.326 63.8499 44.2 64.0039 44.2H69.7019C69.8559 44.2 69.9679 44.326 69.9679 44.466V45.614C69.9679 45.754 69.8559 45.88 69.7019 45.88H65.5579V48.176H69.0159C69.1559 48.176 69.2819 48.302 69.2819 48.442V49.604C69.2819 49.758 69.1559 49.87 69.0159 49.87H65.5579V52.32H69.7019C69.8559 52.32 69.9679 52.446 69.9679 52.586V53.734C69.9679 53.874 69.8559 54 69.7019 54H64.0039C63.8499 54 63.7379 53.874 63.7379 53.734ZM74.0133 49.114C74.0133 46.314 76.2673 44.06 79.0673 44.06C80.4813 44.06 81.5033 44.508 82.4553 45.362C82.5813 45.474 82.5813 45.642 82.4693 45.754L81.6153 46.636C81.5173 46.748 81.3773 46.748 81.2653 46.636C80.6773 46.118 79.8933 45.81 79.1093 45.81C77.3173 45.81 75.9873 47.308 75.9873 49.072C75.9873 50.822 77.3313 52.306 79.1233 52.306C79.9633 52.306 80.6773 51.984 81.2653 51.508C81.3773 51.41 81.5313 51.424 81.6153 51.508L82.4833 52.404C82.5953 52.502 82.5673 52.684 82.4693 52.782C81.5173 53.706 80.3133 54.14 79.0673 54.14C76.2673 54.14 74.0133 51.914 74.0133 49.114ZM87.0976 53.734V44.466C87.0976 44.326 87.2096 44.2 87.3636 44.2H93.0616C93.2156 44.2 93.3276 44.326 93.3276 44.466V45.614C93.3276 45.754 93.2156 45.88 93.0616 45.88H88.9176V48.176H92.3756C92.5156 48.176 92.6416 48.302 92.6416 48.442V49.604C92.6416 49.758 92.5156 49.87 92.3756 49.87H88.9176V52.32H93.0616C93.2156 52.32 93.3276 52.446 93.3276 52.586V53.734C93.3276 53.874 93.2156 54 93.0616 54H87.3636C87.2096 54 87.0976 53.874 87.0976 53.734ZM97.4841 53.678L99.1501 44.27C99.1641 44.158 99.2481 44.06 99.4021 44.06H99.6261C99.7381 44.06 99.8221 44.116 99.8641 44.2L102.944 50.808C102.972 50.808 102.972 50.808 102.986 50.808L106.066 44.2C106.108 44.116 106.178 44.06 106.304 44.06H106.528C106.682 44.06 106.766 44.158 106.78 44.27L108.432 53.678C108.474 53.874 108.362 54 108.18 54H106.906C106.78 54 106.668 53.888 106.64 53.79L105.814 48.484C105.8 48.484 105.772 48.484 105.772 48.484L103.322 53.986C103.294 54.07 103.21 54.14 103.084 54.14H102.832C102.706 54.14 102.636 54.07 102.594 53.986L100.116 48.484C100.116 48.484 100.088 48.484 100.074 48.484L99.2621 53.79C99.2481 53.888 99.1361 54 99.0101 54H97.7501C97.5681 54 97.4561 53.874 97.4841 53.678ZM113.151 53.734V44.466C113.151 44.326 113.263 44.2 113.417 44.2H116.623C118.289 44.2 119.577 45.32 119.577 46.79C119.577 47.868 118.695 48.708 118.037 49.016C118.779 49.254 119.857 50.01 119.857 51.298C119.857 52.866 118.513 54 116.805 54H113.417C113.263 54 113.151 53.874 113.151 53.734ZM114.957 48.316H116.455C117.169 48.316 117.659 47.756 117.659 47.056C117.659 46.356 117.169 45.866 116.455 45.866H114.957V48.316ZM114.957 52.348H116.651C117.351 52.348 117.911 51.802 117.911 51.074C117.911 50.374 117.211 49.856 116.483 49.856H114.957V52.348ZM124.591 53.734V44.466C124.591 44.326 124.703 44.2 124.857 44.2H130.555C130.709 44.2 130.821 44.326 130.821 44.466V45.614C130.821 45.754 130.709 45.88 130.555 45.88H126.411V48.176H129.869C130.009 48.176 130.135 48.302 130.135 48.442V49.604C130.135 49.758 130.009 49.87 129.869 49.87H126.411V52.32H130.555C130.709 52.32 130.821 52.446 130.821 52.586V53.734C130.821 53.874 130.709 54 130.555 54H124.857C124.703 54 124.591 53.874 124.591 53.734ZM135.622 53.734V44.466C135.622 44.326 135.734 44.2 135.888 44.2H139.892C141.572 44.2 142.944 45.544 142.944 47.21C142.944 48.498 142.09 49.548 140.872 50.038L142.79 53.594C142.888 53.776 142.79 54 142.552 54H141.082C140.956 54 140.886 53.93 140.858 53.874L138.996 50.164H137.442V53.734C137.442 53.874 137.316 54 137.176 54H135.888C135.734 54 135.622 53.874 135.622 53.734ZM137.456 48.666H139.738C140.48 48.666 141.124 48.022 141.124 47.238C141.124 46.496 140.48 45.88 139.738 45.88H137.456V48.666Z" fill="#24372C"/>
</svg>
