<svg width="184" height="269" viewBox="0 0 184 269" fill="none" xmlns="http://www.w3.org/2000/svg">
<path d="M144.821 140.199H145.466C145.466 144.587 143.143 149.362 143.014 159.04C132.174 158.395 120.688 158.266 109.848 158.266C104.428 158.266 94.4913 158.395 93.2008 158.395V157.75C105.848 149.362 132.303 124.584 132.303 92.4507C132.303 73.2223 124.56 67.157 115.914 67.157C107.396 67.157 99.7823 74.1257 99.7823 85.8692C99.7823 90.2569 101.718 94.5155 105.461 97.3546C103.267 98.387 101.976 99.0322 100.686 100.194C97.8466 96.5803 96.298 91.6764 96.298 87.4178C96.298 73.3514 104.815 62.5112 118.495 62.5112C130.754 62.5112 142.756 72.1899 142.756 92.8379C142.756 114.26 125.334 131.682 107.654 149.362C117.591 149.491 131.658 150.136 134.497 150.136C141.852 150.136 143.014 148.329 144.821 140.199Z" fill="#EA5E57"/>
<path d="M87.2272 140.199H87.8725C87.8725 144.587 85.5496 149.362 85.4205 159.04C74.5804 158.395 63.095 158.266 52.2548 158.266C46.8347 158.266 36.8979 158.395 35.6074 158.395V157.75C48.2543 149.362 74.7094 124.584 74.7094 92.4507C74.7094 73.2223 66.9665 67.157 58.3201 67.157C49.8029 67.157 42.1889 74.1257 42.1889 85.8692C42.1889 90.2569 44.1247 94.5155 47.8671 97.3546C45.6733 98.387 44.3828 99.0322 43.0923 100.194C40.2532 96.5803 38.7046 91.6764 38.7046 87.4178C38.7046 73.3514 47.2219 62.5112 60.9011 62.5112C73.1608 62.5112 85.1624 72.1899 85.1624 92.8379C85.1624 114.26 67.7408 131.682 50.061 149.362C59.9978 149.491 74.0642 150.136 76.9033 150.136C84.2591 150.136 85.4205 148.329 87.2272 140.199Z" fill="#EA5E57"/>
<path fill-rule="evenodd" clip-rule="evenodd" d="M0.362183 268.334L0.362183 260.103H1.00003C4.19427 260.103 6.85754 257.316 6.85754 253.786C6.85754 250.256 4.19427 247.469 1.00003 247.469H0.362183L0.362183 240.351H1.00003C4.19427 240.351 6.85754 237.564 6.85754 234.034C6.85754 230.504 4.19427 227.717 1.00003 227.717H0.362183L0.362183 220.599H1.00003C4.19427 220.599 6.85754 217.812 6.85754 214.282C6.85754 210.752 4.19427 207.965 1.00003 207.965H0.362183L0.362183 200.847H1.00003C4.19427 200.847 6.85754 198.06 6.85754 194.53C6.85754 191 4.19427 188.213 1.00003 188.213H0.362183L0.362183 181.095H1.00003C4.19427 181.095 6.85754 178.308 6.85754 174.778C6.85754 171.248 4.19427 168.461 1.00003 168.461H0.362183L0.362183 161.343H1.00003C4.19427 161.343 6.85754 158.556 6.85754 155.026C6.85754 151.496 4.19427 148.709 1.00003 148.709H0.362183L0.362183 141.591H1.00003C4.19427 141.591 6.85754 138.805 6.85754 135.274C6.85754 131.744 4.19427 128.957 1.00003 128.957H0.362183L0.362183 121.839H1.00003C4.19427 121.839 6.85754 119.053 6.85754 115.522C6.85754 111.992 4.19427 109.205 1.00003 109.205H0.362183L0.362183 102.088H1.00003C4.19427 102.088 6.85754 99.3006 6.85754 95.7705C6.85754 92.2403 4.19427 89.4534 1.00003 89.4534H0.362183L0.362183 82.3356H1.00003C4.19427 82.3356 6.85754 79.5487 6.85754 76.0185C6.85754 72.4883 4.19427 69.7014 1.00003 69.7014H0.362183L0.362183 62.5836H1.00003C4.19427 62.5836 6.85754 59.7967 6.85754 56.2666C6.85754 52.7364 4.19427 49.9495 1.00003 49.9495H0.362183L0.362183 42.8317H1.00003C4.19427 42.8317 6.85754 40.0448 6.85754 36.5146C6.85754 32.9845 4.19427 30.1976 1.00003 30.1976H0.362183L0.362183 23.0048L1.05672 23.0668C1.14828 23.075 1.20645 23.0797 1.25985 23.0797C4.45409 23.0797 7.11736 20.2928 7.11736 16.7627C7.11736 13.2325 4.45409 10.4456 1.25985 10.4456C1.24975 10.4456 1.23483 10.4465 1.18669 10.4508L1.18093 10.4513C1.14133 10.4549 1.07287 10.4611 1.00003 10.4611H0.362183L0.362183 2.7482H7.12375L8.19541 0.781128L8.24138 3.18842C8.30773 6.66241 10.9369 9.37857 14.0918 9.37857C17.2467 9.37857 19.8758 6.66241 19.9422 3.18842L19.9541 2.56274H27.7011L27.713 3.18842C27.7794 6.66241 30.4085 9.37857 33.5634 9.37857C36.7184 9.37857 39.3475 6.66241 39.4138 3.18842L39.4258 2.56274H47.1727L47.1847 3.18842C47.251 6.66241 49.8802 9.37857 53.0351 9.37857C56.19 9.37857 58.8191 6.66241 58.8855 3.18842L58.8974 2.56274H66.6444L66.6563 3.18842C66.7227 6.66241 69.3518 9.37857 72.5067 9.37857C75.6616 9.37857 78.2908 6.66241 78.3571 3.18842L78.3691 2.56274H86.116L86.128 3.18842C86.1943 6.66241 88.8235 9.37857 91.9784 9.37857C95.1333 9.37857 97.7624 6.66241 97.8288 3.18842L97.8407 2.56274H105.588L105.6 3.18842C105.666 6.66241 108.295 9.37857 111.45 9.37857C114.605 9.37857 117.234 6.66241 117.3 3.18842L117.312 2.56274H125.059L125.071 3.18842C125.138 6.66241 127.767 9.37857 130.922 9.37857C134.077 9.37857 136.706 6.66241 136.772 3.18842L136.784 2.56274H144.531L144.543 3.18842C144.609 6.66241 147.238 9.37857 150.393 9.37857C153.548 9.37857 156.177 6.66241 156.244 3.18842L156.256 2.56274H164.015V3.33969C164.015 6.86984 166.678 9.65674 169.872 9.65674C173.066 9.65674 175.73 6.86984 175.73 3.33969V2.56274H183.638V10.2541L183.014 10.2677C179.869 10.3366 177.272 13.0914 177.272 16.5772C177.272 20.063 179.869 22.8178 183.014 22.8867L183.638 22.9004V30.0198H182.87C179.676 30.0198 177.013 32.8067 177.013 36.3369C177.013 39.867 179.676 42.6539 182.87 42.6539H183.638V49.7872H182.87C179.676 49.7872 177.013 52.5741 177.013 56.1043C177.013 59.6344 179.676 62.4213 182.87 62.4213H183.638V69.5546H182.87C179.676 69.5546 177.013 72.3415 177.013 75.8717C177.013 79.4018 179.676 82.1887 182.87 82.1887H183.638V89.322H182.87C179.676 89.322 177.013 92.1089 177.013 95.6391C177.013 99.1693 179.676 101.956 182.87 101.956H183.638V109.089H182.87C179.676 109.089 177.013 111.876 177.013 115.407C177.013 118.937 179.676 121.724 182.87 121.724H183.638V128.857H182.87C179.676 128.857 177.013 131.644 177.013 135.174C177.013 138.704 179.676 141.491 182.87 141.491H183.638V148.624H182.87C179.676 148.624 177.013 151.411 177.013 154.941C177.013 158.471 179.676 161.258 182.87 161.258H183.638V168.392H182.87C179.676 168.392 177.013 171.179 177.013 174.709C177.013 178.239 179.676 181.026 182.87 181.026H183.638V188.159H182.87C179.676 188.159 177.013 190.946 177.013 194.476C177.013 198.006 179.676 200.793 182.87 200.793H183.638V207.926H182.87C179.676 207.926 177.013 210.713 177.013 214.244C177.013 217.774 179.676 220.561 182.87 220.561H183.638V227.694H182.87C179.676 227.694 177.013 230.481 177.013 234.011C177.013 237.541 179.676 240.328 182.87 240.328H183.638V247.461H182.87C179.676 247.461 177.013 250.248 177.013 253.778C177.013 257.308 179.676 260.095 182.87 260.095H183.638V268.334H175.742L175.73 267.708C175.663 264.234 173.034 261.518 169.879 261.518C166.724 261.518 164.095 264.234 164.029 267.708L164.017 268.334H156.258V267.557C156.258 264.027 153.595 261.24 150.401 261.24C147.206 261.24 144.543 264.027 144.543 267.557V268.334H136.772V267.557C136.772 264.027 134.109 261.24 130.914 261.24C127.72 261.24 125.057 264.027 125.057 267.557V268.334H117.286V267.557C117.286 264.027 114.623 261.24 111.428 261.24C108.234 261.24 105.571 264.027 105.571 267.557V268.334H97.7998V267.557C97.7998 264.027 95.1365 261.24 91.9423 261.24C88.748 261.24 86.0848 264.027 86.0848 267.557V268.334H78.3137V267.557C78.3137 264.027 75.6504 261.24 72.4562 261.24C69.262 261.24 66.5987 264.027 66.5987 267.557V268.334H58.8276V267.557C58.8276 264.027 56.1644 261.24 52.9701 261.24C49.7759 261.24 47.1126 264.027 47.1126 267.557V268.334H39.3416V267.557C39.3416 264.027 36.6783 261.24 33.4841 261.24C30.2898 261.24 27.6265 264.027 27.6265 267.557V268.334H19.8555V267.557C19.8555 264.027 17.1922 261.24 13.998 261.24C10.8037 261.24 8.14046 264.027 8.14046 267.557V268.334H0.362183ZM7.02194 4.0239H1.63788L1.63788 9.1803C5.43726 9.39008 8.39306 12.7439 8.39306 16.7627C8.39306 20.7815 5.43726 24.1353 1.63788 24.345L1.63788 28.9516C5.31135 29.2961 8.13324 32.5879 8.13324 36.5146C8.13324 40.4413 5.31135 43.7331 1.63788 44.0776L1.63788 48.7035C5.31135 49.048 8.13324 52.3398 8.13324 56.2666C8.13324 60.1933 5.31135 63.4851 1.63788 63.8296L1.63788 68.4555C5.31135 68.8 8.13324 72.0918 8.13324 76.0185C8.13324 79.9452 5.31135 83.237 1.63788 83.5815L1.63788 88.2074C5.31135 88.5519 8.13324 91.8437 8.13324 95.7705C8.13324 99.6972 5.31135 102.989 1.63788 103.333L1.63788 107.959C5.31135 108.304 8.13324 111.596 8.13324 115.522C8.13324 119.449 5.31135 122.741 1.63788 123.085L1.63788 127.711C5.31135 128.056 8.13324 131.348 8.13324 135.274C8.13324 139.201 5.31135 142.493 1.63788 142.837L1.63788 147.463C5.31135 147.808 8.13324 151.1 8.13324 155.026C8.13324 158.953 5.31135 162.245 1.63788 162.589L1.63788 167.215C5.31135 167.56 8.13324 170.852 8.13324 174.778C8.13324 178.705 5.31135 181.997 1.63788 182.341L1.63788 186.967C5.31135 187.312 8.13324 190.603 8.13324 194.53C8.13324 198.457 5.31135 201.749 1.63788 202.093L1.63788 206.719C5.31135 207.064 8.13324 210.355 8.13324 214.282C8.13324 218.209 5.31135 221.501 1.63788 221.845L1.63788 226.471C5.31135 226.816 8.13324 230.107 8.13324 234.034C8.13324 237.961 5.31135 241.253 1.63788 241.597L1.63788 246.223C5.31135 246.568 8.13324 249.859 8.13324 253.786C8.13324 257.713 5.31135 261.005 1.63788 261.349L1.63788 267.058H6.88C7.12056 263.134 10.179 259.964 13.998 259.964C17.817 259.964 20.8754 263.134 21.1159 267.058H26.3661C26.6066 263.134 29.6651 259.964 33.4841 259.964C37.303 259.964 40.3615 263.134 40.602 267.058H45.8522C46.0927 263.134 49.1511 259.964 52.9701 259.964C56.7891 259.964 59.8475 263.134 60.0881 267.058H65.3382C65.5788 263.134 68.6372 259.964 72.4562 259.964C76.2752 259.964 79.3336 263.134 79.5742 267.058H84.8243C85.0649 263.134 88.1233 259.964 91.9423 259.964C95.7613 259.964 98.8197 263.134 99.0603 267.058H104.31C104.551 263.134 107.609 259.964 111.428 259.964C115.247 259.964 118.306 263.134 118.546 267.058H123.796C124.037 263.134 127.095 259.964 130.914 259.964C134.733 259.964 137.792 263.134 138.032 267.058H143.283C143.523 263.134 146.582 259.964 150.401 259.964C154.22 259.964 157.278 263.134 157.519 267.058H162.79C163.155 263.263 166.15 260.242 169.879 260.242C173.609 260.242 176.604 263.263 176.969 267.058H182.362V261.352C178.626 261.074 175.737 257.751 175.737 253.778C175.737 249.805 178.626 246.482 182.362 246.204V241.585C178.626 241.307 175.737 237.984 175.737 234.011C175.737 230.038 178.626 226.715 182.362 226.437V221.817C178.626 221.539 175.737 218.216 175.737 214.244C175.737 210.271 178.626 206.948 182.362 206.67V202.05C178.626 201.772 175.737 198.449 175.737 194.476C175.737 190.503 178.626 187.18 182.362 186.902V182.283C178.626 182.005 175.737 178.682 175.737 174.709C175.737 170.736 178.626 167.413 182.362 167.135V162.515C178.626 162.237 175.737 158.914 175.737 154.941C175.737 150.968 178.626 147.645 182.362 147.367V142.748C178.626 142.47 175.737 139.147 175.737 135.174C175.737 131.201 178.626 127.878 182.362 127.6V122.98C178.626 122.702 175.737 119.379 175.737 115.407C175.737 111.434 178.626 108.111 182.362 107.833V103.213C178.626 102.935 175.737 99.612 175.737 95.6391C175.737 91.6662 178.626 88.3432 182.362 88.0652V83.4456C178.626 83.1675 175.737 79.8446 175.737 75.8717C175.737 71.8988 178.626 68.5758 182.362 68.2977V63.6782C178.626 63.4001 175.737 60.0772 175.737 56.1043C175.737 52.1314 178.626 48.8084 182.362 48.5303V43.9108C178.626 43.6327 175.737 40.3098 175.737 36.3369C175.737 32.364 178.626 29.041 182.362 28.7629V24.1199C178.751 23.7089 175.997 20.4593 175.997 16.5772C175.997 12.6951 178.751 9.44547 182.362 9.03452V3.83844H176.99C176.75 7.76291 173.691 10.9324 169.872 10.9324C166.053 10.9324 162.995 7.76291 162.754 3.83844H157.483C157.118 7.63385 154.123 10.6543 150.393 10.6543C146.664 10.6543 143.669 7.63385 143.303 3.83844H138.012C137.646 7.63385 134.651 10.6543 130.922 10.6543C127.192 10.6543 124.197 7.63385 123.832 3.83844H118.54C118.174 7.63385 115.179 10.6543 111.45 10.6543C107.721 10.6543 104.726 7.63385 104.36 3.83844H99.0683C98.7027 7.63385 95.7078 10.6543 91.9784 10.6543C88.2489 10.6543 85.254 7.63385 84.8885 3.83844H79.5966C79.2311 7.63385 76.2362 10.6543 72.5067 10.6543C68.7773 10.6543 65.7824 7.63385 65.4168 3.83844H60.125C59.7594 7.63385 56.7645 10.6543 53.0351 10.6543C49.3056 10.6543 46.3107 7.63385 45.9452 3.83844H40.6533C40.2878 7.63385 37.2929 10.6543 33.5634 10.6543C29.834 10.6543 26.8391 7.63385 26.4736 3.83844H21.1817C20.8161 7.63385 17.8212 10.6543 14.0918 10.6543C10.4233 10.6543 7.46554 7.73178 7.02194 4.0239Z" fill="#24372C"/>
<path d="M92.0594 241.285L88.5793 234.231C88.467 233.988 88.5793 233.819 88.8599 233.819H89.6832C89.8329 233.819 89.9451 233.913 90.0013 234.025L92.7704 239.75H92.7891L95.4085 234.025C95.4647 233.913 95.5956 233.819 95.7266 233.819H96.4376C96.7182 233.819 96.8492 234.006 96.7182 234.25L90.9742 246.692C90.9181 246.804 90.7871 246.917 90.6561 246.917H89.9638C89.6832 246.917 89.5335 246.711 89.6645 246.449L92.0594 241.285Z" fill="#24372C"/>
<path d="M82.8948 240.948V234.175C82.8948 233.988 83.0632 233.819 83.2503 233.819H83.6058C83.7554 233.819 83.8864 233.913 83.9238 234.081L84.0735 234.624C84.0735 234.624 84.7658 233.632 86.3188 233.632C86.8801 233.632 87.8156 233.726 87.6285 234.25L87.404 234.886C87.3104 235.129 87.142 235.129 86.9549 235.054C86.7865 234.979 86.5059 234.905 86.2252 234.905C84.8032 234.905 84.1858 235.952 84.1858 235.952V240.948C84.1858 241.135 84.0174 241.304 83.8303 241.304H83.2503C83.0632 241.304 82.8948 241.135 82.8948 240.948Z" fill="#24372C"/>
<path d="M73.4268 237.561C73.4268 235.447 74.83 233.632 77.094 233.632C79.0586 233.632 80.4805 235.092 80.4805 237.056C80.4805 237.187 80.4618 237.431 80.4431 237.561C80.4244 237.749 80.2747 237.88 80.1063 237.88H74.7178C74.7926 239.133 75.8965 240.312 77.2249 240.312C78.0108 240.312 78.6469 240.013 79.0773 239.751C79.3392 239.601 79.4515 239.507 79.6012 239.713C79.7134 239.863 79.807 239.994 79.9192 240.144C80.0502 240.312 80.125 240.424 79.8444 240.63C79.3953 240.985 78.385 241.491 77.094 241.491C74.83 241.491 73.4268 239.713 73.4268 237.561ZM74.7365 236.832H79.1895C79.1334 235.747 78.2353 234.774 77.094 234.774C75.8404 234.774 74.8674 235.672 74.7365 236.832Z" fill="#24372C"/>
<path d="M68.0356 241.303L64.8736 234.25C64.7613 234.006 64.8736 233.819 65.1542 233.819H65.7343C65.9027 233.819 66.0149 233.913 66.071 234.025L68.3911 239.376H68.4098L70.8796 234.025C70.9357 233.913 71.048 233.819 71.1977 233.819H71.6841C71.9648 233.819 72.077 234.006 71.9648 234.25L68.7653 241.303C68.7279 241.397 68.6156 241.491 68.4472 241.491H68.3537C68.1853 241.491 68.073 241.397 68.0356 241.303Z" fill="#24372C"/>
<path d="M62.1992 230.358C61.7127 230.358 61.3198 229.965 61.3198 229.479C61.3198 228.973 61.7127 228.581 62.1992 228.581C62.7044 228.581 63.0973 228.973 63.0973 229.479C63.0973 229.965 62.7044 230.358 62.1992 230.358ZM61.5818 240.948V234.175C61.5818 233.988 61.7502 233.819 61.9373 233.819H62.5173C62.7044 233.819 62.8728 233.988 62.8728 234.175V240.948C62.8728 241.135 62.7044 241.304 62.5173 241.304H61.9373C61.7502 241.304 61.5818 241.135 61.5818 240.948Z" fill="#24372C"/>
<path d="M57.243 240.948V228.562C57.243 228.375 57.4114 228.206 57.5985 228.206H58.1786C58.3657 228.206 58.5341 228.375 58.5341 228.562V240.948C58.5341 241.135 58.3657 241.303 58.1786 241.303H57.5985C57.4114 241.303 57.243 241.135 57.243 240.948Z" fill="#24372C"/>
<path d="M47.7563 237.561C47.7563 235.447 49.1596 233.632 51.4236 233.632C53.3881 233.632 54.8101 235.092 54.8101 237.056C54.8101 237.187 54.7914 237.431 54.7727 237.561C54.754 237.749 54.6043 237.88 54.4359 237.88H49.0474C49.1222 239.133 50.2261 240.312 51.5545 240.312C52.3404 240.312 52.9765 240.013 53.4069 239.751C53.6688 239.601 53.7811 239.507 53.9307 239.713C54.043 239.863 54.1366 239.994 54.2488 240.144C54.3798 240.312 54.4546 240.424 54.174 240.63C53.7249 240.985 52.7146 241.491 51.4236 241.491C49.1596 241.491 47.7563 239.713 47.7563 237.561ZM49.0661 236.832H53.5191C53.463 235.747 52.5649 234.774 51.4236 234.774C50.17 234.774 49.197 235.672 49.0661 236.832Z" fill="#24372C"/>
<path d="M38.356 237.543C38.356 235.354 39.7031 233.632 41.9483 233.632C43.1832 233.632 43.9503 234.119 43.9503 234.119V228.562C43.9503 228.375 44.1187 228.206 44.3058 228.206H44.8858C45.0729 228.206 45.2413 228.375 45.2413 228.562V240.948C45.2413 241.135 45.0729 241.303 44.8858 241.303H44.4929C44.3245 241.303 44.2123 241.173 44.1749 241.004L44.0626 240.499C44.0626 240.499 43.1645 241.491 41.7612 241.491C39.8528 241.491 38.356 239.694 38.356 237.543ZM39.6657 237.561C39.6657 239.021 40.5263 240.312 41.8922 240.312C43.2393 240.312 43.9316 239.077 43.9316 239.077V235.335C43.9316 235.335 43.1458 234.886 42.1167 234.886C40.4889 234.886 39.6657 236.065 39.6657 237.561Z" fill="#24372C"/>
<path d="M89.9575 222.649C89.864 222.574 89.8078 222.387 89.864 222.256C89.9388 222.144 90.0698 221.882 90.1259 221.788C90.2195 221.638 90.4253 221.601 90.6311 221.732C90.6311 221.732 91.4356 222.387 92.3898 222.387C93.157 222.387 93.606 221.994 93.606 221.489C93.606 220.834 93.0447 220.534 91.9595 219.992C90.9679 219.505 89.8265 218.85 89.8265 217.578C89.8265 216.792 90.4627 215.632 92.2027 215.632C93.1757 215.632 93.9241 215.969 94.2796 216.212C94.448 216.325 94.5041 216.587 94.3918 216.792L94.2422 217.092C94.1299 217.298 93.868 217.354 93.6996 217.26C93.6996 217.26 92.895 216.811 92.2027 216.811C91.3608 216.811 91.1363 217.241 91.1363 217.559C91.1363 218.177 91.7537 218.458 92.5208 218.832C93.8118 219.449 94.9719 220.029 94.9719 221.376C94.9719 222.462 93.9241 223.491 92.3898 223.491C91.1363 223.491 90.3691 222.967 89.9575 222.649Z" fill="#24372C"/>
<path d="M82.9142 222.649C82.8206 222.574 82.7645 222.387 82.8206 222.256C82.8955 222.144 83.0264 221.882 83.0826 221.788C83.1761 221.638 83.3819 221.601 83.5877 221.732C83.5877 221.732 84.3923 222.387 85.3465 222.387C86.1136 222.387 86.5627 221.994 86.5627 221.489C86.5627 220.834 86.0014 220.534 84.9162 219.992C83.9245 219.505 82.7832 218.85 82.7832 217.578C82.7832 216.792 83.4194 215.632 85.1594 215.632C86.1323 215.632 86.8808 215.969 87.2363 216.212C87.4046 216.325 87.4608 216.587 87.3485 216.792L87.1988 217.092C87.0866 217.298 86.8246 217.354 86.6562 217.26C86.6562 217.26 85.8517 216.811 85.1594 216.811C84.3174 216.811 84.0929 217.241 84.0929 217.559C84.0929 218.177 84.7104 218.458 85.4775 218.832C86.7685 219.449 87.9285 220.029 87.9285 221.376C87.9285 222.462 86.8808 223.491 85.3465 223.491C84.0929 223.491 83.3258 222.967 82.9142 222.649Z" fill="#24372C"/>
<path d="M73.8016 219.561C73.8016 217.447 75.2049 215.632 77.4688 215.632C79.4334 215.632 80.8554 217.092 80.8554 219.056C80.8554 219.187 80.8367 219.431 80.818 219.561C80.7993 219.749 80.6496 219.88 80.4812 219.88H75.0926C75.1675 221.133 76.2714 222.312 77.5998 222.312C78.3857 222.312 79.0218 222.013 79.4521 221.751C79.7141 221.601 79.8263 221.507 79.976 221.713C80.0883 221.863 80.1818 221.994 80.2941 222.144C80.4251 222.312 80.4999 222.424 80.2193 222.63C79.7702 222.985 78.7599 223.491 77.4688 223.491C75.2049 223.491 73.8016 221.713 73.8016 219.561ZM75.1114 218.832H79.5644C79.5083 217.747 78.6102 216.774 77.4688 216.774C76.2153 216.774 75.2423 217.672 75.1114 218.832Z" fill="#24372C"/>
<path d="M67.7759 222.948V216.175C67.7759 215.988 67.9443 215.819 68.1314 215.819H68.4869C68.6366 215.819 68.7675 215.913 68.8049 216.081L68.9546 216.624C68.9546 216.624 69.6469 215.632 71.1999 215.632C71.7612 215.632 72.6967 215.726 72.5096 216.25L72.2851 216.886C72.1915 217.129 72.0231 217.129 71.836 217.054C71.6676 216.979 71.387 216.905 71.1063 216.905C69.6843 216.905 69.0669 217.952 69.0669 217.952V222.948C69.0669 223.135 68.8985 223.304 68.7114 223.304H68.1314C67.9443 223.304 67.7759 223.135 67.7759 222.948Z" fill="#24372C"/>
<path d="M59.6852 222.873V228.561C59.6852 228.748 59.5168 228.917 59.3297 228.917H58.7497C58.5626 228.917 58.3942 228.748 58.3942 228.561V216.175C58.3942 215.988 58.5626 215.819 58.7497 215.819H59.1426C59.311 215.819 59.3671 215.876 59.4419 216.063L59.5729 216.418C59.5729 216.418 60.3962 215.632 61.7433 215.632C63.7827 215.632 65.2795 217.429 65.2795 219.58C65.2795 221.769 63.7453 223.491 61.6872 223.491C60.4523 223.491 59.6852 222.873 59.6852 222.873ZM59.7039 221.582C59.7039 221.582 60.4897 222.237 61.5188 222.237C62.9595 222.237 63.9698 221.058 63.9698 219.561C63.9698 218.102 63.1092 216.811 61.6123 216.811C60.3962 216.811 59.7039 217.728 59.7039 217.728V221.582Z" fill="#24372C"/>
<path d="M49.5631 222.817L52.0141 219.487L49.6379 216.306C49.4508 216.063 49.5631 215.819 49.8811 215.819H50.667C50.7979 215.819 50.9102 215.894 50.9663 215.969L52.7438 218.514H52.7625L54.6148 215.969C54.671 215.894 54.7832 215.819 54.9142 215.819H55.7C56.0181 215.819 56.1304 216.063 55.9433 216.306L53.5671 219.468L55.962 222.817C56.1304 223.06 56.0181 223.303 55.7188 223.303H55.0265C54.9142 223.303 54.8019 223.21 54.7458 223.135L52.7625 220.385H52.7438L50.7979 223.154C50.7418 223.229 50.6296 223.303 50.4986 223.303H49.8063C49.4882 223.303 49.3947 223.06 49.5631 222.817Z" fill="#24372C"/>
<path d="M39.4785 222.948V210.562C39.4785 210.375 39.6282 210.206 39.834 210.206H47.2059C47.4117 210.206 47.5614 210.375 47.5614 210.562V211.104C47.5614 211.291 47.4117 211.46 47.2059 211.46H40.9192V216.025H46.2891C46.4762 216.025 46.6446 216.194 46.6446 216.381V216.923C46.6446 217.129 46.4762 217.279 46.2891 217.279H40.9192V222.05H47.2059C47.4117 222.05 47.5614 222.218 47.5614 222.405V222.948C47.5614 223.135 47.4117 223.303 47.2059 223.303H39.834C39.6282 223.303 39.4785 223.135 39.4785 222.948Z" fill="#24372C"/>
<path d="M61.6736 204.948V192.562C61.6736 192.375 61.842 192.206 62.0291 192.206H62.6091C62.7962 192.206 62.9646 192.375 62.9646 192.562V198.624C62.9646 198.624 63.9562 197.632 65.4718 197.632C67.3241 197.632 68.3719 198.811 68.3719 201V204.948C68.3719 205.135 68.2035 205.303 68.0164 205.303H67.4176C67.2305 205.303 67.0621 205.135 67.0621 204.948V201C67.0621 199.578 66.426 198.886 65.3782 198.886C63.9562 198.886 62.9646 199.934 62.9646 199.934V204.948C62.9646 205.135 62.7962 205.303 62.6091 205.303H62.0291C61.842 205.303 61.6736 205.135 61.6736 204.948Z" fill="#24372C"/>
<path d="M55.372 203.432V198.942H54.4177C54.2119 198.942 54.0623 198.774 54.0623 198.586V198.175C54.0623 197.969 54.2119 197.819 54.4177 197.819H55.372V195.743C55.372 195.555 55.5404 195.387 55.7275 195.387L56.3262 195.35C56.5133 195.35 56.663 195.518 56.663 195.705V197.819H58.8334C59.0392 197.819 59.1889 197.969 59.1889 198.175V198.586C59.1889 198.774 59.0392 198.942 58.8334 198.942H56.663V203.32C56.663 204.069 56.8501 204.218 57.2804 204.218C57.7482 204.218 58.403 203.938 58.6463 203.807C58.9269 203.657 59.0018 203.769 59.0953 203.919L59.376 204.387C59.5069 204.611 59.4508 204.723 59.245 204.854C58.9831 205.023 57.9727 205.491 57.0933 205.491C55.5965 205.491 55.372 204.592 55.372 203.432Z" fill="#24372C"/>
<path d="M51.1821 194.358C50.6957 194.358 50.3027 193.965 50.3027 193.479C50.3027 192.973 50.6957 192.581 51.1821 192.581C51.6873 192.581 52.0802 192.973 52.0802 193.479C52.0802 193.965 51.6873 194.358 51.1821 194.358ZM50.5647 204.948V198.175C50.5647 197.988 50.7331 197.819 50.9202 197.819H51.5002C51.6873 197.819 51.8557 197.988 51.8557 198.175V204.948C51.8557 205.135 51.6873 205.304 51.5002 205.304H50.9202C50.7331 205.304 50.5647 205.135 50.5647 204.948Z" fill="#24372C"/>
<path d="M40.2644 205.304L38.1875 198.25C38.1127 197.988 38.1875 197.819 38.4682 197.819H39.0482C39.2166 197.819 39.3476 197.913 39.385 198.025L40.7508 202.965H40.7695L42.8838 197.819C42.9212 197.726 43.0335 197.632 43.2019 197.632H43.2954C43.4638 197.632 43.5761 197.726 43.6135 197.819L45.7091 202.983H45.7278L47.0749 198.025C47.1123 197.913 47.2433 197.819 47.393 197.819H47.973C48.2537 197.819 48.3285 197.988 48.2537 198.25L46.2142 205.304C46.1768 205.416 46.0458 205.491 45.8962 205.491H45.8026C45.6342 205.491 45.522 205.397 45.4845 205.304L43.2019 199.69L40.9941 205.304C40.9566 205.397 40.8444 205.491 40.676 205.491H40.5824C40.414 205.491 40.3018 205.416 40.2644 205.304Z" fill="#24372C"/>
<path d="M134.825 44.4238V34.2896C134.825 34.1366 134.947 33.9988 135.116 33.9988H139.494C141.331 33.9988 142.831 35.4684 142.831 37.2901C142.831 38.6985 141.897 39.8466 140.566 40.3824L142.663 44.2707C142.77 44.4697 142.663 44.7147 142.403 44.7147H140.795C140.657 44.7147 140.581 44.6381 140.55 44.5769L138.514 40.5202H136.815V44.4238C136.815 44.5769 136.677 44.7147 136.524 44.7147H135.116C134.947 44.7147 134.825 44.5769 134.825 44.4238ZM136.83 38.8822H139.326C140.137 38.8822 140.841 38.178 140.841 37.3207C140.841 36.5094 140.137 35.8358 139.326 35.8358H136.83V38.8822Z" fill="#24372C"/>
<path d="M122.764 44.4238V34.2896C122.764 34.1366 122.886 33.9988 123.054 33.9988H129.285C129.453 33.9988 129.576 34.1366 129.576 34.2896V35.5449C129.576 35.698 129.453 35.8358 129.285 35.8358H124.754V38.3464H128.535C128.688 38.3464 128.826 38.4841 128.826 38.6372V39.9078C128.826 40.0762 128.688 40.1987 128.535 40.1987H124.754V42.8777H129.285C129.453 42.8777 129.576 43.0154 129.576 43.1685V44.4238C129.576 44.5769 129.453 44.7147 129.285 44.7147H123.054C122.886 44.7147 122.764 44.5769 122.764 44.4238Z" fill="#24372C"/>
<path d="M110.254 44.4238V34.2896C110.254 34.1366 110.376 33.9988 110.545 33.9988H114.05C115.872 33.9988 117.28 35.2235 117.28 36.8308C117.28 38.0096 116.316 38.9281 115.596 39.2649C116.408 39.5251 117.587 40.3518 117.587 41.7601C117.587 43.4747 116.117 44.7147 114.249 44.7147H110.545C110.376 44.7147 110.254 44.5769 110.254 44.4238ZM112.229 38.4995H113.867C114.647 38.4995 115.183 37.8871 115.183 37.1217C115.183 36.3563 114.647 35.8205 113.867 35.8205H112.229V38.4995ZM112.229 42.9083H114.081C114.846 42.9083 115.459 42.3112 115.459 41.5152C115.459 40.7498 114.693 40.1834 113.897 40.1834H112.229V42.9083Z" fill="#24372C"/>
<path d="M93.123 44.3626L94.9447 34.0753C94.96 33.9529 95.0518 33.8457 95.2202 33.8457H95.4651C95.5876 33.8457 95.6795 33.9069 95.7254 33.9988L99.0932 41.2244C99.1239 41.2244 99.1239 41.2244 99.1392 41.2244L102.507 33.9988C102.553 33.9069 102.629 33.8457 102.767 33.8457H103.012C103.181 33.8457 103.272 33.9529 103.288 34.0753L105.094 44.3626C105.14 44.5769 105.018 44.7147 104.819 44.7147H103.426C103.288 44.7147 103.165 44.5922 103.135 44.4851L102.231 38.6832C102.216 38.6832 102.186 38.6832 102.186 38.6832L99.5066 44.6994C99.476 44.7912 99.3841 44.8678 99.2463 44.8678H98.9708C98.833 44.8678 98.7565 44.7912 98.7105 44.6994L96.0009 38.6832C96.0009 38.6832 95.9703 38.6832 95.955 38.6832L95.0671 44.4851C95.0518 44.5922 94.9294 44.7147 94.7916 44.7147H93.4138C93.2148 44.7147 93.0923 44.5769 93.123 44.3626Z" fill="#24372C"/>
<path d="M81.7657 44.4238V34.2896C81.7657 34.1366 81.8882 33.9988 82.0566 33.9988H88.2871C88.4555 33.9988 88.578 34.1366 88.578 34.2896V35.5449C88.578 35.698 88.4555 35.8358 88.2871 35.8358H83.7558V38.3464H87.537C87.6901 38.3464 87.8279 38.4841 87.8279 38.6372V39.9078C87.8279 40.0762 87.6901 40.1987 87.537 40.1987H83.7558V42.8777H88.2871C88.4555 42.8777 88.578 43.0154 88.578 43.1685V44.4238C88.578 44.5769 88.4555 44.7147 88.2871 44.7147H82.0566C81.8882 44.7147 81.7657 44.5769 81.7657 44.4238Z" fill="#24372C"/>
<path d="M67.4586 39.372C67.4586 36.3104 69.9233 33.8457 72.985 33.8457C74.5311 33.8457 75.6486 34.3356 76.6896 35.2694C76.8274 35.3919 76.8274 35.5756 76.7049 35.698L75.7711 36.6625C75.6639 36.7849 75.5108 36.7849 75.3884 36.6625C74.7454 36.096 73.8881 35.7593 73.0309 35.7593C71.0714 35.7593 69.6171 37.3973 69.6171 39.3261C69.6171 41.2397 71.0867 42.8624 73.0462 42.8624C73.9647 42.8624 74.7454 42.5103 75.3884 41.9898C75.5108 41.8826 75.6792 41.8979 75.7711 41.9898L76.7202 42.9695C76.8427 43.0767 76.8121 43.2757 76.7049 43.3828C75.6639 44.3932 74.3474 44.8678 72.985 44.8678C69.9233 44.8678 67.4586 42.4337 67.4586 39.372Z" fill="#24372C"/>
<path d="M56.2229 44.4238V34.2896C56.2229 34.1366 56.3454 33.9988 56.5138 33.9988H62.7443C62.9127 33.9988 63.0351 34.1366 63.0351 34.2896V35.5449C63.0351 35.698 62.9127 35.8358 62.7443 35.8358H58.213V38.3464H61.9942C62.1473 38.3464 62.285 38.4841 62.285 38.6372V39.9078C62.285 40.0762 62.1473 40.1987 61.9942 40.1987H58.213V42.8777H62.7443C62.9127 42.8777 63.0351 43.0154 63.0351 43.1685V44.4238C63.0351 44.5769 62.9127 44.7147 62.7443 44.7147H56.5138C56.3454 44.7147 56.2229 44.5769 56.2229 44.4238Z" fill="#24372C"/>
<path d="M41.8593 44.4238V34.2896C41.8593 34.1366 41.9817 33.9988 42.1348 33.9988H45.7629C48.7174 33.9988 51.1362 36.4022 51.1362 39.3414C51.1362 42.3112 48.7174 44.7147 45.7629 44.7147H42.1348C41.9817 44.7147 41.8593 44.5769 41.8593 44.4238ZM43.834 42.847H45.5792C47.5693 42.847 49.0236 41.3468 49.0236 39.3414C49.0236 37.3513 47.5693 35.8511 45.5792 35.8511H43.834V42.847Z" fill="#24372C"/>
<path fill-rule="evenodd" clip-rule="evenodd" d="M154.084 179.885H37.5701V178.61H154.084V179.885Z" fill="#24372C"/>
<path fill-rule="evenodd" clip-rule="evenodd" d="M152.5 234.375H126V233.625H152.5V234.375Z" fill="black"/>
<path fill-rule="evenodd" clip-rule="evenodd" d="M145.806 237.96C144.458 239.949 144.232 242.35 144.444 243.951L143.701 244.049C143.471 242.317 143.709 239.718 145.185 237.539C146.677 235.338 149.395 233.625 154 233.625L154 234.375C149.604 234.375 147.138 235.995 145.806 237.96Z" fill="black"/>
<path fill-rule="evenodd" clip-rule="evenodd" d="M144.795 230.399C143.457 228.622 143.234 226.479 143.443 225.054L142.701 224.945C142.47 226.52 142.71 228.878 144.196 230.85C145.694 232.84 148.41 234.375 153 234.375L153 233.625C148.589 233.625 146.12 232.16 144.795 230.399Z" fill="black"/>
</svg>
