<svg width="186" height="272" viewBox="0 0 186 272" fill="none" xmlns="http://www.w3.org/2000/svg">
<path d="M108.063 160.809V159.635C132.591 158.069 139.897 129.366 139.897 102.359C139.897 89.1821 136.897 66.2198 124.111 66.2198C113.673 66.2198 110.412 84.8766 110.412 95.8359C110.412 114.493 115.891 123.626 124.763 123.626C129.199 123.626 133.896 120.103 136.636 110.448H137.288C134.679 122.321 128.416 127.931 121.241 127.931C109.368 127.931 99.8439 116.841 99.8439 96.7492C99.8439 79.7884 109.498 63.8713 124.372 63.8713C140.55 63.8713 150.726 83.4415 150.726 105.099C150.726 131.454 136.114 160.809 108.063 160.809Z" fill="#EA5E57"/>
<path d="M63.7104 160.678C49.098 160.678 36.0513 147.632 36.0513 113.188C36.0513 88.6602 45.3145 63.8713 63.8409 63.8713C82.3673 63.8713 91.6305 88.6602 91.6305 113.188C91.6305 147.632 78.5837 160.678 63.7104 160.678ZM63.7104 157.939C74.5392 157.939 80.0189 142.935 80.0189 111.622C80.0189 80.8321 74.6697 66.6112 63.7104 66.6112C53.0121 66.6112 47.5324 80.8321 47.5324 111.622C47.5324 142.935 53.0121 157.939 63.7104 157.939Z" fill="#EA5E57"/>
<path fill-rule="evenodd" clip-rule="evenodd" d="M0.355103 271.046L0.355103 262.725H0.999962C4.2293 262.725 6.92184 259.908 6.92184 256.339C6.92184 252.77 4.2293 249.952 0.999962 249.952H0.355103L0.355103 242.756H0.999962C4.2293 242.756 6.92184 239.939 6.92184 236.37C6.92184 232.801 4.2293 229.983 0.999962 229.983H0.355103L0.355103 222.787H0.999962C4.2293 222.787 6.92184 219.97 6.92184 216.401C6.92184 212.832 4.2293 210.014 0.999962 210.014H0.355103L0.355103 202.818H0.999962C4.2293 202.818 6.92184 200.001 6.92184 196.432C6.92184 192.863 4.2293 190.045 0.999962 190.045H0.355103L0.355103 182.849H0.999962C4.2293 182.849 6.92184 180.032 6.92184 176.463C6.92184 172.894 4.2293 170.076 0.999962 170.076H0.355103L0.355103 162.88H0.999962C4.2293 162.88 6.92184 160.063 6.92184 156.494C6.92184 152.925 4.2293 150.107 0.999962 150.107H0.355103L0.355103 142.911H0.999962C4.2293 142.911 6.92184 140.094 6.92184 136.525C6.92184 132.956 4.2293 130.138 0.999962 130.138H0.355103L0.355103 122.942H0.999962C4.2293 122.942 6.92184 120.125 6.92184 116.556C6.92184 112.987 4.2293 110.169 0.999962 110.169H0.355103L0.355103 102.973H0.999962C4.2293 102.973 6.92184 100.156 6.92184 96.5868C6.92184 93.0179 4.2293 90.2003 0.999962 90.2003H0.355103L0.355103 83.0043H0.999962C4.2293 83.0043 6.92184 80.1867 6.92184 76.6178C6.92184 73.0488 4.2293 70.2313 0.999962 70.2313H0.355103L0.355103 63.0353H0.999962C4.2293 63.0353 6.92184 60.2177 6.92184 56.6488C6.92184 53.0798 4.2293 50.2623 0.999962 50.2623H0.355103L0.355103 43.0663H0.999962C4.2293 43.0663 6.92184 40.2487 6.92184 36.6798C6.92184 33.1108 4.2293 30.2933 0.999962 30.2933H0.355103L0.355103 23.0215L1.05728 23.0842C1.14984 23.0924 1.20865 23.0973 1.26263 23.0973C4.49197 23.0973 7.18451 20.2797 7.18451 16.7108C7.18451 13.1418 4.49197 10.3243 1.26263 10.3243C1.25242 10.3243 1.23734 10.3252 1.18867 10.3296L1.18242 10.3301C1.14233 10.3337 1.07334 10.3399 0.999962 10.3399H0.355103L0.355103 2.54233H7.19096L8.27441 0.553619L8.32089 2.98737C8.38797 6.49954 11.046 9.24554 14.2356 9.24554C17.4252 9.24554 20.0832 6.49954 20.1503 2.98737L20.1624 2.35483H27.9944L28.0065 2.98737C28.0736 6.49954 30.7316 9.24554 33.9212 9.24554C37.1108 9.24554 39.7688 6.49954 39.8359 2.98737L39.848 2.35483H47.68L47.6921 2.98737C47.7592 6.49954 50.4172 9.24554 53.6068 9.24554C56.7964 9.24554 59.4544 6.49954 59.5215 2.98737L59.5336 2.35483H67.3657L67.3777 2.98737C67.4448 6.49954 70.1029 9.24554 73.2924 9.24554C76.482 9.24554 79.1401 6.49954 79.2072 2.98737L79.2192 2.35483H87.0513L87.0634 2.98737C87.1305 6.49954 89.7885 9.24554 92.9781 9.24554C96.1677 9.24554 98.8257 6.49954 98.8928 2.98737L98.9049 2.35483H106.737L106.749 2.98737C106.816 6.49954 109.474 9.24554 112.664 9.24554C115.853 9.24554 118.511 6.49954 118.578 2.98737L118.59 2.35483H126.423L126.435 2.98737C126.502 6.49954 129.16 9.24554 132.349 9.24554C135.539 9.24554 138.197 6.49954 138.264 2.98737L138.276 2.35483H146.108L146.12 2.98737C146.187 6.49954 148.845 9.24554 152.035 9.24554C155.225 9.24554 157.883 6.49954 157.95 2.98737L157.962 2.35483H165.806V3.14029C165.806 6.70923 168.499 9.52676 171.728 9.52676C174.957 9.52676 177.65 6.70923 177.65 3.14029V2.35483H185.645V10.1307L185.014 10.1445C181.834 10.2141 179.209 12.9991 179.209 16.5233C179.209 20.0474 181.834 22.8325 185.014 22.9021L185.645 22.9159V30.1136H184.869C181.639 30.1136 178.947 32.9312 178.947 36.5001C178.947 40.069 181.639 42.8866 184.869 42.8866H185.645V50.0982H184.869C181.639 50.0982 178.947 52.9158 178.947 56.4847C178.947 60.0536 181.639 62.8712 184.869 62.8712H185.645V70.0829H184.869C181.639 70.0829 178.947 72.9004 178.947 76.4693C178.947 80.0383 181.639 82.8558 184.869 82.8558H185.645V90.0675H184.869C181.639 90.0675 178.947 92.8851 178.947 96.454C178.947 100.023 181.639 102.84 184.869 102.84H185.645V110.052H184.869C181.639 110.052 178.947 112.87 178.947 116.439C178.947 120.008 181.639 122.825 184.869 122.825H185.645V130.037H184.869C181.639 130.037 178.947 132.854 178.947 136.423C178.947 139.992 181.639 142.81 184.869 142.81H185.645V150.021H184.869C181.639 150.021 178.947 152.839 178.947 156.408C178.947 159.977 181.639 162.794 184.869 162.794H185.645V170.006H184.869C181.639 170.006 178.947 172.824 178.947 176.393C178.947 179.961 181.639 182.779 184.869 182.779H185.645V189.991H184.869C181.639 189.991 178.947 192.808 178.947 196.377C178.947 199.946 181.639 202.764 184.869 202.764H185.645V209.975H184.869C181.639 209.975 178.947 212.793 178.947 216.362C178.947 219.931 181.639 222.748 184.869 222.748H185.645V229.96H184.869C181.639 229.96 178.947 232.777 178.947 236.346C178.947 239.915 181.639 242.733 184.869 242.733H185.645V249.945H184.869C181.639 249.945 178.947 252.762 178.947 256.331C178.947 259.9 181.639 262.718 184.869 262.718H185.645V271.046H177.662L177.65 270.414C177.583 266.902 174.925 264.156 171.735 264.156C168.546 264.156 165.888 266.902 165.82 270.414L165.808 271.046H157.964V270.261C157.964 266.692 155.272 263.874 152.042 263.874C148.813 263.874 146.12 266.692 146.12 270.261V271.046H138.264V270.261C138.264 266.692 135.571 263.874 132.342 263.874C129.113 263.874 126.42 266.692 126.42 270.261V271.046H118.564V270.261C118.564 266.692 115.871 263.874 112.642 263.874C109.412 263.874 106.72 266.692 106.72 270.261V271.046H98.8635V270.261C98.8635 266.692 96.1709 263.874 92.9416 263.874C89.7122 263.874 87.0197 266.692 87.0197 270.261V271.046H79.1632V270.261C79.1632 266.692 76.4707 263.874 73.2414 263.874C70.012 263.874 67.3195 266.692 67.3195 270.261V271.046H59.463V270.261C59.463 266.692 56.7705 263.874 53.5412 263.874C50.3118 263.874 47.6193 266.692 47.6193 270.261V271.046H39.7628V270.261C39.7628 266.692 37.0703 263.874 33.841 263.874C30.6116 263.874 27.9191 266.692 27.9191 270.261V271.046H20.0626V270.261C20.0626 266.692 17.3701 263.874 14.1407 263.874C10.9114 263.874 8.21885 266.692 8.21885 270.261V271.046H0.355103ZM7.08804 3.83203H1.64482L1.64482 9.0451C5.48595 9.25717 8.47423 12.6478 8.47423 16.7108C8.47423 20.7738 5.48595 24.1644 1.64482 24.3765L1.64482 29.0337C5.35865 29.3819 8.21156 32.7099 8.21156 36.6798C8.21156 40.6497 5.35866 43.9776 1.64482 44.3259L1.64482 49.0027C5.35866 49.3509 8.21156 52.6789 8.21156 56.6488C8.21156 60.6187 5.35866 63.9467 1.64482 64.2949L1.64482 68.9717C5.35865 69.3199 8.21156 72.6479 8.21156 76.6178C8.21156 80.5877 5.35866 83.9157 1.64482 84.2639L1.64482 88.9407C5.35866 89.2889 8.21156 92.6169 8.21156 96.5868C8.21156 100.557 5.35865 103.885 1.64482 104.233L1.64482 108.91C5.35866 109.258 8.21156 112.586 8.21156 116.556C8.21156 120.526 5.35866 123.854 1.64482 124.202L1.64482 128.879C5.35865 129.227 8.21156 132.555 8.21156 136.525C8.21156 140.495 5.35866 143.823 1.64482 144.171L1.64482 148.848C5.35865 149.196 8.21156 152.524 8.21156 156.494C8.21156 160.464 5.35866 163.792 1.64482 164.14L1.64482 168.817C5.35866 169.165 8.21156 172.493 8.21156 176.463C8.21156 180.433 5.35866 183.761 1.64482 184.109L1.64482 188.786C5.35866 189.134 8.21156 192.462 8.21156 196.432C8.21156 200.402 5.35866 203.73 1.64482 204.078L1.64482 208.755C5.35866 209.103 8.21156 212.431 8.21156 216.401C8.21156 220.371 5.35866 223.699 1.64482 224.047L1.64482 228.724C5.35866 229.072 8.21156 232.4 8.21156 236.37C8.21156 240.34 5.35866 243.668 1.64482 244.016L1.64482 248.693C5.35866 249.041 8.21156 252.369 8.21156 256.339C8.21156 260.309 5.35866 263.637 1.64482 263.985L1.64482 269.757H6.94455C7.18774 265.789 10.2798 262.585 14.1407 262.585C18.0017 262.585 21.0937 265.789 21.3369 269.757H26.6448C26.888 265.789 29.98 262.585 33.841 262.585C37.7019 262.585 40.7939 265.789 41.0371 269.757H46.345C46.5882 265.789 49.6802 262.585 53.5412 262.585C57.4021 262.585 60.4942 265.789 60.7374 269.757H66.0452C66.2884 265.789 69.3804 262.585 73.2414 262.585C77.1023 262.585 80.1944 265.789 80.4376 269.757H85.7454C85.9886 265.789 89.0806 262.585 92.9416 262.585C96.8025 262.585 99.8946 265.789 100.138 269.757H105.446C105.689 265.789 108.781 262.585 112.642 262.585C116.503 262.585 119.595 265.789 119.838 269.757H125.146C125.389 265.789 128.481 262.585 132.342 262.585C136.203 262.585 139.295 265.789 139.538 269.757H144.846C145.089 265.789 148.181 262.585 152.042 262.585C155.903 262.585 158.995 265.789 159.238 269.757H164.567C164.937 265.92 167.965 262.866 171.735 262.866C175.506 262.866 178.533 265.92 178.903 269.757H184.355V263.988C180.577 263.707 177.657 260.348 177.657 256.331C177.657 252.314 180.577 248.955 184.355 248.674V244.004C180.577 243.722 177.657 240.363 177.657 236.346C177.657 232.33 180.577 228.97 184.355 228.689V224.019C180.577 223.738 177.657 220.378 177.657 216.362C177.657 212.345 180.577 208.986 184.355 208.705V204.034C180.577 203.753 177.657 200.394 177.657 196.377C177.657 192.361 180.577 189.001 184.355 188.72V184.05C180.577 183.769 177.657 180.409 177.657 176.393C177.657 172.376 180.577 169.017 184.355 168.735V164.065C180.577 163.784 177.657 160.424 177.657 156.408C177.657 152.391 180.577 149.032 184.355 148.751V144.08C180.577 143.799 177.657 140.44 177.657 136.423C177.657 132.407 180.577 129.047 184.355 128.766V124.096C180.577 123.815 177.657 120.455 177.657 116.439C177.657 112.422 180.577 109.063 184.355 108.781V104.111C180.577 103.83 177.657 100.471 177.657 96.454C177.657 92.4375 180.577 89.078 184.355 88.7968V84.1265C180.577 83.8454 177.657 80.4859 177.657 76.4693C177.657 72.4528 180.577 69.0933 184.355 68.8122V64.1419C180.577 63.8607 177.657 60.5013 177.657 56.4847C177.657 52.4682 180.577 49.1087 184.355 48.8275V44.1573C180.577 43.8761 177.657 40.5166 177.657 36.5001C177.657 32.4836 180.577 29.1241 184.355 28.8429V24.1489C180.704 23.7334 177.92 20.448 177.92 16.5233C177.92 12.5986 180.704 9.3132 184.355 8.89771V3.64453H178.924C178.681 7.61215 175.589 10.8165 171.728 10.8165C167.867 10.8165 164.775 7.61215 164.532 3.64453H159.203C158.833 7.48166 155.805 10.5352 152.035 10.5352C148.265 10.5352 145.237 7.48166 144.867 3.64453H139.517C139.148 7.48166 136.12 10.5352 132.349 10.5352C128.579 10.5352 125.551 7.48166 125.182 3.64453H119.831C119.462 7.48166 116.434 10.5352 112.664 10.5352C108.893 10.5352 105.865 7.48166 105.496 3.64453H100.146C99.7763 7.48166 96.7485 10.5352 92.9781 10.5352C89.2076 10.5352 86.1798 7.48166 85.8103 3.64453H80.4602C80.0907 7.48166 77.0629 10.5352 73.2924 10.5352C69.522 10.5352 66.4942 7.48166 66.1246 3.64453H60.7746C60.4051 7.48166 57.3773 10.5352 53.6068 10.5352C49.8364 10.5352 46.8086 7.48166 46.439 3.64453H41.089C40.7195 7.48166 37.6916 10.5352 33.9212 10.5352C30.1508 10.5352 27.123 7.48166 26.7534 3.64453H21.4034C21.0338 7.48166 18.006 10.5352 14.2356 10.5352C10.5268 10.5352 7.53651 7.58066 7.08804 3.83203Z" fill="#24372C"/>
<path d="M93.0601 243.14L89.5418 236.009C89.4283 235.763 89.5418 235.593 89.8255 235.593H90.6578C90.8091 235.593 90.9226 235.687 90.9794 235.801L93.7789 241.589H93.7979L96.4461 235.801C96.5028 235.687 96.6352 235.593 96.7677 235.593H97.4865C97.7702 235.593 97.9026 235.782 97.7702 236.028L91.963 248.607C91.9063 248.72 91.7739 248.834 91.6414 248.834H90.9416C90.6578 248.834 90.5065 248.626 90.6389 248.361L93.0601 243.14Z" fill="#24372C"/>
<path d="M83.7948 242.799V235.952C83.7948 235.763 83.965 235.592 84.1542 235.592H84.5136C84.6649 235.592 84.7973 235.687 84.8352 235.857L84.9865 236.406C84.9865 236.406 85.6864 235.403 87.2564 235.403C87.8239 235.403 88.7697 235.498 88.5805 236.028L88.3535 236.671C88.2589 236.917 88.0887 236.917 87.8995 236.841C87.7293 236.765 87.4456 236.69 87.1618 236.69C85.7242 236.69 85.1 237.749 85.1 237.749V242.799C85.1 242.989 84.9298 243.159 84.7406 243.159H84.1542C83.965 243.159 83.7948 242.989 83.7948 242.799Z" fill="#24372C"/>
<path d="M74.2227 239.376C74.2227 237.238 75.6413 235.403 77.9302 235.403C79.9163 235.403 81.3539 236.879 81.3539 238.865C81.3539 238.997 81.335 239.243 81.3161 239.376C81.2972 239.565 81.1459 239.697 80.9756 239.697H75.5279C75.6035 240.965 76.7196 242.156 78.0626 242.156C78.857 242.156 79.5002 241.854 79.9353 241.589C80.2001 241.437 80.3136 241.343 80.4649 241.551C80.5784 241.702 80.673 241.835 80.7865 241.986C80.9189 242.156 80.9945 242.27 80.7108 242.478C80.2568 242.837 79.2354 243.348 77.9302 243.348C75.6413 243.348 74.2227 241.551 74.2227 239.376ZM75.5468 238.638H80.0487C79.992 237.541 79.084 236.557 77.9302 236.557C76.6628 236.557 75.6792 237.465 75.5468 238.638Z" fill="#24372C"/>
<path d="M68.7724 243.159L65.5756 236.028C65.4621 235.782 65.5756 235.593 65.8593 235.593H66.4457C66.616 235.593 66.7295 235.687 66.7862 235.801L69.1318 241.211H69.1507L71.6476 235.801C71.7043 235.687 71.8178 235.593 71.9692 235.593H72.461C72.7447 235.593 72.8582 235.782 72.7447 236.028L69.5101 243.159C69.4723 243.253 69.3588 243.348 69.1885 243.348H69.094C68.9237 243.348 68.8102 243.253 68.7724 243.159Z" fill="#24372C"/>
<path d="M62.8718 232.093C62.38 232.093 61.9828 231.696 61.9828 231.204C61.9828 230.693 62.38 230.296 62.8718 230.296C63.3826 230.296 63.7798 230.693 63.7798 231.204C63.7798 231.696 63.3826 232.093 62.8718 232.093ZM62.2476 242.799V235.952C62.2476 235.763 62.4179 235.592 62.607 235.592H63.1934C63.3826 235.592 63.5528 235.763 63.5528 235.952V242.799C63.5528 242.988 63.3826 243.159 63.1934 243.159H62.607C62.4179 243.159 62.2476 242.988 62.2476 242.799Z" fill="#24372C"/>
<path d="M57.8612 242.799V230.277C57.8612 230.088 58.0314 229.918 58.2206 229.918H58.807C58.9962 229.918 59.1664 230.088 59.1664 230.277V242.799C59.1664 242.989 58.9962 243.159 58.807 243.159H58.2206C58.0314 243.159 57.8612 242.989 57.8612 242.799Z" fill="#24372C"/>
<path d="M48.2703 239.376C48.2703 237.238 49.689 235.403 51.9778 235.403C53.9639 235.403 55.4016 236.879 55.4016 238.865C55.4016 238.997 55.3826 239.243 55.3637 239.376C55.3448 239.565 55.1935 239.697 55.0232 239.697H49.5755C49.6511 240.965 50.7672 242.156 52.1102 242.156C52.9047 242.156 53.5478 241.854 53.9829 241.589C54.2477 241.437 54.3612 241.343 54.5125 241.551C54.626 241.702 54.7206 241.835 54.8341 241.986C54.9665 242.156 55.0422 242.27 54.7584 242.478C54.3044 242.837 53.283 243.348 51.9778 243.348C49.689 243.348 48.2703 241.551 48.2703 239.376ZM49.5944 238.638H54.0964C54.0396 237.541 53.1316 236.557 51.9778 236.557C50.7104 236.557 49.7268 237.465 49.5944 238.638Z" fill="#24372C"/>
<path d="M38.7665 239.357C38.7665 237.144 40.1284 235.403 42.3983 235.403C43.6468 235.403 44.4223 235.895 44.4223 235.895V230.277C44.4223 230.088 44.5926 229.918 44.7817 229.918H45.3681C45.5573 229.918 45.7275 230.088 45.7275 230.277V242.799C45.7275 242.989 45.5573 243.159 45.3681 243.159H44.9709C44.8006 243.159 44.6872 243.026 44.6493 242.856L44.5358 242.345C44.5358 242.345 43.6279 243.348 42.2092 243.348C40.2798 243.348 38.7665 241.532 38.7665 239.357ZM40.0906 239.376C40.0906 240.851 40.9607 242.156 42.3416 242.156C43.7035 242.156 44.4034 240.908 44.4034 240.908V237.125C44.4034 237.125 43.6089 236.671 42.5686 236.671C40.9229 236.671 40.0906 237.862 40.0906 239.376Z" fill="#24372C"/>
<path d="M105.243 225.14L101.725 218.009C101.611 217.763 101.725 217.593 102.009 217.593H102.841C102.992 217.593 103.106 217.687 103.162 217.801L105.962 223.589H105.981L108.629 217.801C108.686 217.687 108.818 217.593 108.951 217.593H109.669C109.953 217.593 110.086 217.782 109.953 218.028L104.146 230.607C104.089 230.72 103.957 230.834 103.824 230.834H103.125C102.841 230.834 102.689 230.626 102.822 230.361L105.243 225.14Z" fill="#24372C"/>
<path d="M88.0161 224.799V217.952C88.0161 217.763 88.1864 217.592 88.3755 217.592H88.7349C88.9052 217.592 88.9997 217.668 89.0376 217.819L89.2078 218.406C89.2078 218.406 90.0969 217.403 91.6669 217.403C92.7829 217.403 93.5963 217.838 94.0881 218.633C94.1827 218.557 95.3933 217.403 96.9066 217.403C99.1008 217.403 99.8385 218.841 99.8385 220.808V224.799C99.8385 224.989 99.6683 225.159 99.4791 225.159H98.8738C98.6847 225.159 98.5144 224.989 98.5144 224.799V220.808C98.5144 219.389 97.9091 218.671 96.812 218.671C95.5825 218.671 94.7691 219.484 94.5043 219.73C94.561 220.052 94.5988 220.411 94.5988 220.808V224.799C94.5988 224.989 94.4286 225.159 94.2394 225.159H93.6341C93.445 225.159 93.2747 224.989 93.2747 224.799V220.808C93.2747 219.371 92.6316 218.671 91.4777 218.671C90.1347 218.671 89.3213 219.749 89.3213 219.749V224.799C89.3213 224.989 89.1511 225.159 88.9619 225.159H88.3755C88.1864 225.159 88.0161 224.989 88.0161 224.799Z" fill="#24372C"/>
<path d="M77.9637 221.357C77.9637 219.219 79.6283 217.403 81.728 217.403C83.8277 217.403 85.4923 219.219 85.4923 221.357C85.4923 223.532 83.8277 225.348 81.728 225.348C79.6283 225.348 77.9637 223.532 77.9637 221.357ZM79.2689 221.357C79.2689 222.889 80.3471 224.118 81.728 224.118C83.1089 224.118 84.1871 222.889 84.1871 221.357C84.1871 219.862 83.1089 218.652 81.728 218.652C80.3471 218.652 79.2689 219.862 79.2689 221.357Z" fill="#24372C"/>
<path d="M68.7684 224.799V217.952C68.7684 217.763 68.9387 217.592 69.1278 217.592H69.4872C69.6575 217.592 69.7521 217.668 69.7899 217.819L69.9601 218.406C69.9601 218.406 71.0383 217.403 72.6084 217.403C74.8026 217.403 75.5403 218.841 75.5403 220.808V224.799C75.5403 224.989 75.3701 225.159 75.1809 225.159H74.5756C74.3865 225.159 74.2162 224.989 74.2162 224.799V220.808C74.2162 219.371 73.5731 218.671 72.5138 218.671C71.0951 218.671 70.0736 219.749 70.0736 219.749V224.799C70.0736 224.989 69.9034 225.159 69.7142 225.159H69.1278C68.9387 225.159 68.7684 224.989 68.7684 224.799Z" fill="#24372C"/>
<path d="M58.7161 221.357C58.7161 219.219 60.3807 217.403 62.4803 217.403C64.58 217.403 66.2446 219.219 66.2446 221.357C66.2446 223.532 64.58 225.348 62.4803 225.348C60.3807 225.348 58.7161 223.532 58.7161 221.357ZM60.0213 221.357C60.0213 222.889 61.0995 224.118 62.4803 224.118C63.8612 224.118 64.9394 222.889 64.9394 221.357C64.9394 219.862 63.8612 218.652 62.4803 218.652C61.0995 218.652 60.0213 219.862 60.0213 221.357Z" fill="#24372C"/>
<path d="M49.9692 221.395C49.9692 219.162 51.8041 217.403 53.8659 217.403C55.0009 217.403 55.8899 217.857 56.5709 218.727C56.7033 218.898 56.6655 219.125 56.4952 219.257L56.1358 219.56C55.8521 219.825 55.7575 219.635 55.5873 219.484C55.2089 219.049 54.5847 218.69 53.847 218.69C52.4283 218.69 51.3312 219.862 51.3312 221.376C51.3312 222.889 52.4094 224.1 53.8281 224.1C54.963 224.1 55.3981 223.532 55.8332 223.116C56.0602 222.889 56.1926 222.927 56.4006 223.078L56.6087 223.229C56.7979 223.362 56.8546 223.57 56.7411 223.759C56.1736 224.667 55.1333 225.348 53.847 225.348C51.7473 225.348 49.9692 223.664 49.9692 221.395Z" fill="#24372C"/>
<path d="M39.9015 224.799V212.277C39.9015 212.088 40.0528 211.918 40.2609 211.918H47.7138C47.9218 211.918 48.0732 212.088 48.0732 212.277V212.826C48.0732 213.015 47.9218 213.185 47.7138 213.185H41.358V217.801H46.7869C46.976 217.801 47.1463 217.971 47.1463 218.16V218.709C47.1463 218.917 46.976 219.068 46.7869 219.068H41.358V223.891H47.7138C47.9218 223.891 48.0732 224.062 48.0732 224.251V224.799C48.0732 224.989 47.9218 225.159 47.7138 225.159H40.2609C40.0528 225.159 39.9015 224.989 39.9015 224.799Z" fill="#24372C"/>
<path d="M125.602 203.357C125.602 201.144 126.964 199.403 129.234 199.403C130.483 199.403 131.258 199.895 131.258 199.895V194.277C131.258 194.088 131.428 193.918 131.618 193.918H132.204C132.393 193.918 132.563 194.088 132.563 194.277V206.799C132.563 206.989 132.393 207.159 132.204 207.159H131.807C131.636 207.159 131.523 207.026 131.485 206.856L131.372 206.345C131.372 206.345 130.464 207.348 129.045 207.348C127.116 207.348 125.602 205.532 125.602 203.357ZM126.926 203.376C126.926 204.851 127.797 206.156 129.177 206.156C130.539 206.156 131.239 204.908 131.239 204.908V201.125C131.239 201.125 130.445 200.671 129.404 200.671C127.759 200.671 126.926 201.862 126.926 203.376Z" fill="#24372C"/>
<path d="M116.407 206.799V199.952C116.407 199.763 116.577 199.592 116.766 199.592H117.126C117.296 199.592 117.391 199.668 117.428 199.819L117.599 200.406C117.599 200.406 118.677 199.403 120.247 199.403C122.441 199.403 123.179 200.841 123.179 202.808V206.799C123.179 206.989 123.009 207.159 122.819 207.159H122.214C122.025 207.159 121.855 206.989 121.855 206.799V202.808C121.855 201.371 121.212 200.671 120.152 200.671C118.734 200.671 117.712 201.749 117.712 201.749V206.799C117.712 206.989 117.542 207.159 117.353 207.159H116.766C116.577 207.159 116.407 206.989 116.407 206.799Z" fill="#24372C"/>
<path d="M106.753 203.924V199.952C106.753 199.763 106.923 199.593 107.113 199.593H107.718C107.907 199.593 108.077 199.763 108.077 199.952V203.943C108.077 205.381 108.72 206.081 109.78 206.081C111.217 206.081 112.031 205.002 112.031 205.002C112.031 204.586 112.031 204.151 112.031 199.952C112.031 199.763 112.201 199.593 112.39 199.593H112.977C113.166 199.593 113.336 199.763 113.336 199.952V206.799C113.336 206.989 113.166 207.159 112.977 207.159H112.617C112.409 207.159 112.333 207.026 112.277 206.837L112.144 206.346C112.144 206.346 111.255 207.348 109.685 207.348C107.491 207.348 106.753 205.929 106.753 203.924Z" fill="#24372C"/>
<path d="M96.7954 203.357C96.7954 201.219 98.46 199.403 100.56 199.403C102.659 199.403 104.324 201.219 104.324 203.357C104.324 205.532 102.659 207.348 100.56 207.348C98.46 207.348 96.7954 205.532 96.7954 203.357ZM98.1006 203.357C98.1006 204.889 99.1788 206.118 100.56 206.118C101.941 206.118 103.019 204.889 103.019 203.357C103.019 201.862 101.941 200.652 100.56 200.652C99.1788 200.652 98.1006 201.862 98.1006 203.357Z" fill="#24372C"/>
<path d="M90.7035 206.799V199.952C90.7035 199.763 90.8737 199.592 91.0629 199.592H91.4223C91.5736 199.592 91.706 199.687 91.7439 199.857L91.8952 200.406C91.8952 200.406 92.5951 199.403 94.1651 199.403C94.7326 199.403 95.6784 199.498 95.4892 200.028L95.2622 200.671C95.1676 200.917 94.9974 200.917 94.8082 200.841C94.638 200.765 94.3543 200.69 94.0705 200.69C92.6329 200.69 92.0087 201.749 92.0087 201.749V206.799C92.0087 206.989 91.8384 207.159 91.6493 207.159H91.0629C90.8737 207.159 90.7035 206.989 90.7035 206.799Z" fill="#24372C"/>
<path d="M76.2771 200.557C76.2771 196.774 79.3226 193.729 83.1057 193.729C85.0162 193.729 86.3971 194.391 87.6834 195.488C87.8347 195.639 87.8536 195.866 87.7023 196.017C87.5321 196.188 87.324 196.377 87.1727 196.547C87.0024 196.736 86.8889 196.717 86.6808 196.528C85.7161 195.677 84.3542 195.053 83.0868 195.053C80.0981 195.053 77.8282 197.55 77.8282 200.481C77.8282 203.395 80.0981 205.948 83.0868 205.948C85.1676 205.948 86.4917 205.154 86.4917 205.154V202.505H84.3164C84.1083 202.505 83.957 202.354 83.957 202.165V201.465C83.957 201.257 84.1083 201.106 84.3164 201.106H87.5888C87.778 201.106 87.9293 201.276 87.9293 201.465V205.797C87.9293 205.891 87.8536 206.043 87.778 206.1C87.778 206.1 85.8485 207.348 83.1057 207.348C79.3226 207.348 76.2771 204.34 76.2771 200.557Z" fill="#24372C"/>
<path d="M62.3405 206.799V194.277C62.3405 194.088 62.5107 193.918 62.6999 193.918H63.2862C63.4754 193.918 63.6457 194.088 63.6457 194.277V200.406C63.6457 200.406 64.6482 199.403 66.1804 199.403C68.0531 199.403 69.1123 200.595 69.1123 202.808V206.799C69.1123 206.989 68.9421 207.159 68.7529 207.159H68.1476C67.9585 207.159 67.7882 206.989 67.7882 206.799V202.808C67.7882 201.371 67.1451 200.671 66.0858 200.671C64.6482 200.671 63.6457 201.73 63.6457 201.73V206.799C63.6457 206.989 63.4754 207.159 63.2862 207.159H62.6999C62.5107 207.159 62.3405 206.989 62.3405 206.799Z" fill="#24372C"/>
<path d="M55.9696 205.267V200.727H55.0049C54.7968 200.727 54.6455 200.557 54.6455 200.368V199.952C54.6455 199.744 54.7968 199.592 55.0049 199.592H55.9696V197.493C55.9696 197.304 56.1399 197.133 56.329 197.133L56.9343 197.095C57.1235 197.095 57.2748 197.266 57.2748 197.455V199.592H59.4691C59.6771 199.592 59.8285 199.744 59.8285 199.952V200.368C59.8285 200.557 59.6771 200.727 59.4691 200.727H57.2748V205.154C57.2748 205.91 57.464 206.062 57.899 206.062C58.3719 206.062 59.034 205.778 59.2799 205.645C59.5636 205.494 59.6393 205.608 59.7339 205.759L60.0176 206.232C60.15 206.459 60.0933 206.572 59.8852 206.705C59.6204 206.875 58.5989 207.348 57.7099 207.348C56.1966 207.348 55.9696 206.44 55.9696 205.267Z" fill="#24372C"/>
<path d="M51.7337 196.093C51.2418 196.093 50.8446 195.696 50.8446 195.204C50.8446 194.693 51.2418 194.296 51.7337 194.296C52.2444 194.296 52.6416 194.693 52.6416 195.204C52.6416 195.696 52.2444 196.093 51.7337 196.093ZM51.1094 206.799V199.952C51.1094 199.763 51.2797 199.592 51.4688 199.592H52.0552C52.2444 199.592 52.4146 199.763 52.4146 199.952V206.799C52.4146 206.988 52.2444 207.159 52.0552 207.159H51.4688C51.2797 207.159 51.1094 206.988 51.1094 206.799Z" fill="#24372C"/>
<path d="M40.6959 207.159L38.5963 200.028C38.5206 199.763 38.5963 199.592 38.88 199.592H39.4664C39.6366 199.592 39.7691 199.687 39.8069 199.801L41.1877 204.794H41.2067L43.3442 199.592C43.382 199.498 43.4955 199.403 43.6657 199.403H43.7603C43.9306 199.403 44.044 199.498 44.0819 199.592L46.2005 204.813H46.2194L47.5813 199.801C47.6191 199.687 47.7516 199.592 47.9029 199.592H48.4893C48.773 199.592 48.8487 199.763 48.773 200.028L46.7112 207.159C46.6734 207.272 46.5409 207.348 46.3896 207.348H46.295C46.1248 207.348 46.0113 207.253 45.9735 207.159L43.6657 201.484L41.4337 207.159C41.3958 207.253 41.2823 207.348 41.1121 207.348H41.0175C40.8473 207.348 40.7338 207.272 40.6959 207.159Z" fill="#24372C"/>
<path d="M136.296 44.5V34.2545C136.296 34.0997 136.419 33.9604 136.59 33.9604H141.016C142.873 33.9604 144.39 35.4462 144.39 37.2879C144.39 38.7118 143.446 39.8725 142.099 40.4142L144.22 44.3453C144.328 44.5465 144.22 44.7941 143.957 44.7941H142.332C142.192 44.7941 142.115 44.7167 142.084 44.6548L140.026 40.5535H138.308V44.5C138.308 44.6548 138.168 44.7941 138.014 44.7941H136.59C136.419 44.7941 136.296 44.6548 136.296 44.5ZM138.323 38.8975H140.846C141.666 38.8975 142.378 38.1856 142.378 37.3189C142.378 36.4986 141.666 35.8176 140.846 35.8176H138.323V38.8975Z" fill="#24372C"/>
<path d="M124.102 44.5V34.2545C124.102 34.0997 124.226 33.9604 124.396 33.9604H130.695C130.865 33.9604 130.989 34.0997 130.989 34.2545V35.5236C130.989 35.6784 130.865 35.8176 130.695 35.8176H126.114V38.3558H129.937C130.091 38.3558 130.231 38.4951 130.231 38.6499V39.9344C130.231 40.1047 130.091 40.2285 129.937 40.2285H126.114V42.9369H130.695C130.865 42.9369 130.989 43.0762 130.989 43.231V44.5C130.989 44.6548 130.865 44.7941 130.695 44.7941H124.396C124.226 44.7941 124.102 44.6548 124.102 44.5Z" fill="#24372C"/>
<path d="M111.454 44.5V34.2545C111.454 34.0997 111.578 33.9604 111.749 33.9604H115.293C117.134 33.9604 118.558 35.1986 118.558 36.8236C118.558 38.0153 117.583 38.9439 116.856 39.2844C117.676 39.5475 118.868 40.3833 118.868 41.8071C118.868 43.5405 117.382 44.7941 115.494 44.7941H111.749C111.578 44.7941 111.454 44.6548 111.454 44.5ZM113.451 38.5106H115.107C115.896 38.5106 116.438 37.8915 116.438 37.1177C116.438 36.3439 115.896 35.8022 115.107 35.8022H113.451V38.5106ZM113.451 42.9679H115.324C116.097 42.9679 116.717 42.3643 116.717 41.5595C116.717 40.7856 115.943 40.213 115.138 40.213H113.451V42.9679Z" fill="#24372C"/>
<path d="M94.1353 44.4381L95.9771 34.0378C95.9925 33.914 96.0854 33.8057 96.2556 33.8057H96.5033C96.6271 33.8057 96.7199 33.8676 96.7664 33.9604L100.171 41.2654C100.202 41.2654 100.202 41.2654 100.218 41.2654L103.623 33.9604C103.669 33.8676 103.746 33.8057 103.886 33.8057H104.133C104.303 33.8057 104.396 33.914 104.412 34.0378L106.238 44.4381C106.284 44.6548 106.161 44.7941 105.959 44.7941H104.551C104.412 44.7941 104.288 44.6703 104.257 44.5619L103.344 38.6963C103.328 38.6963 103.298 38.6963 103.298 38.6963L100.589 44.7786C100.558 44.8715 100.465 44.9488 100.326 44.9488H100.047C99.9081 44.9488 99.8307 44.8715 99.7843 44.7786L97.0449 38.6963C97.0449 38.6963 97.014 38.6963 96.9985 38.6963L96.1009 44.5619C96.0854 44.6703 95.9616 44.7941 95.8223 44.7941H94.4294C94.2282 44.7941 94.1044 44.6548 94.1353 44.4381Z" fill="#24372C"/>
<path d="M82.6534 44.5V34.2545C82.6534 34.0997 82.7773 33.9604 82.9475 33.9604H89.2465C89.4167 33.9604 89.5405 34.0997 89.5405 34.2545V35.5236C89.5405 35.6784 89.4167 35.8176 89.2465 35.8176H84.6654V38.3558H88.4881C88.6429 38.3558 88.7822 38.4951 88.7822 38.6499V39.9344C88.7822 40.1047 88.6429 40.2285 88.4881 40.2285H84.6654V42.9369H89.2465C89.4167 42.9369 89.5405 43.0762 89.5405 43.231V44.5C89.5405 44.6548 89.4167 44.7941 89.2465 44.7941H82.9475C82.7773 44.7941 82.6534 44.6548 82.6534 44.5Z" fill="#24372C"/>
<path d="M68.1891 39.3927C68.1891 36.2974 70.6808 33.8057 73.7762 33.8057C75.3393 33.8057 76.4691 34.3009 77.5215 35.245C77.6608 35.3688 77.6608 35.5545 77.537 35.6783L76.5929 36.6534C76.4846 36.7772 76.3298 36.7772 76.206 36.6534C75.556 36.0807 74.6893 35.7402 73.8226 35.7402C71.8416 35.7402 70.3713 37.3962 70.3713 39.3463C70.3713 41.2809 71.857 42.9214 73.8381 42.9214C74.7667 42.9214 75.556 42.5654 76.206 42.0392C76.3298 41.9309 76.5 41.9464 76.5929 42.0392L77.5525 43.0297C77.6763 43.1381 77.6453 43.3393 77.537 43.4476C76.4846 44.4691 75.1536 44.9488 73.7762 44.9488C70.6808 44.9488 68.1891 42.4881 68.1891 39.3927Z" fill="#24372C"/>
<path d="M56.8298 44.5V34.2545C56.8298 34.0997 56.9536 33.9604 57.1239 33.9604H63.4229C63.5931 33.9604 63.7169 34.0997 63.7169 34.2545V35.5236C63.7169 35.6784 63.5931 35.8176 63.4229 35.8176H58.8418V38.3558H62.6645C62.8193 38.3558 62.9586 38.4951 62.9586 38.6499V39.9344C62.9586 40.1047 62.8193 40.2285 62.6645 40.2285H58.8418V42.9369H63.4229C63.5931 42.9369 63.7169 43.0762 63.7169 43.231V44.5C63.7169 44.6548 63.5931 44.7941 63.4229 44.7941H57.1239C56.9536 44.7941 56.8298 44.6548 56.8298 44.5Z" fill="#24372C"/>
<path d="M42.3083 44.5V34.2545C42.3083 34.0997 42.4322 33.9604 42.5869 33.9604H46.2549C49.2419 33.9604 51.6872 36.3903 51.6872 39.3618C51.6872 42.3643 49.2419 44.7941 46.2549 44.7941H42.5869C42.4322 44.7941 42.3083 44.6548 42.3083 44.5ZM44.3048 42.9059H46.0692C48.0811 42.9059 49.5514 41.3892 49.5514 39.3618C49.5514 37.3498 48.0811 35.8331 46.0692 35.8331H44.3048V42.9059Z" fill="#24372C"/>
<path fill-rule="evenodd" clip-rule="evenodd" d="M155.766 181.626H37.972V180.336H155.766V181.626Z" fill="#24372C"/>
<path fill-rule="evenodd" clip-rule="evenodd" d="M154.5 234.375H128V233.625H154.5V234.375Z" fill="black"/>
<path fill-rule="evenodd" clip-rule="evenodd" d="M147.806 237.96C146.458 239.949 146.232 242.35 146.444 243.951L145.701 244.049C145.471 242.317 145.709 239.718 147.185 237.539C148.677 235.338 151.395 233.625 156 233.625L156 234.375C151.604 234.375 149.138 235.995 147.806 237.96Z" fill="black"/>
<path fill-rule="evenodd" clip-rule="evenodd" d="M146.795 230.399C145.457 228.622 145.234 226.479 145.443 225.054L144.701 224.945C144.47 226.52 144.71 228.878 146.196 230.85C147.694 232.84 150.41 234.375 155 234.375L155 233.625C150.589 233.625 148.12 232.16 146.795 230.399Z" fill="black"/>
</svg>
