<svg width="69" height="13" viewBox="0 0 69 13" fill="none" xmlns="http://www.w3.org/2000/svg">
<path d="M6.31161 0.401367L7.6809 4.6156H12.112L8.52716 7.22015L9.89645 11.4344L6.31161 8.82984L2.72676 11.4344L4.09605 7.22015L0.511209 4.6156H4.94232L6.31161 0.401367Z" fill="#D23738"/>
<path d="M20.192 0.401123L21.5613 4.61536H25.9924L22.4076 7.2199L23.7769 11.4341L20.192 8.8296L16.6072 11.4341L17.9765 7.2199L14.3916 4.61536H18.8227L20.192 0.401123Z" fill="#D23738"/>
<path d="M34.2826 0.401123L35.6519 4.61536H40.083L36.4981 7.2199L37.8674 11.4341L34.2826 8.8296L30.6977 11.4341L32.067 7.2199L28.4822 4.61536H32.9133L34.2826 0.401123Z" fill="#D23738"/>
<path d="M48.3732 0.401123L49.7425 4.61536H54.1736L50.5887 7.2199L51.958 11.4341L48.3732 8.8296L44.7883 11.4341L46.1576 7.2199L42.5728 4.61536H47.0039L48.3732 0.401123Z" fill="#D23738"/>
<path d="M62.674 0.401123L64.0433 4.61536H68.4744L64.8896 7.2199L66.2589 11.4341L62.674 8.8296L59.0892 11.4341L60.4585 7.2199L56.8736 4.61536H61.3047L62.674 0.401123Z" fill="#D23738"/>
</svg>
